<?xml version="1.0" encoding="UTF-8" standalone="no"?>
<!-- Created with Inkscape (http://www.inkscape.org/) -->

<svg
   width="210mm"
   height="297mm"
   viewBox="0 0 210 297"
   version="1.1"
   id="svg5"
   inkscape:version="1.1.2 (0a00cf5339, 2022-02-04)"
   sodipodi:docname="logo.svg"
   xmlns:inkscape="http://www.inkscape.org/namespaces/inkscape"
   xmlns:sodipodi="http://sodipodi.sourceforge.net/DTD/sodipodi-0.dtd"
   xmlns="http://www.w3.org/2000/svg"
   xmlns:svg="http://www.w3.org/2000/svg">
  <sodipodi:namedview
     id="namedview7"
     pagecolor="#ffffff"
     bordercolor="#666666"
     borderopacity="1.0"
     inkscape:pageshadow="2"
     inkscape:pageopacity="0.0"
     inkscape:pagecheckerboard="0"
     inkscape:document-units="mm"
     showgrid="false"
     inkscape:zoom="2.1266375"
     inkscape:cx="432.13758"
     inkscape:cy="487.85935"
     inkscape:window-width="1846"
     inkscape:window-height="1016"
     inkscape:window-x="74"
     inkscape:window-y="27"
     inkscape:window-maximized="1"
     inkscape:current-layer="layer1" />
  <defs
     id="defs2">
    <inkscape:path-effect
       effect="bspline"
       id="path-effect20059"
       is_visible="true"
       lpeversion="1"
       weight="33.333333"
       steps="2"
       helper_size="0"
       apply_no_weight="true"
       apply_with_weight="true"
       only_selected="false" />
    <inkscape:path-effect
       effect="bspline"
       id="path-effect19973"
       is_visible="true"
       lpeversion="1"
       weight="33.333333"
       steps="2"
       helper_size="0"
       apply_no_weight="true"
       apply_with_weight="true"
       only_selected="false" />
  </defs>
  <g
     inkscape:label="Layer 1"
     inkscape:groupmode="layer"
     id="layer1">
    <g
       id="g20263"
       inkscape:export-filename="/home/raas/g20263.png"
       inkscape:export-xdpi="300"
       inkscape:export-ydpi="300">
      <g
         id="g1445"
         transform="matrix(1.1179006,0,0,1.1179006,-7.1926502,10.995046)">
        <path
           style="fill:#3f3f3f;fill-opacity:1;stroke-width:0.264583"
           d="M 75.041068,76.613156 C 74.448178,75.958018 74.687768,75.521586 76.367988,74.196147 L 77.659678,73.177191 78.265988,73.746792 78.872298,74.316392 77.486278,75.719846 C 76.723968,76.491746 75.965818,77.123297 75.801498,77.123297 75.637178,77.123297 75.294988,76.893737 75.041068,76.613156 Z"
           id="path968" />
        <path
           style="fill:#3f3f3f;fill-opacity:1;stroke-width:0.264583"
           d="M 106.07241,75.969112 104.57722,74.602874 105.08172,73.979847 C 105.64972,73.278397 105.70756,73.302304 107.50146,74.979908 108.61414,76.020465 108.69843,76.330072 108.03062,76.923737 107.60388,77.303097 107.45046,77.228307 106.07241,75.969112 Z"
           id="path966" />
        <path
           style="fill:#3f3f3f;fill-opacity:1;stroke-width:0.264583"
           d="M 102.92394,84.961377 C 99.793238,82.397637 94.470728,77.159107 94.470728,76.641547 94.470728,76.25457 98.090408,72.160049 98.739708,71.812556 99.017158,71.664069 99.390528,71.630212 99.569418,71.737319 101.67098,72.99556 110.87489,81.699367 110.87489,82.428497 110.87489,82.658587 110.08757,83.731937 109.12529,84.813717 107.20912,86.967847 106.68979,87.442047 106.24681,87.442047 106.08533,87.442047 104.59004,86.325747 102.92394,84.961377 Z"
           id="path964" />
        <path
           style="fill:#3f3f3f;fill-opacity:1;stroke-width:0.264583"
           d="M 75.660628,86.185277 C 73.599198,84.018057 72.475438,82.651207 72.560538,82.414587 72.605668,82.289077 73.654628,81.092807 74.891558,79.756227 77.875378,76.531993 83.987528,71.470383 84.616068,71.703127 85.288928,71.952277 88.915948,76.062273 88.906198,76.564531 88.885588,77.626567 78.335718,87.442047 77.214838,87.442047 77.017498,87.442047 76.318108,86.876507 75.660628,86.185277 Z"
           id="path962" />
        <path
           style="fill:#3f3f3f;fill-opacity:1;stroke-width:0.264583"
           d="M 86.225028,88.674147 C 85.468148,87.778217 84.305128,86.472327 83.640538,85.772177 L 82.432188,84.499177 83.969568,83.051077 85.506958,81.602977 88.018598,84.244497 C 89.400008,85.697327 90.513618,86.981347 90.493288,87.097887 90.472968,87.214417 89.813928,87.983267 89.028748,88.806437 L 87.601158,90.303117 Z"
           id="path960" />
        <path
           style="fill:#3f3f3f;fill-opacity:1;stroke-width:0.264583"
           d="M 98.941308,102.58945 C 97.459478,100.73406 95.498058,98.442107 94.582598,97.496217 L 92.918118,95.776427 94.382918,94.213687 95.847728,92.650937 96.515268,93.552227 C 96.882418,94.047927 99.083398,96.316917 101.40634,98.594407 105.55601,102.66289 105.62275,102.74618 105.22229,103.35691 104.65738,104.21843 102.52557,105.96289 102.03764,105.96289 101.81649,105.96289 100.42314,104.44484 98.941308,102.58945 Z"
           id="path958" />
        <path
           style="fill:#3f3f3f;fill-opacity:1;stroke-width:0.264583"
           d="M 79.505928,104.60159 C 78.714278,103.85288 78.066558,103.08944 78.066558,102.90506 78.066558,102.72069 79.659938,101.04131 81.607398,99.173127 83.554858,97.304947 86.246408,94.407207 87.588628,92.733717 88.930848,91.060227 91.823428,87.882537 94.016568,85.672187 L 98.004108,81.653357 99.485988,83.021717 100.96786,84.390087 98.064528,87.834297 C 96.467698,89.728617 93.428268,93.008467 91.310238,95.122857 89.192198,97.237247 86.211548,100.54124 84.686558,102.46505 82.939888,104.66852 81.734648,105.96289 81.429578,105.96289 81.163228,105.96289 80.297578,105.3503 79.505928,104.60159 Z"
           id="path956" />
      </g>
      <path
         style="fill:#000000;stroke-width:0.264583"
         d="M 81.196318,133.84905 C 81.148438,132.74259 81.168798,131.75077 81.241558,131.64501 81.314318,131.53925 82.445408,130.7522 83.755098,129.89602 85.064788,129.03984 86.880488,127.61552 87.789998,126.73087 89.194348,125.3649 89.443638,124.98343 89.443638,124.20048 89.443638,123.69342 89.247048,122.99786 89.006758,122.65481 88.519408,121.95902 85.745558,120.59848 83.027498,119.72204 81.309348,119.16803 81.241558,119.11367 81.241558,118.29023 81.241558,117.43941 81.226948,117.42997 78.794158,116.70805 70.782448,114.33061 65.466138,111.69734 65.979128,110.3605 66.177198,109.84435 67.195908,109.73301 74.626188,109.41545 79.669858,109.19989 80.898698,109.07373 81.137648,108.74694 81.396398,108.39308 83.623898,108.34414 99.471128,108.34414 H 117.51008 L 117.43363,110.6352 117.35719,112.92626 113.9176,114.29207 C 112.02583,115.04327 109.94224,115.9306 109.28739,116.26393 106.4876,117.68906 102.00157,121.58751 101.34927,123.16231 100.78164,124.53269 101.42144,125.3874 105.67052,128.93508 109.80081,132.38357 110.03502,132.72637 109.6833,134.80822 L 109.50546,135.86081 H 107.71765 C 106.26429,135.86081 105.84,135.76155 105.44969,135.33026 104.46561,134.24286 101.92626,133.80633 95.465508,133.61389 89.714758,133.4426 89.369788,133.46051 87.660298,134.01897 86.676608,134.34033 85.567598,134.88621 85.195828,135.23203 84.637078,135.75179 84.239338,135.86081 82.901628,135.86081 H 81.283368 Z"
         id="path854" />
      <text
         xml:space="preserve"
         style="font-style:normal;font-weight:normal;font-size:13.3482px;line-height:0.85;font-family:sans-serif;text-align:center;text-anchor:middle;fill:#3f3f3f;fill-opacity:1;stroke:none;stroke-width:0.333705"
         x="95.189026"
         y="119.22879"
         id="text2725"><tspan
           sodipodi:role="line"
           id="tspan2723"
           style="font-style:normal;font-variant:normal;font-weight:normal;font-stretch:normal;font-family:aakar;-inkscape-font-specification:aakar;text-align:center;text-anchor:middle;fill:#3f3f3f;fill-opacity:1;stroke-width:0.333705"
           x="95.189026"
           y="119.22879">M</tspan><tspan
           sodipodi:role="line"
           style="font-style:normal;font-variant:normal;font-weight:normal;font-stretch:normal;font-family:aakar;-inkscape-font-specification:aakar;text-align:center;text-anchor:middle;fill:#3f3f3f;fill-opacity:1;stroke-width:0.333705"
           x="95.189026"
           y="131.79108"
           id="tspan2727">C</tspan></text>
    </g>
  </g>
</svg>
