<?xml version="1.0" encoding="UTF-8" standalone="no"?>
<!-- Created with Inkscape (http://www.inkscape.org/) -->

<svg
   width="210mm"
   height="297mm"
   viewBox="0 0 210 297"
   version="1.1"
   id="svg5"
   inkscape:version="1.1.2 (0a00cf5339, 2022-02-04)"
   sodipodi:docname="logo.svg"
   xmlns:inkscape="http://www.inkscape.org/namespaces/inkscape"
   xmlns:sodipodi="http://sodipodi.sourceforge.net/DTD/sodipodi-0.dtd"
   xmlns="http://www.w3.org/2000/svg"
   xmlns:svg="http://www.w3.org/2000/svg">
  <sodipodi:namedview
     id="namedview7"
     pagecolor="#ffffff"
     bordercolor="#666666"
     borderopacity="1.0"
     inkscape:pageshadow="2"
     inkscape:pageopacity="0.0"
     inkscape:pagecheckerboard="0"
     inkscape:document-units="mm"
     showgrid="false"
     inkscape:zoom="1.0633188"
     inkscape:cx="356.43122"
     inkscape:cy="412.3881"
     inkscape:window-width="1846"
     inkscape:window-height="1016"
     inkscape:window-x="74"
     inkscape:window-y="27"
     inkscape:window-maximized="1"
     inkscape:current-layer="layer1" />
  <defs
     id="defs2">
    <inkscape:path-effect
       effect="bspline"
       id="path-effect17378"
       is_visible="true"
       lpeversion="1"
       weight="33.333333"
       steps="2"
       helper_size="0"
       apply_no_weight="true"
       apply_with_weight="true"
       only_selected="false" />
    <inkscape:path-effect
       effect="bspline"
       id="path-effect20059"
       is_visible="true"
       lpeversion="1"
       weight="33.333333"
       steps="2"
       helper_size="0"
       apply_no_weight="true"
       apply_with_weight="true"
       only_selected="false" />
    <inkscape:path-effect
       effect="bspline"
       id="path-effect19973"
       is_visible="true"
       lpeversion="1"
       weight="33.333333"
       steps="2"
       helper_size="0"
       apply_no_weight="true"
       apply_with_weight="true"
       only_selected="false" />
  </defs>
  <g
     inkscape:label="Layer 1"
     inkscape:groupmode="layer"
     id="layer1">
    <g
       id="g21396"
       transform="translate(4.15252,0.74648359)"
       inkscape:export-filename="/home/raas/g21396.png"
       inkscape:export-xdpi="300"
       inkscape:export-ydpi="300">
      <circle
         style="fill:#fefefe;fill-opacity:1;stroke:#414141;stroke-width:2.665;stroke-linejoin:round;stroke-miterlimit:4;stroke-dasharray:none;stroke-opacity:1"
         id="path20672"
         cx="82.753914"
         cy="106.1341"
         r="41.347588" />
      <g
         id="g20549"
         transform="translate(-7.7063195,-4.9869757)">
        <path
           style="fill:#3f3f3f;fill-opacity:1;stroke-width:0.052817"
           d="M 113.41672,128.60415 C 113.45207,128.41069 113.33267,128.20885 112.89164,127.71653 112.61836,127.41146 112.50559,127.25311 112.50611,127.17512 112.50661,127.09729 112.63891,126.91598 112.95617,126.55841 113.85814,125.54186 113.74559,125.41575 112.43712,125.97686 111.91308,126.20159 111.70663,126.26285 111.51543,126.25039 111.35455,126.23992 111.2355,126.26747 111.17236,126.32981 111.05986,126.44087 110.88704,126.45164 110.73173,126.3573 110.55872,126.25221 110.50668,126.13546 110.58624,126.03086 110.70998,125.86819 110.59457,125.4731 110.22148,124.78217 109.8834,124.15608 109.82172,123.71496 109.9942,123.1568 110.63317,121.08891 110.24532,119.78341 108.83751,119.26338 108.16841,119.01619 107.30365,119.02378 106.15493,119.28691 105.87865,119.35019 105.5326,119.42937 105.38592,119.46285 L 105.11922,119.5237 104.00789,118.34669 C 102.65475,116.91358 102.15257,116.31291 102.03993,115.99276 101.94162,115.71331 101.97102,115.02363 102.11439,114.24671 102.55687,111.84879 102.46657,110.92361 101.65573,109.54751 101.39408,109.10343 101.28798,108.97132 100.79797,108.47946 100.11393,107.79285 99.763568,107.57196 98.870988,107.26466 97.635588,106.8393 96.301388,106.83437 94.376928,107.24809 L 93.810587,107.36984 93.539507,107.09527 C 93.238417,106.79031 91.588547,104.93484 90.840437,104.05987 89.954907,103.02416 89.647217,102.61743 89.657207,102.49579 89.668017,102.36413 89.766137,102.05978 90.079727,101.18527 90.383847,100.33712 90.476217,99.863191 90.477937,99.142057 90.479447,98.503168 90.367347,97.940408 90.125227,97.371404 89.869207,96.769801 89.657137,96.464089 89.013787,95.769192 88.464677,95.176125 88.374967,95.096198 88.119397,94.9724 87.332897,94.591449 85.629247,94.549123 84.441137,94.881005 84.236687,94.938086 83.861397,95.084114 83.607147,95.205464 83.099017,95.448006 82.890157,95.481849 82.753817,95.343742 82.630507,95.218844 82.440087,94.761776 82.364857,94.410112 82.284867,94.036179 82.173957,93.96687 81.733527,94.015572 80.867267,94.11134 80.618437,94.612946 81.325097,94.838901 81.656367,94.944815 81.774187,94.900709 81.634947,94.72288 81.571557,94.641958 81.566167,94.586684 81.616807,94.536673 81.771757,94.383706 81.823667,94.554543 81.808047,95.166044 81.799187,95.513532 81.809247,95.815394 81.830457,95.836865 81.851657,95.858349 81.974837,95.873169 82.104197,95.869791 L 82.339387,95.86369 82.220087,95.981806 C 81.968427,96.231013 81.721517,96.087616 81.654997,95.653616 81.606757,95.338872 81.534827,95.295943 81.503237,95.563046 81.460347,95.925707 81.324327,96.344206 81.191887,96.520987 81.029567,96.73766 80.772177,96.815387 80.377237,96.766973 80.029437,96.724345 79.762867,96.820912 79.640237,97.033932 79.483847,97.305525 79.383527,97.231189 79.271277,96.760558 L 79.194857,96.440092 79.358637,96.522257 C 79.519607,96.603009 79.526347,96.60056 79.749627,96.38013 79.920457,96.211453 80.014087,96.154176 80.127187,96.149161 80.318717,96.140665 80.319037,96.183462 80.127977,96.253518 79.998127,96.301133 79.981047,96.323795 79.996507,96.427877 80.017807,96.57109 80.171097,96.635883 80.314997,96.562476 80.367447,96.535729 80.483887,96.390696 80.573757,96.240151 80.663637,96.089619 80.861177,95.813208 81.012757,95.625914 81.310497,95.258028 81.358977,95.113938 81.220487,95.008678 81.136757,94.945025 81.108807,94.963969 80.717977,95.349083 80.238357,95.821744 80.111307,95.88253 79.255607,96.048785 78.966307,96.104976 78.705677,96.185858 78.676417,96.228525 78.609317,96.32627 78.860527,96.918696 79.146447,97.337011 L 79.354527,97.641426 78.781987,98.15674 C 78.102787,98.768006 77.903017,99.062484 77.560247,99.957479 77.320487,100.5835 77.153087,100.95087 77.011457,101.16173 76.904267,101.32132 76.927167,101.49738 77.063127,101.55897 77.133677,101.59094 77.182227,101.55971 77.321997,101.3924 L 77.494037,101.18649 77.403947,101.45693 C 77.337677,101.65578 77.264467,101.7698 77.127287,101.88764 L 76.940747,102.04789 77.049647,102.26097 C 77.188537,102.5328 77.151887,102.61338 76.606647,103.23483 76.370627,103.50388 76.170667,103.75213 76.162317,103.78653 76.153087,103.82452 76.208717,103.84732 76.303997,103.84454 76.418827,103.84122 76.482697,103.87317 76.542277,103.96381 76.587047,104.0319 76.641147,104.08773 76.662527,104.08787 76.683887,104.088 76.759417,103.95471 76.830347,103.79166 76.901287,103.6286 77.084947,103.31794 77.238467,103.10132 77.572127,102.63048 78.208057,101.85686 78.261127,101.8572 78.281917,101.85735 78.270147,101.88584 78.235007,101.92053 78.094187,102.05955 77.983077,102.54419 78.048667,102.73323 78.108937,102.90693 78.125817,102.924 78.267037,102.95437 78.477337,102.99957 78.769417,102.76667 79.873627,101.67325 80.743937,100.81143 81.278217,100.19249 81.627707,99.64119 81.726087,99.485971 81.841627,99.343661 81.884467,99.324913 81.941417,99.299973 82.049427,99.367855 82.286467,99.577576 83.230037,100.41241 84.248497,101.35577 85.167307,102.24598 L 86.195467,103.24215 86.060907,103.41609 C 85.875387,103.6559 85.633387,104.37676 85.444187,105.25312 85.116067,106.77316 85.226337,107.89983 85.798737,108.87523 86.087947,109.36809 86.731477,110.0916 87.210947,110.46295 87.979627,111.05831 88.443897,111.19715 89.692557,111.2051 90.649737,111.21119 91.623397,111.0624 92.796557,110.73078 L 93.384457,110.5646 95.165217,112.3142 C 96.144638,113.27646 97.341588,114.47637 97.825108,114.98062 98.855678,116.0554 98.872468,116.08611 98.607908,116.41357 98.395098,116.67694 98.018598,117.80513 97.918498,118.47933 97.801588,119.2667 97.876588,119.7476 98.237738,120.52605 98.640218,121.39366 99.505928,122.36579 100.10733,122.62551 101.25179,123.11973 102.57212,123.08936 104.28697,122.52937 105.2821,122.2044 105.44943,122.17473 105.64265,122.28886 105.87251,122.42466 106.6787,123.11065 107.04976,123.48616 107.50231,123.94417 107.52678,124.05337 107.3184,124.68548 106.89488,125.97029 106.93495,126.63093 107.47946,127.34109 107.69081,127.61674 108.271,128.0047 108.64261,128.11885 109.11341,128.26349 109.90757,128.24068 110.45895,128.06667 111.36219,127.78161 111.47174,127.79766 112.11035,128.30846 112.6264,128.72125 112.80539,128.82308 113.05556,128.84622 113.28843,128.86779 113.37972,128.80659 113.41672,128.60415 Z M 112.81503,128.27066 C 112.74359,128.19829 112.67649,128.09753 112.66593,128.04676 112.65243,127.98194 112.71864,128.02725 112.8879,128.19871 113.05716,128.37015 113.10162,128.43693 113.03701,128.42261 112.98634,128.41137 112.88646,128.34301 112.81503,128.27066 Z M 111.82216,127.02658 C 111.67687,127.04884 111.5023,127.04982 111.43424,127.02874 111.31486,126.99174 111.3165,126.98637 111.48069,126.87556 111.79758,126.66176 112.11176,126.61545 112.18046,126.77242 112.23539,126.89792 112.11793,126.98124 111.82216,127.02658 Z M 110.51837,127.64499 C 109.75433,127.89142 109.12989,127.85965 108.73638,127.55429 108.58504,127.43687 108.45148,127.38254 108.28475,127.37065 107.92835,127.34521 107.78819,127.14742 107.98729,126.95084 108.12415,126.81572 109.02265,127.06135 109.47268,127.35692 109.75869,127.54477 109.96647,127.54998 110.28973,127.37743 110.63762,127.19174 110.87187,127.13173 110.94801,127.20885 111.10149,127.3643 110.96776,127.50004 110.51837,127.64499 Z M 109.99317,127.02365 C 109.59435,127.06859 109.22091,126.96303 109.00498,126.74432 108.90591,126.64398 108.80363,126.49266 108.77767,126.40805 108.66066,126.02648 108.80097,125.52503 109.02435,125.52645 109.21153,125.52766 109.47079,125.71345 109.92088,126.1689 110.43095,126.68505 110.5277,126.85267 110.36426,126.93715 110.30347,126.96857 110.13648,127.00748 109.99317,127.02365 Z M 109.7455,125.39407 C 109.28453,125.03681 107.8855,123.61525 107.72264,123.33863 107.65138,123.21759 107.59649,123.05787 107.60067,122.98367 107.61159,122.78979 107.52178,122.72587 107.26528,122.74503 L 107.04,122.76184 107.1995,122.62441 C 107.48519,122.37825 107.62171,122.48292 108.72644,123.7952 109.63098,124.86967 110.21346,125.65323 110.10715,125.65255 110.09152,125.65244 109.92878,125.53612 109.7455,125.39407 Z M 107.98155,126.61337 C 107.68009,126.47568 107.48087,125.98914 107.5206,125.48773 107.55123,125.10107 107.74574,124.49207 107.86376,124.41327 107.98807,124.33026 108.20049,124.42826 108.4572,124.68704 108.66692,124.89849 108.68213,124.92886 108.61264,124.99748 108.4961,125.11253 108.42961,125.36505 108.38594,125.85849 108.32835,126.50938 108.2154,126.72019 107.98155,126.61337 Z M 109.19326,123.38179 C 109.05613,123.33532 108.85843,123.23141 108.75395,123.15088 108.50839,122.96163 108.4802,122.75732 108.63577,122.29457 108.7182,122.04938 108.73056,121.91561 108.68108,121.80422 108.6271,121.68273 108.63481,121.63401 108.71835,121.56864 108.81644,121.49191 108.81297,121.47624 108.66766,121.34083 108.33493,121.03072 107.53011,120.79652 107.36329,120.96122 107.3418,120.98244 107.17907,121.0211 107.00166,121.04715 106.62073,121.10308 105.99204,121.34265 105.12528,121.76218 104.78003,121.92932 104.34679,122.11471 104.16254,122.17418 103.84529,122.27661 103.82856,122.27555 103.84622,122.15449 103.86007,122.05949 103.9307,121.97224 104.12136,121.81463 104.36636,121.61211 104.53072,121.5386 105.10919,121.37287 105.30435,121.31695 105.42431,121.24267 105.60079,121.06841 105.79883,120.87291 105.86733,120.83528 106.05213,120.82057 106.23134,120.80628 106.267,120.78756 106.2531,120.71493 106.22975,120.59288 105.97616,120.41118 105.81667,120.4022 105.74405,120.39812 105.61346,120.44489 105.52645,120.50614 105.25048,120.70044 105.07389,120.77509 104.65019,120.8766 104.36443,120.94507 104.19037,121.01942 104.0849,121.11808 103.94627,121.24772 103.91855,121.25232 103.77853,121.16872 103.65645,121.09583 103.61731,121.09588 103.58952,121.16901 103.52526,121.33807 103.31519,121.48352 102.97887,121.5918 102.79572,121.65078 102.5033,121.77 102.32908,121.85672 102.15483,121.94343 101.91501,122.02684 101.7961,122.04205 101.49749,122.08032 100.87885,121.8612 100.56096,121.60459 100.26049,121.36203 100.10824,121.34184 99.987118,121.52848 99.915768,121.63845 99.882728,121.64964 99.774928,121.60041 99.704678,121.5683 99.580798,121.46255 99.499638,121.36538 99.418458,121.26817 99.229538,121.04242 99.079808,120.86369 98.733068,120.44976 98.420838,119.95291 98.432668,119.83392 98.437708,119.7832 98.494828,119.69947 98.559598,119.64783 98.673888,119.55668 98.672258,119.54873 98.504238,119.37855 98.242488,119.11344 98.244798,118.88337 98.521218,117.68561 98.721768,116.81664 98.854208,116.49784 99.001288,116.53007 99.049748,116.54068 99.185208,116.65518 99.302298,116.78448 L 99.515248,117.01961 99.365478,117.16863 C 99.143928,117.38909 99.108338,117.5021 99.179018,117.76056 99.226668,117.93478 99.219178,118.01701 99.149358,118.08592 98.798908,118.43192 98.970808,119.59941 99.404758,119.82065 99.809098,120.02681 100.1221,119.51071 99.866268,119.05967 99.718078,118.79842 99.692698,118.62988 99.749088,118.28157 99.800848,117.96192 99.978688,117.55713 100.08853,117.50906 100.21932,117.4518 100.26586,117.5988 100.27133,118.08615 100.27438,118.35799 100.29018,118.59389 100.30646,118.61039 100.32275,118.62689 100.39334,118.56237 100.46332,118.46701 100.71768,118.12051 101.13356,118.15594 101.68127,118.57075 102.20815,118.96978 103.31709,120.16319 103.31602,120.33004 103.31527,120.44714 103.01763,120.51757 102.48665,120.52629 101.52968,120.542 100.62897,120.364 100.37458,120.10889 100.20599,119.93986 100.10424,119.92938 100.0587,120.07639 99.978488,120.33531 100.46959,120.88825 100.90467,121.02889 101.05847,121.0786 101.12688,121.06992 101.21002,120.99008 101.26894,120.93351 101.35273,120.90089 101.3962,120.91761 101.85789,121.09516 102.33409,121.17125 102.70839,121.12729 102.84909,121.11076 102.94026,121.07315 102.94053,121.03149 102.94111,120.94126 103.11245,120.85294 103.5906,120.69639 104.05969,120.54282 104.86605,120.16095 104.99947,120.02922 105.1349,119.89551 105.8804,119.67552 106.46453,119.59691 107.72663,119.427 108.54908,119.47293 109.0635,119.74196 109.28393,119.85723 109.34785,120.01978 109.33282,120.42694 L 109.32286,120.69653 109.21928,120.53904 C 108.92835,120.09669 108.93149,120.0993 108.69239,120.09777 108.44753,120.09621 108.27491,120.21552 108.28885,120.37667 108.30092,120.51644 108.4847,120.5618 108.67412,120.47181 108.84858,120.38891 108.83457,120.38306 108.92674,120.57706 108.98056,120.6903 109.08243,120.77604 109.36544,120.94621 109.8166,121.21753 110.00504,121.39613 109.92426,121.47587 109.89257,121.50716 109.77325,121.50807 109.65913,121.47785 109.41656,121.41365 109.34709,121.45256 109.47424,121.58134 109.52393,121.63168 109.59037,121.73123 109.62186,121.80259 109.67122,121.91438 109.65918,121.94651 109.53489,122.03489 109.36214,122.15772 109.35864,122.28033 109.51785,122.63135 109.62297,122.86313 109.61511,123.01522 109.49659,123.04241 109.4112,123.06198 109.40819,123.24352 109.49185,123.32826 109.60916,123.44707 109.46314,123.47325 109.19326,123.38179 Z M 108.07575,119.93931 C 107.99688,119.85943 107.48164,119.90278 107.27141,120.007 107.06353,120.11005 107.03032,120.24546 107.20283,120.28666 107.51072,120.36023 108.21472,120.08008 108.07575,119.93931 Z M 106.91074,120.43146 C 106.91154,120.30701 106.73565,120.13536 106.61778,120.14554 106.54275,120.15204 106.52656,120.19921 106.54027,120.37133 106.54981,120.491 106.58977,120.61114 106.6291,120.63831 106.71733,120.69926 106.90994,120.55782 106.91074,120.43146 Z M 107.60943,122.00969 C 107.38727,121.7698 107.24338,121.57807 107.23795,121.51472 107.22445,121.35657 107.4321,121.24917 107.64758,121.30289 108.01143,121.39354 108.25634,121.79777 108.21934,122.24659 108.19814,122.50369 108.19716,122.50517 108.08503,122.4534 108.02289,122.42473 107.80889,122.22505 107.60943,122.00969 Z M 104.21065,119.87175 C 103.90168,119.97024 104.05544,120.11884 98.582948,114.43311 98.114818,113.94673 98.008548,113.89732 98.124068,114.21974 98.192108,114.40967 98.123798,114.57442 97.989838,114.54349 97.944678,114.53307 97.843538,114.46004 97.765118,114.38126 97.655608,114.27123 97.622868,114.18548 97.623978,114.01172 97.626098,113.68136 97.545338,113.45116 97.423058,113.43901 97.369418,113.43367 97.303348,113.45119 97.276278,113.47792 97.187698,113.56538 97.045438,113.43587 96.624408,112.88459 96.396278,112.58587 96.058358,112.14336 95.873473,111.90123 95.576928,111.51285 95.537504,111.43609 95.538986,111.2501 95.539913,111.13411 95.578301,110.99277 95.624313,110.93603 95.707915,110.83287 95.708149,110.833 96.019998,111.1556 96.191618,111.33315 96.517138,111.67977 96.743358,111.92587 97.109248,112.3239 97.160378,112.36551 97.206278,112.30251 97.266108,112.22037 97.332848,112.25628 97.803368,112.62355 98.797688,113.39972 101.42833,115.97932 102.64994,117.37605 103.19195,117.99576 104.13134,119.12794 104.4372,119.53012 104.58786,119.72824 104.56831,119.75773 104.21065,119.87175 Z M 101.76375,116.52532 C 101.61635,116.26615 101.2131,115.94566 101.1615,116.04665 101.11249,116.14255 101.34561,116.45223 101.56198,116.57863 101.78255,116.70751 101.85629,116.68801 101.76375,116.52532 Z M 101.31345,116.73336 C 101.0934,116.44669 100.75527,116.18282 100.71343,116.2651 100.67031,116.34989 100.97043,116.7477 101.19,116.8968 101.46837,117.08585 101.52575,117.00989 101.31345,116.73336 Z M 100.99539,114.58357 C 100.55473,114.23681 100.31597,113.92251 100.31745,113.69122 100.31839,113.54312 100.33921,113.50552 100.43603,113.47687 100.66989,113.40771 100.75543,113.0298 100.68272,112.38708 100.59482,111.60965 100.32025,110.8811 99.988648,110.54524 99.859788,110.41468 99.829868,110.35016 99.857258,110.26178 99.931908,110.02078 99.425418,109.6898 98.493428,109.37058 97.991248,109.19857 97.307458,109.06807 97.242808,109.13192 97.145508,109.22797 93.534737,109.98644 93.535207,109.91072 93.535657,109.84272 94.376386,109.23716 94.663364,109.09815 95.123105,108.87546 95.319991,108.82556 95.791335,108.81227 96.468718,108.79321 96.466498,108.66486 95.784733,108.43293 95.398625,108.30157 95.02367,108.27974 94.919533,108.38256 94.803724,108.4969 94.569907,108.53383 94.27741,108.48398 93.926871,108.42423 93.871566,108.44778 93.970117,108.61481 94.008173,108.6793 94.019853,108.75128 93.996056,108.77475 93.97226,108.79825 93.730377,108.81996 93.458537,108.823 93.186707,108.82603 92.934127,108.85831 92.897267,108.89468 92.860417,108.93106 92.827407,109.0367 92.823917,109.1294 92.816377,109.33012 92.769917,109.33609 92.421977,109.18091 92.053647,109.01661 91.956727,109.05455 91.981687,109.35329 91.999587,109.56741 91.992937,109.58456 91.919937,109.51242 91.808097,109.40187 91.512987,109.44494 91.362217,109.59379 91.051047,109.90099 90.927317,109.87008 90.647057,109.41515 90.480897,109.14544 90.387417,109.11168 90.425777,109.33525 90.440407,109.42041 90.456687,109.60232 90.461997,109.73951 L 90.471617,109.98893 90.326747,109.93371 C 90.246627,109.90316 90.110717,109.9112 90.022597,109.95171 89.653307,110.12145 89.596347,110.12065 89.168777,109.93957 88.902457,109.82681 88.659207,109.76515 88.503627,109.77095 88.264847,109.77988 88.232207,109.76455 87.795967,109.43837 87.724617,109.38504 87.559847,109.33588 87.429777,109.32916 87.228717,109.31878 87.177707,109.29382 87.089187,109.16264 87.005807,109.03907 86.950657,109.00704 86.812087,109.00183 86.584647,108.99328 86.489807,108.83325 86.532597,108.53015 86.571587,108.25381 86.526437,108.18868 86.402857,108.34295 86.327377,108.43716 86.293247,108.44322 86.207257,108.37765 86.004567,108.22303 85.907867,107.92328 85.794137,107.09688 85.663847,106.15034 85.643317,105.51697 85.739817,105.42168 85.806687,105.35569 86.118347,105.34509 86.313077,105.40221 86.418327,105.4331 86.416347,105.43505 86.234317,105.48066 86.071437,105.52147 86.050127,105.53907 86.067317,105.61861 86.078147,105.66875 86.115367,105.72314 86.149997,105.73948 86.184637,105.75582 86.305517,105.84098 86.418617,105.92875 86.611027,106.07805 86.625157,106.10595 86.638237,106.36226 86.657637,106.74285 86.755927,106.92375 87.228457,107.44855 87.787677,108.06962 88.206997,108.34416 88.649397,108.37892 88.821677,108.39244 89.051437,108.4521 89.159957,108.51149 89.415717,108.65144 89.873717,108.67565 90.810817,108.59872 92.012527,108.50008 92.038837,108.49529 92.132437,108.35768 92.204347,108.25203 92.227647,108.24739 92.303017,108.32372 92.420517,108.44274 92.592077,108.42843 92.604977,108.29854 92.617837,108.1692 92.802757,108.10215 93.407547,108.00756 93.669667,107.96654 94.342351,107.83892 94.902385,107.72396 95.462444,107.60899 95.966128,107.51992 96.021678,107.52606 96.077268,107.5322 96.209988,107.58207 96.316658,107.6369 96.446958,107.70385 96.577038,107.72017 96.713018,107.68662 97.004738,107.61466 97.336038,107.61543 97.371088,107.68817 97.388278,107.72378 97.337988,107.81328 97.254498,107.89572 97.124238,108.02431 97.117328,108.05295 97.193148,108.14995 97.260118,108.23562 97.375298,108.26062 97.726308,108.26559 98.091128,108.27075 98.321568,108.32351 98.970648,108.5505 100.07019,108.93501 100.50598,109.16005 100.7663,109.47777 101.30103,110.13044 101.82193,111.80683 101.80098,112.80765 101.79221,113.22631 101.70153,113.63644 101.59435,113.74226 101.53448,113.80137 101.44663,114.37327 101.4537,114.65796 101.4564,114.76718 101.43081,114.84326 101.39142,114.84301 101.35462,114.84276 101.17641,114.72602 100.99539,114.58357 Z M 96.973608,108.08901 C 96.888048,107.89514 96.753568,107.84358 96.533058,107.92012 96.192238,108.03838 96.246498,108.34575 96.619688,108.41098 96.877078,108.45596 97.061528,108.28816 96.973608,108.08901 Z M 98.719688,115.33528 C 98.670558,115.27255 98.650948,115.20821 98.676098,115.19234 98.732378,115.15679 98.926768,115.30491 98.977988,115.42242 99.012538,115.50164 99.007088,115.50636 98.912328,115.47909 98.855488,115.46273 98.768798,115.39801 98.719688,115.33528 Z M 99.524318,113.13255 C 98.942528,112.88987 98.177508,112.16396 97.329698,111.05009 97.125698,110.78206 96.800808,110.39337 96.607758,110.18634 96.414698,109.97931 96.267248,109.79923 96.280148,109.78612 96.293008,109.77306 96.610278,109.77121 96.985188,109.78204 97.718608,109.80322 98.095418,109.90415 98.582998,110.20998 99.012138,110.47916 99.332558,110.82855 99.562698,111.27823 99.895208,111.92796 100.02818,112.91343 99.812128,113.12673 99.744108,113.19389 99.674718,113.19529 99.524318,113.13255 Z M 92.721247,110.50784 C 92.676157,110.5276 92.609427,110.51353 92.572987,110.47661 92.497077,110.39972 92.533687,110.29273 92.688027,110.14035 92.830017,110.00018 92.911997,110.02751 92.910797,110.21461 92.909797,110.37209 92.861817,110.44631 92.721247,110.50784 Z M 92.571547,107.61893 C 92.475647,107.56984 92.055187,107.22513 91.637157,106.85287 91.189067,106.45383 90.821417,106.159 90.741367,106.13446 90.615047,106.09576 90.605527,106.10147 90.604867,106.21635 90.604267,106.32177 90.699107,106.43605 91.252157,106.99622 91.608547,107.3572 91.891317,107.66051 91.880527,107.67027 91.844277,107.70298 91.318677,107.5781 91.237757,107.51754 91.126647,107.43439 90.249097,106.3425 90.093097,106.09329 89.547887,105.22228 87.906587,103.3567 87.788277,103.47349 87.740607,103.52055 87.980217,103.86091 88.840947,104.96878 89.219967,105.45663 89.407857,105.81397 89.389437,106.012 89.370817,106.21185 89.621887,106.58369 90.111057,107.08086 90.471037,107.44669 90.847987,107.94467 90.847777,108.05408 90.847407,108.23621 89.912207,108.23185 89.172867,108.0463 88.626937,107.90928 88.476537,107.76865 88.317287,107.24628 88.174317,106.77728 88.145387,105.64446 88.273177,105.51829 88.320257,105.47181 88.425487,105.47278 88.571087,105.52104 88.694927,105.56209 88.810957,105.58112 88.828967,105.56334 88.950507,105.44334 88.341357,104.56878 87.821277,104.11661 87.632117,103.95215 87.348397,103.70611 87.190797,103.56986 86.942047,103.35481 86.900587,103.29779 86.876707,103.13773 86.831827,102.83683 86.279957,102.05566 85.452677,101.12202 85.186067,100.82116 85.045187,100.68935 85.018437,100.71574 84.996657,100.73726 84.997177,100.77344 85.019607,100.79615 85.105667,100.88334 85.188927,101.21541 85.137457,101.26622 84.992737,101.40909 84.275047,100.84643 84.224917,100.55081 84.211747,100.47308 84.222647,100.38809 84.249177,100.36189 84.319207,100.29275 84.223417,100.07189 84.006007,99.801305 83.754907,99.488773 83.669127,99.288753 83.760127,99.227993 83.909047,99.128559 84.197767,99.348073 85.205467,100.32697 85.742127,100.8483 86.193027,101.26317 86.207497,101.24889 86.221947,101.23462 86.159817,101.10466 86.069427,100.9601 85.948037,100.76599 85.907997,100.63574 85.916267,100.46189 85.922407,100.33242 85.893977,100.14265 85.853037,100.04018 85.785307,99.870588 85.893937,99.969746 87.064077,101.14543 88.738167,102.82748 89.672887,103.87458 89.793257,104.20277 89.875907,104.42814 89.959667,104.52184 91.217167,105.79552 92.560557,107.15622 92.899687,107.55631 92.796237,107.65844 92.768537,107.68577 92.667427,107.66801 92.571547,107.61893 Z M 87.105327,102.33782 C 87.050517,102.21256 86.734747,101.96576 86.670297,101.99779 86.570237,102.04755 86.700307,102.27399 86.892537,102.38468 87.067427,102.48537 87.160917,102.46479 87.105327,102.33782 Z M 87.147877,101.67499 C 86.943227,101.469 86.789757,101.41019 86.788937,101.53739 86.787827,101.71107 87.171287,102.00445 87.270877,101.90612 87.310157,101.86735 87.276817,101.80476 87.147877,101.67499 Z M 90.779387,104.88092 C 90.700577,104.78524 90.778017,104.85073 90.951497,105.02645 91.124977,105.20217 91.189467,105.28043 91.094807,105.2004 91.000157,105.12034 90.858217,104.97658 90.779387,104.88092 Z M 87.481807,107.08661 C 87.068647,106.45257 86.992597,106.23252 86.947087,105.53975 86.935027,105.3561 86.886707,105.16816 86.839197,105.12003 86.789627,105.06981 86.542717,105.00871 86.256797,104.97589 85.843487,104.92842 85.766817,104.90422 85.798567,104.83126 85.882447,104.63848 86.502767,103.62795 86.537097,103.62817 86.557307,103.6283 86.580417,103.74109 86.588497,103.87879 86.606717,104.19003 86.722767,104.31322 87.036087,104.35387 87.471707,104.41042 87.800907,104.64184 87.941387,104.99029 88.000917,105.13795 87.992607,105.20213 87.896257,105.33927 87.733587,105.57075 87.673367,105.77345 87.654147,106.15431 87.637417,106.4855 87.749387,107.16961 87.834407,107.25573 87.860167,107.28181 87.925047,107.4213 87.978607,107.56572 88.063117,107.7936 88.062197,107.8184 87.971717,107.75337 87.914377,107.71215 87.693937,107.41212 87.481807,107.08661 Z M 87.091227,104.62353 C 86.941537,104.47191 86.497347,104.52534 86.301687,104.71851 86.169617,104.84891 86.309837,104.90468 86.672237,104.86591 87.040607,104.82651 87.200367,104.73408 87.091227,104.62353 Z M 89.154737,102.05103 C 88.940797,102.11433 88.593607,101.89774 88.087917,101.38553 87.528477,100.81888 87.490717,100.71249 87.773567,100.49941 87.966407,100.35413 88.003407,100.20717 87.867487,100.12643 87.738067,100.04955 87.740787,99.937173 87.882007,99.53068 88.026417,99.114957 88.079577,98.260743 87.984337,97.886116 87.894867,97.534137 87.716237,97.36927 87.048497,97.022371 86.346687,96.657799 86.130287,96.612068 85.949847,96.790211 85.838457,96.900184 85.744207,96.925203 85.414737,96.932298 85.194787,96.937012 84.955977,96.978016 84.884067,97.023366 84.812137,97.068743 84.418397,97.274091 84.009077,97.479714 83.599747,97.685337 83.136147,97.945671 82.978827,98.058236 82.654047,98.290632 82.385757,98.429093 82.343387,98.386178 82.327577,98.370166 82.373407,98.277017 82.445247,98.17918 82.571117,98.007688 82.570957,98.000985 82.440917,97.993653 82.244047,97.982578 81.959817,98.094776 81.890927,98.210745 81.858057,98.266111 81.844597,98.378139 81.861047,98.459702 81.877487,98.541252 81.858727,98.639783 81.819367,98.67864 81.730987,98.765898 81.423927,98.733155 81.318317,98.625211 81.237887,98.543033 81.103907,98.080519 81.073967,97.781707 L 81.057037,97.612847 81.155857,97.700838 C 81.210197,97.749239 81.298337,97.829244 81.351677,97.878614 81.563607,98.074758 81.620567,98.025205 81.601427,97.661326 81.591437,97.471374 81.603297,97.358011 81.627787,97.409397 81.695927,97.552401 81.816127,97.49151 81.952097,97.245158 82.038767,97.088093 82.070157,97.05374 82.059937,97.127173 82.010977,97.478732 82.003287,97.835109 82.044647,97.835371 82.071247,97.835541 82.198157,97.692014 82.326697,97.516424 82.604917,97.136311 82.768067,97.0266 82.938987,97.104681 83.098117,97.177354 83.114487,97.103555 83.011087,96.779449 L 82.928287,96.519901 83.144977,96.633801 83.361677,96.747714 83.566167,96.523095 C 83.747177,96.324228 83.778707,96.306658 83.841197,96.369932 83.944947,96.475047 84.161477,96.4469 84.277757,96.313191 84.395387,96.177898 84.505887,96.14107 84.577267,96.213365 84.657397,96.294535 85.042557,96.241041 85.484647,96.087328 85.811987,95.973532 85.942497,95.898437 86.138337,95.711273 86.308077,95.549064 86.410327,95.483748 86.472097,95.49807 86.611527,95.530394 86.613727,95.554588 86.485777,95.64851 86.340037,95.755524 86.334577,95.987017 86.475317,96.093311 86.599517,96.187141 86.818257,96.067101 86.957577,95.828643 87.084647,95.611159 87.089197,95.449865 86.971647,95.330781 86.869557,95.22738 86.899717,95.169631 87.048087,95.184373 87.141547,95.193655 87.215647,95.259442 87.484617,95.571857 87.541607,95.638037 87.602357,95.672678 87.619647,95.648825 87.636917,95.624984 87.670847,95.574776 87.695047,95.537268 87.729937,95.483198 87.766567,95.503399 87.871867,95.634842 88.211177,96.05829 88.253777,96.074262 88.362557,95.81868 88.422247,95.678439 88.473257,95.769009 88.571747,96.190061 88.694697,96.715757 88.742157,96.799297 88.865807,96.707587 88.955387,96.641145 88.982847,96.653871 89.176117,96.851324 89.366657,97.045963 89.386637,97.090227 89.373167,97.287654 89.356737,97.528744 89.457657,97.773629 89.656377,97.974919 89.766407,98.086358 89.793057,98.091765 89.840327,98.012179 89.920837,97.876663 89.953197,98.025297 89.959757,98.560746 89.966257,99.093695 89.812517,99.834755 89.524957,100.65641 89.392637,101.03452 89.306667,101.40126 89.297097,101.62846 89.279507,102.047 89.291797,102.01048 89.154737,102.05103 Z M 88.803157,99.001672 C 88.734627,98.777275 88.413527,98.777497 88.295357,99.002038 88.221887,99.141573 88.310527,99.203734 88.555157,99.18424 88.804807,99.164353 88.844017,99.135485 88.803157,99.001672 Z M 86.952957,100.13711 C 86.705857,100.09881 86.162757,99.645968 85.451037,98.884786 84.791997,98.179939 84.674357,98.002661 84.735257,97.806058 84.782387,97.653929 84.990537,97.586545 85.593867,97.528128 86.527867,97.437649 87.042697,97.714637 87.294657,98.443167 87.448677,98.888518 87.355897,100.04107 87.158187,100.13855 87.132387,100.15127 87.040037,100.15062 86.952957,100.13711 Z M 85.594557,95.785322 C 85.528817,95.797982 85.297327,95.739866 85.259057,95.701101 85.199367,95.640655 85.260367,95.429835 85.368387,95.323187 85.590817,95.103582 85.791467,95.181624 85.813317,95.496224 85.822027,95.621384 85.715577,95.762018 85.594557,95.785322 Z M 78.692937,102.1874 C 78.536327,102.28704 78.385667,102.36842 78.358137,102.36826 78.229637,102.36744 78.344347,102.23569 78.757797,101.9093 79.004787,101.71434 79.361637,101.40201 79.550807,101.21524 79.842457,100.92731 79.907117,100.83616 79.976007,100.61584 80.044237,100.3977 80.084037,100.34105 80.224067,100.26278 80.531127,100.09119 80.502787,99.795374 80.180657,99.809382 80.067557,99.814279 79.948627,99.890239 79.668567,100.13643 79.272737,100.48442 79.186217,100.52595 79.080477,100.41883 78.971037,100.30798 78.705967,100.36921 78.340287,100.58981 78.154727,100.70175 77.937147,100.81131 77.856767,100.83325 77.721737,100.87015 77.727097,100.86127 77.927077,100.71655 78.311837,100.43814 78.458327,100.26407 78.465367,100.07694 78.473227,99.868336 78.544827,99.78947 78.717537,99.799171 78.812207,99.804512 78.875267,99.847716 78.946447,99.955974 79.039377,100.09734 79.048227,100.0992 79.109867,99.990497 79.304577,99.647068 79.345267,99.60643 79.388147,99.712633 79.410637,99.768339 79.458357,99.860114 79.494197,99.916606 79.572297,100.03968 79.612257,100.00732 79.792767,99.674771 79.946197,99.392101 80.132647,99.25529 80.267627,99.326327 80.416237,99.404539 80.526957,99.681303 80.520827,99.959338 80.515857,100.18508 80.493717,100.2324 80.316707,100.39518 80.174757,100.52576 80.109607,100.62685 80.088087,100.75002 80.071537,100.84474 80.024847,100.97282 79.984357,101.03462 79.861637,101.22198 78.996487,101.99421 78.692937,102.1874 Z M 80.861377,99.627286 C 80.787867,99.609428 80.931277,99.16722 81.032087,99.100909 81.165597,99.013088 81.095567,99.408938 80.941687,99.611981 80.929427,99.62815 80.893297,99.635036 80.861377,99.627286 Z M 83.176567,96.223851 C 83.051057,96.184955 83.006867,96.095065 83.079347,96.026123 83.158777,95.950595 83.440747,95.940265 83.457257,96.012298 83.483367,96.126093 83.302077,96.262721 83.176567,96.223851 Z M 80.323127,98.444437 C 79.912937,98.759012 79.816307,98.784109 79.687967,98.609305 79.560007,98.434985 79.481077,98.490154 79.351867,98.844201 79.243247,99.141848 79.020877,99.434729 78.993647,99.315997 78.986017,99.282731 79.021057,99.214718 79.071517,99.164903 79.233697,99.004775 79.050937,98.919153 78.650627,98.967737 78.450537,98.992023 78.296907,98.991827 78.309227,98.967331 78.356717,98.872977 78.950277,98.56741 79.390337,98.410778 79.828407,98.254826 80.771747,97.997123 80.799947,98.025703 80.821967,98.047998 80.697657,98.157173 80.323127,98.444437 Z"
           id="path4751" />
        <g
           id="g17261"
           transform="translate(-3.6847838,0.12774584)">
          <path
             style="fill:#3f3f3f;fill-opacity:1;stroke-width:0.295777"
             d="M 111.38576,95.920962 109.71429,94.393644 110.27827,93.697161 C 110.91324,92.91301 110.97789,92.939736 112.9833,94.81513 114.22716,95.978369 114.32139,96.324479 113.57484,96.988138 113.09779,97.412225 112.92628,97.328617 111.38576,95.920962 Z"
             id="path966" />
          <g
             id="g17254"
             transform="matrix(-1,0,0,1,190.86174,-0.29866124)">
            <path
               style="fill:#3f3f3f;fill-opacity:1;stroke-width:0.295777"
               d="M 77.388411,107.34162 C 75.083937,104.91888 73.827685,103.39088 73.922819,103.12636 73.97327,102.98605 75.145903,101.64874 76.528667,100.15458 79.864282,96.550207 86.697058,90.89183 87.399703,91.152015 88.151894,91.43054 92.206541,96.025107 92.195642,96.586581 92.172602,97.773832 80.378896,108.74656 79.125864,108.74656 78.905257,108.74656 78.123409,108.11435 77.388411,107.34162 Z"
               id="path962" />
            <path
               style="fill:#3f3f3f;fill-opacity:1;stroke-width:0.295777"
               d="M 89.19836,110.12393 C 88.352244,109.12237 87.052103,107.66251 86.309157,106.87981 L 84.958342,105.45673 86.67698,103.83789 88.395629,102.21906 91.203393,105.17202 C 92.747672,106.79614 93.992578,108.23155 93.969851,108.36183 93.947135,108.4921 93.210394,109.35159 92.332641,110.27182 L 90.736737,111.94495 Z"
               id="path960" />
            <path
               style="fill:#3f3f3f;fill-opacity:1;stroke-width:0.295777"
               d="M 103.4139,125.67985 C 101.75736,123.60571 99.564686,121.04354 98.541293,119.98613 L 96.68057,118.06357 98.31807,116.31658 99.955582,114.56958 100.70183,115.57714 C 101.11226,116.13128 103.57274,118.66779 106.16956,121.21379 110.80848,125.76195 110.88309,125.85506 110.43541,126.5378 109.8039,127.50089 107.42075,129.45102 106.87529,129.45102 106.62807,129.45102 105.07044,127.754 103.4139,125.67985 Z"
               id="path958" />
          </g>
        </g>
        <path
           style="fill:#000000;stroke-width:0.264583"
           d="M 81.196318,133.84905 C 81.148438,132.74259 81.168798,131.75077 81.241558,131.64501 81.314318,131.53925 82.445408,130.7522 83.755098,129.89602 85.064788,129.03984 86.880488,127.61552 87.789998,126.73087 89.194348,125.3649 89.443638,124.98343 89.443638,124.20048 89.443638,123.69342 89.247048,122.99786 89.006758,122.65481 88.519408,121.95902 85.745558,120.59848 83.027498,119.72204 81.309348,119.16803 81.241558,119.11367 81.241558,118.29023 81.241558,117.43941 81.226948,117.42997 78.794158,116.70805 70.782448,114.33061 65.466138,111.69734 65.979128,110.3605 66.177198,109.84435 67.195908,109.73301 74.626188,109.41545 79.669858,109.19989 80.898698,109.07373 81.137648,108.74694 81.396398,108.39308 83.623898,108.34414 99.471128,108.34414 H 117.51008 L 117.43363,110.6352 117.35719,112.92626 113.9176,114.29207 C 112.02583,115.04327 109.94224,115.9306 109.28739,116.26393 106.4876,117.68906 102.00157,121.58751 101.34927,123.16231 100.78164,124.53269 101.42144,125.3874 105.67052,128.93508 109.80081,132.38357 110.03502,132.72637 109.6833,134.80822 L 109.50546,135.86081 H 107.71765 C 106.26429,135.86081 105.84,135.76155 105.44969,135.33026 104.46561,134.24286 101.92626,133.80633 95.465508,133.61389 89.714758,133.4426 89.369788,133.46051 87.660298,134.01897 86.676608,134.34033 85.567598,134.88621 85.195828,135.23203 84.637078,135.75179 84.239338,135.86081 82.901628,135.86081 H 81.283368 Z"
           id="path854" />
        <path
           style="fill:#3f3f3f;fill-opacity:1;stroke-width:0.0938781"
           d="M 71.58968,141.93739 C 70.49171,141.61156 69.75873,141.22922 69.95867,141.08661 70.0578,141.01591 70.04927,141.007 69.92175,141.04809 69.68152,141.12552 69.16755,140.79649 69.30851,140.65552 69.39016,140.57388 69.36715,140.5569 69.21468,140.58626 69.06639,140.61482 68.87471,140.48611 68.49401,140.10235 68.20875,139.81481 67.97536,139.54802 67.97536,139.50948 67.97536,139.47094 68.03873,139.38682 68.11618,139.32254 68.19362,139.25827 68.25635,139.15804 68.25556,139.09982 68.25476,139.04125 68.21627,139.05377 68.1694,139.12783 68.07317,139.27988 67.69372,139.36609 67.69372,139.23589 67.69372,139.18889 67.74653,139.12701 67.81107,139.0984 67.87561,139.06978 67.84977,139.0557 67.75364,139.06711 67.52944,139.09371 66.72317,137.60534 66.78414,137.27744 66.80608,137.15948 66.79991,137.08707 66.77044,137.11654 66.6591,137.22788 66.46348,136.33129 66.40954,135.46245 66.35234,134.54101 66.45688,133.6694 66.7235,132.84493 66.90309,132.28958 67.51805,131.06125 67.6165,131.06125 67.7131,131.06125 67.7185,131.22234 67.62332,131.26465 67.45339,131.34017 67.02047,132.48591 66.79564,133.45514 66.64,134.12605 66.62701,134.44087 66.75494,134.44087 66.80657,134.44087 66.85371,134.53592 66.85971,134.65209 66.8679,134.81104 66.88122,134.82266 66.91353,134.69903 66.97478,134.46465 67.12789,134.49579 67.14435,134.74597 67.152,134.86215 67.16351,135.04169 67.16994,135.14496 67.17638,135.24822 67.15049,135.40108 67.11241,135.48466 66.99853,135.7346 67.14259,135.76506 67.3274,135.53011 67.89869,134.80382 71.89397,134.29343 75.25928,134.51682 76.18408,134.57821 77.34207,134.71241 77.83258,134.81505 78.8565,135.0293 78.87465,135.03124 78.65402,134.90274 78.56127,134.84872 78.48974,134.69585 78.48974,134.55166 78.48974,134.0047 77.8332,132.08728 77.55175,131.81227 77.52533,131.78646 77.4459,131.65302 77.37524,131.51575 77.30459,131.37848 77.12511,131.13296 76.97641,130.97015 76.82771,130.80735 76.70604,130.65274 76.70604,130.62657 76.70604,130.6004 76.51083,130.38121 76.27224,130.1395 75.80129,129.66239 75.20399,128.79978 75.20399,128.59676 75.20399,128.52715 75.16393,128.43007 75.11495,128.38102 75.06599,128.33197 74.95421,128.03836 74.86658,127.72857 74.73808,127.27432 74.70026,126.63834 74.6712,124.44282 74.65138,122.94546 74.62586,121.17698 74.61447,120.51285 L 74.59378,119.30536 73.34989,119.32052 72.10601,119.33569 72.09519,118.74433 C 72.08925,118.41908 72.09269,118.07443 72.10284,117.97842 72.11385,117.87423 72.08037,117.82916 72.01976,117.86662 71.96393,117.90112 71.91043,118.23314 71.90088,118.60443 71.88572,119.19391 71.87914,119.21701 71.84904,118.78665 71.83007,118.51558 71.77452,118.29379 71.72558,118.29379 71.67665,118.29379 71.63661,118.24905 71.63661,118.19437 71.63661,118.13969 71.67886,118.12106 71.73049,118.15297 71.78213,118.18488 71.82437,118.12894 71.82437,118.02864 71.82437,117.8702 71.60279,117.73674 71.33151,117.7318 71.29278,117.7311 71.2611,118.02228 71.2611,118.37888 71.2611,118.98385 71.24837,119.02391 71.07085,118.97749 70.96622,118.95013 70.75499,118.8104 70.60146,118.66698 70.33024,118.41362 70.32231,118.38122 70.32231,117.52599 70.32231,116.88029 70.36135,116.59002 70.46883,116.43658 70.60421,116.2433 70.58891,116.10851 70.26744,114.66268 L 69.91954,113.09795 70.12247,112.93363 C 70.38508,112.72098 71.368,112.50581 72.43458,112.42749 73.86719,112.32229 76.03808,112.63728 76.33346,112.9932 76.42217,113.10008 76.38408,113.45111 76.15373,114.65019 L 75.86145,116.17158 76.09599,116.41639 C 76.31314,116.64304 76.33053,116.72863 76.33053,117.57078 V 118.48037 L 75.93155,118.76942 75.53257,119.05848 75.56224,121.46901 C 75.6044,124.89326 75.7217,126.05727 76.13626,127.1653 76.29095,127.57873 76.55181,128.05714 76.62256,128.05714 76.65644,128.05714 76.70525,128.13783 76.73104,128.23645 76.75683,128.33508 77.04644,128.62023 77.37462,128.87013 79.22164,130.27661 80.10604,131.54984 80.5594,133.45514 80.72619,134.15612 80.75154,134.47596 80.70815,135.33271 80.6794,135.90068 80.59684,136.5793 80.52469,136.84076 79.63112,140.07907 76.80227,142.25135 73.51418,142.22414 72.7109,142.21749 72.3547,142.16442 71.58968,141.93739 Z M 73.41181,141.48898 C 73.49911,141.43371 73.32345,141.39292 72.89548,141.36908 72.53872,141.34921 72.20458,141.37263 72.15295,141.42112 72.09036,141.4799 72.09036,141.49242 72.15295,141.45869 72.20458,141.43085 72.41581,141.44093 72.62234,141.48106 73.14855,141.58332 73.26101,141.58444 73.41181,141.48898 Z M 74.00883,141.42016 C 73.94527,141.39445 73.81853,141.39288 73.72719,141.41669 73.63585,141.44049 73.68786,141.46153 73.84275,141.46344 73.99766,141.46535 74.07239,141.44588 74.00883,141.42016 Z M 71.81019,141.30474 C 71.8983,141.2489 71.82692,141.20395 71.57549,141.15696 71.37676,141.11981 71.15956,141.0443 71.09283,140.98916 71.006,140.91739 70.9395,140.92089 70.85892,141.00146 70.6955,141.16489 70.94389,141.29421 71.30362,141.23299 71.52368,141.19553 71.55719,141.20744 71.44886,141.28465 71.32999,141.36934 71.33732,141.38499 71.4958,141.38499 71.59906,141.38499 71.74054,141.34888 71.81019,141.30474 Z M 70.73103,140.82034 C 70.68679,140.77616 70.64428,140.85213 70.63612,140.98992 70.62342,141.20463 70.63463,141.21583 70.71626,141.06996 70.76868,140.9763 70.77528,140.86454 70.73103,140.82034 Z M 69.66517,140.73071 C 69.59071,140.6847 69.50866,140.66817 69.48285,140.69399 69.45703,140.7198 69.49683,140.77858 69.57129,140.82459 69.64575,140.87061 69.72779,140.88714 69.75361,140.86133 69.77943,140.83551 69.73963,140.77674 69.66517,140.73071 Z M 70.49052,140.68398 C 70.47545,140.67118 70.31528,140.58993 70.13456,140.50342 69.92209,140.4017 69.86352,140.39247 69.96881,140.47729 70.05837,140.54943 70.10942,140.63069 70.08225,140.65786 70.05508,140.68502 70.14199,140.70724 70.27538,140.70724 70.40876,140.70724 70.50557,140.69678 70.49052,140.68398 Z M 69.1036,139.67458 C 68.73104,139.30025 68.32076,138.81442 68.19187,138.59498 68.06297,138.37554 67.9364,138.196 67.91058,138.196 67.8587,138.196 68.31186,139.00572 68.48851,139.22866 68.54988,139.30611 68.58886,139.48477 68.57513,139.62567 68.56141,139.76658 68.59636,139.91041 68.65279,139.94529 68.71031,139.98084 68.72885,139.96575 68.69498,139.91096 68.66176,139.85719 68.70538,139.75561 68.79194,139.68522 68.92888,139.57384 68.94154,139.57793 68.88956,139.71674 68.851,139.8197 68.8698,139.86091 68.94257,139.83298 69.00458,139.80919 69.18197,139.9124 69.33677,140.06233 69.49157,140.21227 69.65484,140.33951 69.6996,140.34507 69.74435,140.35065 69.47615,140.04892 69.1036,139.67458 Z M 68.63251,139.5103 C 68.63251,139.45866 68.67475,139.41642 68.72638,139.41642 68.77802,139.41642 68.82026,139.45866 68.82026,139.5103 68.82026,139.56193 68.77802,139.60418 68.72638,139.60418 68.67475,139.60418 68.63251,139.56193 68.63251,139.5103 Z M 67.82342,138.14419 C 67.85548,138.06064 67.83974,138.02296 67.78652,138.05584 67.73548,138.08739 67.69372,138.15295 67.69372,138.20154 67.69372,138.33658 67.76101,138.30682 67.82342,138.14419 Z M 67.72788,137.77409 C 67.69827,137.69694 67.63172,137.65997 67.57999,137.69194 67.52215,137.72769 67.53498,137.78116 67.61329,137.83078 67.78422,137.93909 67.79009,137.9362 67.72788,137.77409 Z M 67.4371,136.97051 C 67.26136,136.39908 67.2436,136.36175 67.1784,136.42695 67.15314,136.45221 67.19221,136.6388 67.26523,136.84158 67.33825,137.04436 67.42327,137.29025 67.45418,137.388 67.4851,137.48575 67.52927,137.54684 67.55236,137.52375 67.57545,137.50066 67.52359,137.2517 67.4371,136.97051 Z M 67.22433,136.13068 C 67.22433,136.02741 67.18604,135.94292 67.13924,135.94292 67.09244,135.94292 67.07624,136.02741 67.10325,136.13068 67.13026,136.23394 67.16854,136.31843 67.18834,136.31843 67.20814,136.31843 67.22433,136.23394 67.22433,136.13068 Z M 66.53548,135.63782 C 66.50944,135.57328 66.48813,135.62608 66.48813,135.75516 66.48813,135.88424 66.50944,135.93705 66.53548,135.87251 66.56152,135.80797 66.56152,135.70236 66.53548,135.63782 Z M 79.60934,135.24719 C 79.69351,135.14576 79.69281,135.09838 79.60633,135.04493 79.53472,135.00068 79.5179,135.0148 79.56037,135.08351 79.59721,135.14312 79.58262,135.19189 79.52794,135.19189 79.47326,135.19189 79.42852,135.23414 79.42852,135.28577 79.42852,135.41443 79.47958,135.40354 79.60934,135.24719 Z M 71.77743,117.63664 C 71.51935,117.52574 71.37113,117.52574 71.54274,117.63664 71.62018,117.6867 71.74692,117.72532 71.82437,117.72248 71.91722,117.71908 71.90123,117.68984 71.77743,117.63664 Z M 67.4195,131.94527 C 67.424,131.8359 67.44625,131.81366 67.47622,131.88855 67.50334,131.95631 67.5,132.03729 67.46881,132.06848 67.43761,132.09968 67.41542,132.04423 67.4195,131.94527 Z M 67.78143,130.80834 C 67.91192,130.54231 68.99435,129.46531 69.13126,129.46531 69.18882,129.46531 69.06312,129.62374 68.85195,129.81736 68.64077,130.01098 68.29078,130.3595 68.0742,130.59186 67.85762,130.8242 67.72587,130.92162 67.78143,130.80834 Z M 69.66517,129.03519 C 69.66517,129.00516 69.80776,128.80449 69.98205,128.58927 70.15634,128.37404 70.37068,128.05674 70.45836,127.88413 70.54605,127.71152 70.63892,127.59142 70.66473,127.61724 70.69055,127.64305 70.65099,127.78428 70.57682,127.93107 70.50264,128.07786 70.4605,128.26132 70.48316,128.33877 70.512,128.43733 70.50033,128.44584 70.44429,128.36713 70.3876,128.28751 70.31013,128.33539 70.17898,128.53115 70.0771,128.68321 69.96206,128.80775 69.92333,128.8079 69.88461,128.80805 69.85292,128.87153 69.85292,128.94898 69.85292,129.02643 69.81068,129.0898 69.75905,129.0898 69.70741,129.0898 69.66517,129.06522 69.66517,129.03519 Z M 70.82192,127.54842 C 70.73603,127.45053 70.76069,127.26233 70.93223,126.70635 71.26478,125.6285 71.35296,124.61358 71.3695,121.67341 71.38404,119.08957 71.38714,119.04775 71.45977,120.45299 71.58804,122.9344 71.26751,127.21224 70.95333,127.21224 70.90488,127.21224 70.89174,127.31785 70.92414,127.44693 70.9909,127.71294 70.97773,127.72601 70.82192,127.54842 Z M 71.64402,122.93294 C 71.64853,122.82358 71.67077,122.80134 71.70074,122.87623 71.72786,122.94399 71.72452,123.02497 71.69333,123.05616 71.66213,123.08736 71.63995,123.03191 71.64402,122.93294 Z"
           id="path938" />
        <g
           id="g17249"
           transform="matrix(0.26799151,0,0,0.26799151,44.386612,104.99414)">
          <path
             style="fill:#3f3f3f;fill-opacity:1;stroke-width:0.264583"
             d="M 104.26605,23.489599 C 102.99729,23.346719 101.94034,22.158889 101.94034,20.875889 101.94034,20.377739 101.82128,19.970149 101.67575,19.970149 101.53023,19.970149 101.44094,19.821329 101.47732,19.639429 101.5137,19.457519 101.40571,19.334769 101.23735,19.366639 100.91691,19.427289 100.90965,18.795989 101.22712,18.478509 101.32835,18.377279 101.41117,18.029139 101.41117,17.704869 101.41117,17.380599 101.71347,16.834889 102.08294,16.492199 102.45242,16.149499 102.94183,15.452389 103.17053,14.943069 103.71806,13.723719 104.06605,12.260419 103.76414,12.447009 103.63417,12.527329 103.52784,12.335159 103.52784,12.019959 103.52784,11.670189 103.39896,11.496329 103.19711,11.573789 103.00073,11.649139 102.85479,11.472549 102.83786,11.139069 102.80355,10.463629 102.62057,9.6845189 102.34865,9.0560889 102.23846,8.8014289 102.21921,8.4082929 102.30588,8.1824529 102.40882,7.9141789 102.35719,7.8375049 102.15693,7.9612739 101.95223,8.0877879 101.90653,8.0044679 102.01936,7.7104309 102.11229,7.4682789 102.06596,7.2701539 101.91642,7.2701539 101.76688,7.2701539 101.70926,7.1654019 101.78839,7.0373759 101.86751,6.9093469 101.62652,6.2295869 101.25284,5.5267929 100.53109,4.1693589 100.53458,3.0655169 101.26317,2.2604319 101.46935,2.0326019 101.65052,1.7271329 101.66577,1.5816119 101.68103,1.4360909 102.07646,0.8409139 102.54452,0.2589969 103.41174,-0.8191671 103.69173,-1.7224331 103.16098,-1.7297301 102.97168,-1.7323341 102.96095,-1.8032581 103.13096,-1.9281681 103.54655,-2.2334971 103.94896,-3.1298921 103.93089,-3.7100551 103.9086,-4.4253691 102.96147,-5.9672551 102.65914,-5.7804031 102.52581,-5.6979961 102.54765,-5.8752381 102.70769,-6.1742731 102.86773,-6.4733101 102.99867,-7.1425211 102.99867,-7.6614111 102.99867,-8.4147861 102.89651,-8.6048461 102.49155,-8.6048461 102.21264,-8.6048461 101.92438,-8.4560181 101.85098,-8.2741171 101.77356,-8.0822471 101.70876,-8.1443441 101.69664,-8.4220251 101.68516,-8.6852741 101.56917,-8.8347851 101.43889,-8.7542721 101.30862,-8.6737601 101.13377,-8.7857951 101.05032,-9.0032401 100.96688,-9.2206851 100.70926,-9.3985961 100.47782,-9.3985961 100.24638,-9.3985961 100.13061,-9.5176591 100.22055,-9.6631801 100.31048,-9.8087011 100.25083,-9.9277631 100.08798,-9.9277631 99.90759,-9.9277631 99.84078,-10.23791 99.916996,-10.721513 99.985798,-11.158075 99.933416,-11.515263 99.80059,-11.515263 99.667764,-11.515263 99.559089,-11.408938 99.559089,-11.278987 99.559089,-10.861472 98.778361,-10.726924 98.113495,-11.029858 97.75843,-11.191635 97.280923,-11.694455 97.052365,-12.147236 96.82381,-12.600015 96.384025,-13.289966 96.075066,-13.68046 95.523333,-14.377798 95.52183,-14.408434 95.990772,-15.400251 96.571215,-16.627894 97.942881,-17.931134 99.617472,-18.846028 100.30443,-19.22134 100.81661,-19.6091 100.75566,-19.707718 100.69471,-19.806339 100.89934,-20.295331 101.21039,-20.794372 101.81908,-21.770958 102.00627,-22.36318 101.70624,-22.36318 101.60324,-22.36318 101.53094,-23.081349 101.54556,-23.959112 101.5652,-25.137474 101.4854,-25.521749 101.24056,-25.427793 101.02493,-25.34505 100.96623,-25.449819 101.07274,-25.727349 101.18338,-26.0157 101.13397,-26.090778 100.92041,-25.958793 100.74656,-25.851343 100.62136,-25.861577 100.6422,-25.981534 100.76489,-26.687807 100.53962,-27.347287 99.963401,-27.968711 99.520565,-28.446289 99.413772,-28.716333 99.632672,-28.805014 99.812467,-28.877854 99.744813,-28.945259 99.480251,-28.956874 98.847785,-28.984645 97.859112,-30.130029 97.064195,-31.755888 95.470726,-35.015041 95.428321,-35.457388 96.544254,-37.179846 96.874229,-37.689169 97.219193,-38.641669 97.310837,-39.296513 97.402483,-39.951357 97.723687,-41.261044 98.024627,-42.20693 98.974399,-45.192181 98.963284,-44.979321 98.170616,-45.002419 97.049275,-45.035098 96.384647,-45.40053 96.365229,-45.995072 96.318504,-47.425746 96.068179,-48.689713 95.79856,-48.856345 95.595419,-48.981893 95.634532,-49.168085 95.925079,-49.458632 96.181682,-49.715238 96.306817,-50.185924 96.246063,-50.665992 96.191295,-51.098731 96.259478,-51.522626 96.39758,-51.607975 96.535682,-51.693327 96.648672,-51.882221 96.648672,-52.027742 96.648672,-52.173263 96.52961,-52.218742 96.384089,-52.128805 96.238568,-52.038867 96.119505,-52.158927 96.119505,-52.395603 96.119505,-52.705517 95.971442,-52.778928 95.590339,-52.657971 95.022106,-52.477621 94.840816,-52.921832 95.391901,-53.144201 95.573802,-53.217599 95.45474,-53.287053 95.127318,-53.298541 94.413588,-53.323584 92.296192,-55.334539 92.762602,-55.54438 92.935412,-55.622128 92.690392,-55.640042 92.218132,-55.584192 91.745862,-55.528343 91.280982,-55.609631 91.185062,-55.764836 91.074792,-55.943252 91.138022,-55.968308 91.357002,-55.832971 91.581322,-55.694338 91.639352,-55.722473 91.521702,-55.912828 91.421802,-56.074478 91.185812,-56.147545 90.997282,-56.0752 90.808752,-56.002855 90.329522,-56.067228 89.932302,-56.218247 89.535092,-56.369269 89.272832,-56.391327 89.349502,-56.267266 89.531562,-55.972685 88.148152,-56.223031 87.718982,-56.562332 87.489312,-56.743911 87.388252,-56.716891 87.388252,-56.473909 87.388252,-56.201769 87.317702,-56.194569 87.070752,-56.441513 86.696762,-56.815507 86.230692,-56.869043 86.450912,-56.512712 86.534642,-56.377246 86.482132,-56.191625 86.334242,-56.100222 86.186342,-56.008819 86.065342,-56.037672 86.065342,-56.164341 86.065342,-56.29101 85.822572,-56.655225 85.525862,-56.973707 85.229152,-57.292188 85.054752,-57.552763 85.138302,-57.552763 85.221852,-57.552763 85.143172,-57.820654 84.963462,-58.148076 84.776382,-58.488936 84.630332,-59.762195 84.621762,-61.126977 84.607192,-63.44791 84.583682,-63.535968 83.727302,-64.477068 82.755722,-65.544754 81.717102,-65.943859 81.145242,-65.469258 80.940882,-65.299655 80.773522,-65.264761 80.773332,-65.391722 80.773152,-65.518679 80.326662,-65.644737 79.781152,-65.671849 78.077342,-65.756526 77.477552,-65.876597 77.132542,-66.202077 76.948932,-66.375294 76.561982,-66.471425 76.272642,-66.415707 75.983312,-66.359985 75.746592,-66.412735 75.746592,-66.53293 75.746592,-66.702055 75.027402,-67.009559 74.489822,-67.070291 74.341872,-67.087005 73.214942,-68.288237 72.968462,-68.691957 71.562082,-70.995509 71.477492,-71.307771 71.516812,-74.050568 71.570812,-77.816843 74.250752,-82.182283 77.528552,-83.843271 78.266012,-84.216971 79.093592,-84.794561 79.367622,-85.126806 79.641652,-85.459051 80.176592,-85.909482 80.556382,-86.127763 80.936172,-86.346044 81.916652,-86.971123 82.735222,-87.516826 83.553792,-88.062529 84.345022,-88.509013 84.493522,-88.509013 84.642012,-88.509013 85.257542,-88.761054 85.861372,-89.069103 86.760292,-89.527699 87.201882,-89.594299 88.298222,-89.436633 89.034672,-89.330724 90.201892,-89.263233 90.892052,-89.286653 92.891932,-89.354518 95.357651,-88.085637 95.879975,-86.719824 96.482416,-85.144507 99.17725,-85.375417 99.982004,-87.071311 100.22406,-87.581412 100.4812,-87.939679 100.55342,-87.867459 100.62564,-87.795239 101.23513,-88.118249 101.90784,-88.585259 103.61903,-89.773191 104.36369,-90.136973 104.76721,-89.982126 104.95868,-89.908652 105.11534,-89.950837 105.11534,-90.07587 105.11534,-90.360246 106.93334,-90.591359 107.02939,-90.319195 107.15659,-89.95879 109.12218,-90.569227 109.75808,-91.166619 110.22235,-91.602781 110.8726,-91.80367 112.31219,-91.95569 113.37439,-92.067857 114.83878,-92.284392 115.56638,-92.43688 116.29398,-92.589367 117.8418,-92.773293 119.00596,-92.845604 120.17013,-92.917914 121.57416,-93.053719 122.12603,-93.147391 122.67789,-93.241063 123.27321,-93.201997 123.44894,-93.060577 123.62468,-92.919158 124.18518,-92.71617 124.6945,-92.609493 125.20383,-92.502816 125.73961,-92.343587 125.88513,-92.255651 126.03065,-92.167716 126.32504,-92.0693 126.53934,-92.03695 126.75364,-92.004599 127.05169,-91.810291 127.20169,-91.605154 127.35169,-91.400017 127.95027,-90.979355 128.53186,-90.670349 129.79255,-90.000531 130.77992,-89.187647 130.77992,-88.819564 130.77992,-88.673217 131.24084,-88.188423 131.80419,-87.742244 132.36754,-87.296065 132.98246,-86.541919 133.17068,-86.066365 133.35891,-85.590811 133.69085,-84.992801 133.90834,-84.737454 134.89851,-83.574934 135.0067,-79.593388 134.10723,-77.4181 133.77137,-76.605861 133.42545,-75.64018 133.3385,-75.272136 133.19347,-74.658192 131.57367,-72.562994 131.57367,-72.989333 131.57367,-73.091658 131.25861,-72.968938 130.87353,-72.716624 130.48844,-72.464309 129.93951,-72.222181 129.65366,-72.178557 129.36782,-72.134935 128.81566,-71.872603 128.42665,-71.5956 128.03763,-71.318597 127.26738,-71.007167 126.71497,-70.903535 125.46497,-70.669035 125.28636,-70.241772 125.96062,-69.098989 126.90901,-67.491585 127.1748,-65.371502 126.61206,-63.902763 126.39016,-63.323606 126.39156,-63.328816 126.16623,-62.250855 125.86272,-60.798954 126.1409,-60.055356 127.13854,-59.651798 127.61333,-59.459737 128.06133,-59.230102 128.13409,-59.141499 128.44827,-58.758906 130.39692,-58.022597 132.04199,-57.664875 133.02134,-57.451912 134.12029,-57.211305 134.48409,-57.130192 134.84789,-57.049076 135.33246,-56.843082 135.56092,-56.672423 136.17131,-56.216461 137.92367,-53.526249 137.92367,-53.045149 137.92367,-52.81765 138.04997,-52.505217 138.20433,-52.350854 139.20585,-51.349337 137.4039,-45.525186 135.44853,-43.443714 134.28624,-42.206464 132.62237,-41.589085 130.25075,-41.515084 129.15935,-41.481027 127.99849,-41.444168 127.67107,-41.433172 127.32718,-41.421623 127.07575,-41.245566 127.07575,-41.016305 127.07575,-40.798023 126.95862,-40.61943 126.81545,-40.61943 126.53957,-40.61943 127.33319,-38.697028 127.67107,-38.546861 127.78021,-38.498352 127.8695,-38.197423 127.8695,-37.878127 127.8695,-37.55883 128.06868,-37.013225 128.31212,-36.665666 128.55556,-36.318109 128.62012,-36.116944 128.45558,-36.218631 128.27104,-36.332688 128.29519,-36.13606 128.51863,-35.70539 128.91588,-34.939683 128.61203,-33.50014 128.04206,-33.447554 126.92793,-33.344766 126.6574,-33.37263 126.48449,-33.607971 126.36485,-33.770817 126.28855,-33.742769 126.28606,-33.535031 126.28296,-33.277046 126.09561,-33.293898 125.49103,-33.606537 125.05599,-33.831505 124.61415,-34.004346 124.50917,-33.990628 124.40419,-33.976912 124.23271,-34.182858 124.12812,-34.448288 123.96653,-34.858358 123.93515,-34.865023 123.91935,-34.492637 123.90641,-34.187748 123.73973,-34.096495 123.37159,-34.192767 122.9979,-34.290488 122.84242,-34.200884 122.84242,-33.887797 122.84242,-33.632795 122.96604,-33.520849 123.1334,-33.624286 123.34321,-33.753953 123.3458,-33.657295 123.14271,-33.277814 122.98779,-32.988344 122.92516,-32.687385 123.00353,-32.609013 123.0819,-32.530644 122.95559,-32.098269 122.72285,-31.648184 122.4901,-31.198099 122.37139,-30.829846 122.45905,-30.829846 122.54672,-30.829846 122.25455,-30.523657 121.80981,-30.149425 121.36506,-29.775193 120.8879,-29.53901 120.74945,-29.624574 120.61101,-29.710138 120.42295,-29.659139 120.33155,-29.511245 120.24014,-29.363351 119.947,-29.242346 119.68011,-29.242346 119.41323,-29.242346 119.12634,-29.063753 119.04257,-28.845471 118.95881,-28.62719 118.61865,-28.446773 118.28666,-28.444546 117.79989,-28.441278 117.75987,-28.390843 118.07992,-28.184013 118.31839,-28.029904 118.35102,-27.925915 118.16168,-27.92348 117.98837,-27.921253 117.76184,-28.056529 117.65827,-28.224095 117.5268,-28.436817 117.36771,-28.388898 117.1311,-28.065308 116.9338,-27.795488 116.65723,-27.685279 116.46915,-27.801523 116.25848,-27.93172 116.21425,-27.890876 116.34203,-27.684136 116.4498,-27.509757 116.40556,-27.207529 116.24371,-27.012517 115.84501,-26.532113 115.80151,-24.743329 116.1828,-24.507681 116.35168,-24.403308 116.49388,-24.026925 116.49881,-23.671274 116.50742,-23.050141 116.30935,-21.049642 116.21212,-20.77568 116.1863,-20.702919 116.17927,-20.554091 116.19651,-20.444951 116.21374,-20.33581 116.10878,-20.246513 115.96325,-20.246513 115.81773,-20.246513 115.69867,-20.060892 115.69867,-19.834022 115.69867,-19.607153 115.59945,-19.482854 115.47819,-19.5578 115.24933,-19.699238 115.23395,-19.635706 115.14271,-18.171976 115.11241,-17.685823 114.92813,-17.226863 114.7332,-17.152063 114.53828,-17.077265 114.44529,-16.908471 114.52656,-16.776968 114.60784,-16.645465 114.39879,-16.427361 114.06202,-16.292297 113.72525,-16.157229 113.56878,-16.037352 113.7143,-16.025898 113.85982,-16.014447 113.80029,-15.890106 113.582,-15.749586 113.23269,-15.524711 113.24,-15.39688 113.64297,-14.682892 113.905,-14.218625 113.96158,-13.957581 113.77526,-14.072522 113.59621,-14.182983 113.83667,-13.78448 114.30961,-13.186964 114.78255,-12.589448 115.1695,-11.961851 115.1695,-11.792303 115.1695,-11.622755 115.27508,-11.54928 115.40411,-11.629026 115.53314,-11.708774 115.80103,-11.574445 115.99942,-11.33052 116.31884,-10.937786 116.29956,-10.90897 115.83096,-11.078788 115.44111,-11.220067 115.49979,-11.097568 116.05387,-10.613492 116.50818,-10.21658 116.7277,-9.8298121 116.60831,-9.6366311 116.48269,-9.4333811 116.52198,-9.3856371 116.71612,-9.5056231 116.92786,-9.6364811 117.02159,-9.3648701 117.02159,-8.6204621 117.02159,-8.0297901 116.92237,-7.5465131 116.8011,-7.5465131 116.67983,-7.5465131 116.57949,-7.3976851 116.57811,-7.2157841 116.57673,-7.0338831 116.48361,-6.5991541 116.37118,-6.2497191 116.20924,-5.7463811 116.24875,-5.6458421 116.56136,-5.7657981 116.89365,-5.8933091 116.91825,-5.7494261 116.71717,-4.8544971 116.58584,-4.2700001 116.30296,-3.3718961 116.08853,-2.8587081 115.58707,-1.6585471 115.59458,-0.2193861 116.11273,1.7802239 116.78978,4.3930449 115.97315,6.5236129 113.76863,7.8958879 113.36196,8.1490389 112.92787,8.6227189 112.80401,8.9485089 112.5139,9.7115589 111.91818,10.199279 111.21122,10.252529 110.90268,10.275769 110.46319,10.501469 110.23458,10.754079 109.88239,11.143249 109.86546,11.407309 110.1237,12.483799 110.52978,14.176499 110.59639,17.042059 110.23505,17.273499 109.75782,17.579169 109.54446,18.642419 109.87938,19.045969 110.31592,19.571959 109.95288,21.017929 109.18234,21.822239 108.83382,22.186039 108.40124,22.681359 108.22106,22.922949 107.86603,23.398989 105.92761,23.676719 104.26605,23.489599 Z M 102.26607,-9.7225021 C 102.18143,-10.046169 102.06359,-10.165232 102.00421,-9.9870851 101.94483,-9.8089361 101.78007,-9.6631801 101.63809,-9.6631801 101.49611,-9.6631801 101.45353,-9.7822421 101.54346,-9.9277631 101.6334,-10.073284 101.52137,-10.192346 101.2945,-10.192346 100.83299,-10.192346 100.81481,-10.146153 101.0426,-9.5525281 101.13093,-9.3223431 101.47697,-9.1340131 101.81158,-9.1340131 102.31014,-9.1340131 102.39219,-9.2402431 102.26607,-9.7225021 Z M 101.05839,-11.338873 C 101.05839,-11.532903 100.90153,-11.691653 100.70982,-11.691653 100.44933,-11.691653 100.43523,-11.602496 100.65402,-11.338873 100.81505,-11.144846 100.97191,-10.986096 101.0026,-10.986096 101.03329,-10.986096 101.05839,-11.144846 101.05839,-11.338873 Z M 102.73409,-24.054664 C 102.73409,-24.305655 101.94209,-24.43215 101.80091,-24.203709 101.71489,-24.064543 101.88968,-23.95068 102.18931,-23.95068 102.48894,-23.95068 102.73409,-23.997474 102.73409,-24.054664 Z M 106.34257,-24.347555 C 106.25881,-24.565836 106.30561,-24.74443 106.44656,-24.74443 106.58751,-24.74443 106.70284,-24.872223 106.70284,-25.028412 106.70284,-25.467615 105.77906,-25.185932 105.75963,-24.740805 105.73638,-24.208 105.88552,-23.95068 106.21759,-23.95068 106.3701,-23.95068 106.42634,-24.129273 106.34257,-24.347555 Z M 122.7895,-34.322346 C 123.21493,-34.747767 123.19052,-35.06318 122.73218,-35.06318 122.52602,-35.06318 122.30398,-35.212008 122.23875,-35.393909 122.17352,-35.57581 122.13257,-35.337685 122.14775,-34.864742 122.17763,-33.934155 122.29885,-33.831695 122.7895,-34.322346 Z M 123.37159,-37.44443 C 123.21583,-37.735471 123.05856,-37.973596 123.0221,-37.973596 122.98564,-37.973596 122.95581,-37.735471 122.95581,-37.44443 122.95581,-37.153388 123.11308,-36.915263 123.3053,-36.915263 123.5728,-36.915263 123.58835,-37.039403 123.37159,-37.44443 Z M 124.16534,-38.942019 C 124.16534,-39.14723 124.34855,-39.594746 124.57247,-39.936498 125.05067,-40.666319 124.99807,-41.122503 124.36859,-41.704623 124.11657,-41.937679 123.98759,-42.20557 124.08195,-42.299936 124.25697,-42.47495 124.19258,-42.486123 122.57784,-42.560913 121.73264,-42.600061 121.65578,-42.542956 121.69742,-41.906818 121.72251,-41.523477 121.99866,-40.615625 122.31108,-39.88937 122.76977,-38.823118 123.00294,-38.568909 123.52223,-38.568909 123.89929,-38.568909 124.16534,-38.723264 124.16534,-38.942019 Z M 100.21867,-46.701817 C 100.31137,-46.851799 100.20516,-46.896153 99.969706,-46.805801 99.511337,-46.629908 99.427472,-46.440263 99.808056,-46.440263 99.944989,-46.440263 100.12977,-46.557963 100.21867,-46.701817 Z M 102.00484,-48.468125 C 101.82203,-48.541825 101.73205,-48.698543 101.80488,-48.816388 102.06155,-49.231683 101.25022,-49.286767 100.73863,-48.888775 100.38993,-48.617509 100.35815,-48.532625 100.64141,-48.629148 100.87289,-48.70802 101.23008,-48.66633 101.43516,-48.536501 101.64025,-48.406673 101.92711,-48.308026 102.07263,-48.317286 102.21815,-48.326546 102.18764,-48.394423 102.00484,-48.468125 Z M 102.99867,-49.615263 C 102.99867,-49.760784 102.79031,-49.878023 102.53565,-49.875796 102.13995,-49.872332 102.13034,-49.834452 102.4695,-49.615263 102.96883,-49.292575 102.99867,-49.292575 102.99867,-49.615263 Z M 103.03633,-50.673596 C 103.17832,-50.673596 103.2209,-50.554534 103.13096,-50.409013 103.04103,-50.263492 103.16009,-50.14443 103.39555,-50.14443 103.631,-50.14443 103.75007,-50.263492 103.66013,-50.409013 103.57019,-50.554534 103.63262,-50.673596 103.79886,-50.673596 103.96509,-50.673596 104.04653,-50.822424 103.97983,-51.004325 103.91314,-51.186227 103.69486,-51.296526 103.49477,-51.249436 103.29467,-51.202345 103.39885,-51.415342 103.72628,-51.722762 104.0537,-52.030184 104.32159,-52.356447 104.32159,-52.447792 104.32159,-52.539136 104.24325,-52.535533 104.14749,-52.43978 104.05174,-52.34403 103.81362,-52.398296 103.61833,-52.560372 103.42304,-52.722448 103.26143,-52.751181 103.2592,-52.624221 103.25698,-52.497263 103.14872,-52.561525 103.01863,-52.767027 102.82027,-53.080387 102.70553,-53.064083 102.30742,-52.665975 101.85089,-52.209442 101.85503,-52.198361 102.4157,-52.376312 102.84735,-52.51331 102.99867,-52.453692 102.99867,-52.146635 102.99867,-51.918546 102.87961,-51.717047 102.73409,-51.698857 102.4518,-51.663572 102.06546,-51.574103 101.7419,-51.469087 101.63276,-51.433665 101.45417,-51.418782 101.34503,-51.436014 101.02432,-51.48665 101.11504,-51.293142 101.59425,-50.904429 101.89843,-50.657692 101.97823,-50.647307 101.84322,-50.872034 101.71818,-51.080158 101.79744,-51.202763 102.05701,-51.202763 102.3022,-51.202763 102.47798,-50.961312 102.49039,-50.607451 102.50188,-50.280029 102.57134,-50.160966 102.64473,-50.342867 102.71813,-50.524768 102.89435,-50.673596 103.03633,-50.673596 Z M 102.15382,-53.987889 C 102.07236,-54.069351 101.92442,-53.922508 101.82506,-53.66157 101.68147,-53.284486 101.71186,-53.254096 101.97317,-53.513457 102.15399,-53.692934 102.23529,-53.906426 102.15382,-53.987889 Z"
             id="path8819" />
          <path
             style="fill:#000000;stroke-width:0.264583"
             d="M 104.26605,23.489599 C 103.96606,23.189619 103.71584,22.735809 103.71002,22.481149 103.70247,22.151029 103.58613,22.226969 103.3047,22.745729 103.08759,23.145919 102.73517,23.473339 102.52154,23.473339 102.03599,23.473339 102.04067,23.220939 102.5384,22.562869 102.96439,21.999669 103.05785,20.939689 102.70097,20.719119 102.57673,20.642339 102.34868,20.856919 102.1942,21.195959 102.03972,21.534999 101.6759,21.874489 101.38571,21.950379 100.88228,22.082029 100.88732,22.033359 101.4956,20.889359 101.87849,20.169229 102.13311,19.245349 102.13311,18.576149 102.13311,17.666249 102.30286,17.281949 103.05885,16.480369 103.56801,15.940499 104.28735,14.982179 104.65739,14.350759 105.48242,12.942949 105.94058,12.739009 106.62584,13.474559 107.73034,14.660099 107.61832,16.513179 106.26317,19.473939 106.01697,20.011859 106.06175,20.162709 106.56732,20.498389 107.1271,20.870069 107.4527,22.097839 106.90108,21.756929 106.75857,21.668849 106.3948,21.729059 106.0927,21.890739 105.6812,22.110969 105.56369,22.394109 105.62421,23.019599 105.72469,24.058139 105.06342,24.286979 104.26605,23.489599 Z M 105.37426,9.5084877 C 103.73066,8.9634887 103.84957,8.3205907 106.05757,5.8140797 107.05186,4.6853697 108.00029,3.5094237 108.16519,3.2008687 108.56755,2.4480047 109.05961,-0.163157 109.10652,-1.794371 109.14452,-3.115568 109.14354,-3.117166 108.35082,-3.024051 107.91426,-2.972773 107.49754,-2.851287 107.42478,-2.754084 107.23128,-2.495586 105.78722,-1.888526 105.6625,-2.013248 105.4882,-2.187545 105.33501,-3.202143 105.25297,-4.725629 105.21054,-5.513513 105.12396,-6.158562 105.06058,-6.15907 104.9972,-6.159581 104.66351,-5.895225 104.31904,-5.571616 103.81139,-5.094707 103.64985,-5.052636 103.46635,-5.349551 103.34183,-5.551023 103.31834,-5.905091 103.41414,-6.136366 104.07315,-7.727309 105.14102,-8.245283 105.53975,-7.1674 105.74833,-6.603565 105.75936,-6.607274 105.93315,-7.299692 106.06093,-7.808814 106.28037,-8.010923 106.70221,-8.008029 107.18035,-8.004745 107.21709,-7.95525 106.89561,-7.747496 106.59802,-7.555179 106.58699,-7.490001 106.85151,-7.486964 107.04554,-7.484736 107.14972,-7.334085 107.08302,-7.152184 107.01633,-6.970283 106.82781,-6.85122 106.6641,-6.887601 106.50039,-6.923981 106.36645,-6.778888 106.36645,-6.565174 106.36645,-6.321146 106.19421,-6.225769 105.90342,-6.308774 105.64876,-6.381468 105.73806,-6.290555 106.10186,-6.106741 106.46566,-5.922927 106.92065,-5.62159 107.11295,-5.437099 107.63717,-4.934153 107.92549,-5.02844 108.10988,-5.763121 108.20119,-6.126923 108.35228,-6.433689 108.44565,-6.444823 109.48306,-6.568537 110.3352,-7.043371 110.3352,-7.497735 110.3352,-7.615774 110.00777,-7.750023 109.60759,-7.796069 109.0597,-7.859108 108.90143,-8.003931 108.96682,-8.382398 109.0742,-9.00391 109.64603,-9.59958 110.13528,-9.59958 110.50886,-9.59958 111.72486,-7.69976 111.60499,-7.303383 111.56884,-7.183844 111.70166,-6.516491 111.90015,-5.820375 112.22663,-4.675372 112.21434,-4.468018 111.77131,-3.645357 111.34473,-2.853255 111.32488,-2.616278 111.61733,-1.807516 111.90157,-1.021473 111.88314,-0.629768 111.49718,0.7457657 L 111.04129,2.3705647 111.68043,2.8526697 C 112.05808,3.1375327 112.33769,3.6386407 112.36386,4.0774947 112.38821,4.4859877 112.49213,5.1514697 112.59477,5.5563437 112.76647,6.2336157 112.69418,6.3267357 111.69059,6.7209567 111.02705,6.9816037 110.59978,7.3202647 110.59978,7.5855547 110.59978,8.2672827 110.04511,8.6566697 109.074,8.6566697 108.56189,8.6566697 107.82518,8.9169777 107.34098,9.2690107 106.54489,9.8477947 106.43711,9.8609187 105.37426,9.5084877 Z M 106.76997,-10.382566 C 106.67638,-10.534009 106.68971,-10.657913 106.79961,-10.657913 106.9095,-10.657913 106.60787,-11.061892 106.1293,-11.555642 105.38437,-12.324214 105.30187,-12.533126 105.55587,-13.007728 106.00588,-13.848574 106.92612,-13.953174 108.04836,-13.291038 109.72662,-12.300841 109.98256,-10.823518 108.53162,-10.501645 108.14114,-10.41502 107.62331,-10.290838 107.3809,-10.225684 107.13848,-10.160528 106.86357,-10.231127 106.76997,-10.382566 Z M 102.75214,-36.867639 C 102.37693,-37.242849 100.98601,-37.473939 101.2015,-37.125263 101.29806,-36.969016 101.12478,-36.851663 100.7975,-36.851663 100.39679,-36.851663 100.27022,-36.971038 100.37671,-37.248538 100.49655,-37.560831 100.3019,-37.645413 99.46336,-37.645413 98.87501,-37.645413 98.46572,-37.755445 98.54955,-37.891081 98.63305,-38.026196 98.43172,-38.175024 98.10214,-38.22181 95.96615,-38.525015 99.74215,-45.223783 102.34218,-45.743785 102.80927,-45.837205 103.19145,-46.017825 103.19145,-46.145155 103.19145,-46.272485 103.36012,-46.376665 103.56627,-46.376665 103.77243,-46.376665 103.98078,-46.493675 104.02929,-46.636695 104.0778,-46.779715 104.47467,-46.935665 104.91124,-46.983265 105.72648,-47.072155 107.02591,-47.677105 106.43259,-47.691535 106.25069,-47.695955 106.10186,-47.878175 106.10186,-48.096455 106.10186,-48.314735 105.93889,-48.493325 105.73969,-48.493325 105.17713,-48.493325 105.46811,-50.026055 106.21711,-51.008045 106.82626,-51.806675 106.93001,-51.843805 108.06963,-51.670855 108.87182,-51.549105 109.28692,-51.584525 109.30684,-51.776425 109.39196,-52.596515 109.28258,-53.814995 108.99591,-55.240205 108.67795,-56.820965 108.57541,-59.046775 108.72776,-61.061035 108.9467,-63.955795 108.12389,-66.699055 106.59648,-68.166735 105.55666,-69.165885 105.52892,-69.237085 105.71796,-70.421415 105.82532,-71.094045 105.94745,-72.159425 105.98936,-72.788945 106.06015,-73.852295 106.0088,-73.953295 105.26568,-74.212355 104.62107,-74.437065 104.48878,-74.611365 104.58415,-75.110295 104.64925,-75.450805 104.60064,-75.666445 104.47614,-75.589495 104.35164,-75.512555 104.24978,-75.635215 104.24978,-75.862085 104.24978,-76.354845 103.64538,-76.397315 102.93615,-75.954395 102.10462,-75.435095 100.94898,-75.975495 100.91547,-76.899325 100.9006,-77.308965 101.04875,-77.705645 101.24468,-77.780825 101.4406,-77.856015 101.53503,-78.024115 101.45452,-78.154385 101.37401,-78.284655 101.8807,-78.400845 102.58052,-78.412575 103.28033,-78.424305 104.87614,-78.472565 106.12677,-78.519825 108.58124,-78.612565 108.68956,-78.582145 109.35191,-77.613955 109.5946,-77.259205 109.99742,-76.938975 110.24705,-76.902335 111.41356,-76.731135 111.98171,-76.471185 112.84388,-75.714185 113.83162,-74.846935 114.00425,-74.318255 113.41256,-73.972625 112.85103,-73.644615 112.65181,-72.688845 113.07224,-72.339925 113.5236,-71.965325 114.20057,-72.624685 113.88644,-73.132955 113.75152,-73.351255 113.82276,-73.402365 114.10891,-73.292565 114.34042,-73.203725 114.67218,-73.302545 114.84616,-73.512185 115.02014,-73.721815 115.39306,-73.893325 115.67487,-73.893325 115.95668,-73.893325 116.11367,-74.012395 116.02373,-74.157915 115.9338,-74.303435 115.9863,-74.422495 116.14041,-74.422495 116.29452,-74.422495 116.42061,-73.940335 116.42061,-73.351025 116.42061,-72.761715 116.61315,-71.907215 116.84848,-71.452125 117.26664,-70.643495 117.26046,-70.613125 116.57649,-70.114885 115.52745,-69.350715 115.05875,-68.316395 115.49261,-67.723035 115.68244,-67.463435 115.91292,-66.810785 116.0048,-66.272705 116.09668,-65.734625 116.70799,-64.222805 117.36327,-62.913125 118.25814,-61.124575 118.62992,-60.001365 118.85694,-58.400515 119.13849,-56.415065 119.12093,-56.197705 118.60037,-55.225515 116.6701,-51.620525 116.69048,-51.688715 116.849,-49.366795 116.9882,-47.327885 116.95802,-47.151065 116.37411,-46.584645 116.03116,-46.251975 115.58814,-45.511645 115.3896,-44.939475 115.19107,-44.367303 114.80605,-43.660244 114.534,-43.368231 114.26195,-43.076219 114.03936,-42.681156 114.03936,-42.490315 114.03936,-42.299474 113.94422,-42.14333 113.82793,-42.14333 113.71164,-42.14333 113.46581,-41.726611 113.28164,-41.217288 113.09746,-40.707965 112.86519,-40.282137 112.76546,-40.271003 111.96899,-40.182077 111.52229,-39.991307 111.03202,-39.53072 110.71918,-39.236824 110.2322,-39.030269 109.94984,-39.07171 109.66747,-39.113152 109.13265,-38.988634 108.76135,-38.795004 108.13307,-38.46737 106.84342,-38.512185 105.83728,-38.896614 105.06113,-39.19317 104.77895,-39.181711 104.77895,-38.853633 104.77895,-38.670782 104.53662,-38.301876 104.24045,-38.033843 103.93434,-37.756818 103.7691,-37.371516 103.85756,-37.141006 103.94314,-36.917978 103.92853,-36.820135 103.82509,-36.923577 103.72164,-37.027021 103.49821,-36.996459 103.32856,-36.855664 103.12894,-36.689995 102.92555,-36.694223 102.75214,-36.867639 Z M 110.81905,-64.923265 C 111.00966,-65.228475 111.09783,-65.545975 111.01499,-65.628815 110.93214,-65.711655 110.86436,-65.625955 110.86436,-65.438365 110.86436,-65.179895 110.77675,-65.170005 110.50259,-65.397525 110.00003,-65.814615 109.40288,-65.141895 109.86524,-64.679535 110.29331,-64.251465 110.41967,-64.283755 110.81905,-64.923265 Z M 113.42307,-66.954715 C 113.59344,-67.063085 113.8147,-67.477985 113.91478,-67.876705 114.01485,-68.275435 114.20758,-68.601665 114.34306,-68.601665 114.47854,-68.601665 114.43587,-68.767755 114.24823,-68.970765 114.06059,-69.173775 113.81777,-69.285805 113.70863,-69.219735 113.59949,-69.153665 113.5102,-69.240265 113.5102,-69.412195 113.5102,-69.646165 113.41111,-69.642555 113.11623,-69.397835 112.89956,-69.218005 112.78277,-68.972975 112.85672,-68.853335 112.93066,-68.733685 112.75279,-68.211395 112.46145,-67.692685 L 111.93174,-66.749575 112.52253,-66.753625 C 112.84746,-66.755855 113.25271,-66.846345 113.42307,-66.954715 Z M 85.530505,-64.676815 C 84.912045,-64.815315 84.406025,-65.047715 84.406025,-65.193265 84.406025,-65.338815 84.297045,-65.390535 84.163845,-65.308215 84.030645,-65.225895 83.584165,-65.442535 83.171655,-65.789635 82.759155,-66.136735 82.302595,-66.447085 82.157075,-66.479315 82.011545,-66.511545 81.914325,-66.621265 81.941005,-66.723145 81.967685,-66.825025 81.551205,-66.937905 81.015485,-66.973985 80.479765,-67.010055 79.937405,-67.143615 79.810245,-67.270775 79.683085,-67.397935 79.414965,-67.439015 79.214415,-67.362055 79.013865,-67.285095 78.849795,-67.324165 78.849825,-67.448875 78.849845,-67.573585 77.696825,-67.663615 76.287545,-67.648945 L 73.725225,-67.622275 72.606835,-68.653165 C 70.153065,-70.914985 70.509665,-74.309665 73.516955,-77.316955 74.368875,-78.168875 75.140675,-78.659755 76.011615,-78.903605 77.195545,-79.235085 77.290865,-79.328785 77.569395,-80.434915 77.987195,-82.094155 79.581775,-83.991595 81.412755,-85.008235 83.445995,-86.137185 86.143365,-86.364775 88.928575,-85.642385 90.73413,-85.174085 90.85264,-85.093955 91.70095,-83.767825 92.99828,-81.739785 95.18418,-80.779305 96.46333,-81.675255 96.75669,-81.880735 97.70592,-82.253995 98.57273,-82.504735 99.43953,-82.755465 100.4853,-83.242195 100.89664,-83.586345 101.72633,-84.280505 102.03987,-84.359525 102.18902,-83.912065 102.25457,-83.715415 102.43798,-83.760995 102.72134,-84.044355 103.26173,-84.584745 103.56048,-84.601315 103.36035,-84.079785 103.27636,-83.860905 103.35266,-83.682675 103.53048,-83.682385 103.71025,-83.682085 103.88232,-83.269525 103.9194,-82.749925 103.97442,-81.978775 103.8765,-81.776405 103.35183,-81.576925 103.0031,-81.444335 102.67552,-81.233935 102.62388,-81.109365 102.57224,-80.984795 102.08466,-80.547135 101.54038,-80.136785 100.99609,-79.726445 100.61617,-79.284885 100.6961,-79.155555 100.84955,-78.907265 100.36699,-78.832155 99.14275,-78.913765 98.73498,-78.940945 98.1289,-78.784675 97.79591,-78.566495 97.46293,-78.348315 96.66547,-78.029455 96.02378,-77.857935 94.78362,-77.526435 94.10627,-76.978975 93.81989,-76.076665 93.72316,-75.771895 93.28159,-75.245265 92.83862,-74.906375 92.39566,-74.567475 91.89362,-74.161575 91.72299,-74.004355 91.55236,-73.847145 91.27722,-73.763695 91.11157,-73.818905 90.93486,-73.877815 90.82649,-73.651065 90.84935,-73.270245 90.87078,-72.913265 90.96733,-72.669975 91.06391,-72.729595 91.16049,-72.789215 91.39411,-72.488715 91.58307,-72.061825 91.77203,-71.634935 92.00694,-71.335295 92.1051,-71.395955 92.20325,-71.456615 92.43069,-71.328965 92.61052,-71.112295 92.79035,-70.895615 93.07503,-70.718325 93.24316,-70.718325 93.41128,-70.718325 93.75272,-70.480205 94.00192,-70.189165 94.25112,-69.898125 94.61185,-69.659995 94.80355,-69.659995 94.99525,-69.659995 95.36083,-69.186925 95.61592,-68.608735 96.1129,-67.482325 96.16344,-67.160405 95.84926,-67.122535 95.74012,-67.109385 95.20815,-66.901025 94.66712,-66.659515 94.12609,-66.418005 93.50101,-66.220415 93.27806,-66.220415 93.0551,-66.220415 92.87269,-66.121195 92.87269,-65.999925 92.87269,-65.878655 92.72386,-65.763185 92.54196,-65.743315 92.24303,-65.710665 90.6481,-65.418075 88.903945,-65.075925 88.540145,-65.004565 87.907315,-64.816155 87.497655,-64.657245 87.088005,-64.498345 86.730815,-64.381075 86.703905,-64.396665 86.677005,-64.412245 86.148975,-64.538315 85.530505,-64.676815 Z M 121.34239,-64.977335 C 121.09007,-65.161835 120.82909,-65.784885 120.76242,-66.361915 120.69576,-66.938935 120.62423,-67.559865 120.60348,-67.741765 120.58273,-67.923665 120.46653,-68.072495 120.34526,-68.072495 120.22399,-68.072495 120.12477,-68.286805 120.12477,-68.548745 120.12477,-68.810685 119.98694,-69.162825 119.81849,-69.331285 119.42894,-69.720825 119.97315,-70.453745 120.65195,-70.453745 120.98303,-70.453745 121.20367,-70.096845 121.42892,-69.196975 121.60195,-68.505755 121.86106,-67.491265 122.00473,-66.942575 122.14839,-66.393875 122.20016,-65.838495 122.11975,-65.708405 122.03935,-65.578305 122.10642,-65.427575 122.2688,-65.373445 122.46323,-65.308635 122.43379,-65.166925 122.1826,-64.958455 121.88558,-64.711955 121.69961,-64.716135 121.34239,-64.977335 Z M 97.97441,-67.201295 C 97.89288,-67.413775 97.57484,-67.698495 97.26766,-67.834025 96.81277,-68.034715 96.87739,-68.062375 97.61598,-67.983105 L 98.52281,-67.885785 97.88056,-68.419935 C 97.52258,-68.717665 97.43188,-68.884135 97.67562,-68.796045 97.91614,-68.709125 98.33286,-68.804635 98.60167,-69.008295 99.214,-69.472225 99.52618,-69.492805 99.45715,-69.064685 99.42782,-68.882785 99.49487,-68.525595 99.60615,-68.270935 99.90575,-67.585305 99.62022,-67.101265 98.8267,-66.949575 98.35761,-66.859905 98.07318,-66.943905 97.97441,-67.201295 Z M 122.65389,-75.340125 C 123.1585,-75.721795 123.15784,-75.728735 122.61639,-75.736995 122.20365,-75.743305 122.08187,-75.894875 122.13132,-76.340725 122.16763,-76.668145 122.21487,-76.936035 122.23628,-76.936035 122.2577,-76.936035 122.31331,-77.322995 122.35986,-77.795935 122.41033,-78.308655 122.32339,-78.657465 122.14453,-78.659875 121.96156,-78.662355 121.98237,-78.751285 122.19789,-78.887905 122.39222,-79.011085 122.52199,-79.158085 122.48627,-79.214575 122.35951,-79.415045 123.11622,-81.436765 123.38261,-81.609365 123.53151,-81.705835 123.68565,-82.357005 123.72513,-83.056405 123.83609,-85.021985 124.6792,-85.367025 126.8519,-84.336015 127.36952,-84.090385 127.72752,-83.783425 127.64745,-83.653875 127.56739,-83.524325 127.6023,-83.418325 127.72503,-83.418325 127.99556,-83.418325 128.89174,-81.950035 128.80521,-81.648575 128.77133,-81.530535 128.87271,-81.195825 129.0305,-80.904785 129.40615,-80.211925 129.63949,-77.622375 129.3428,-77.439005 129.21584,-77.360545 129.17544,-77.193655 129.25301,-77.068145 129.33058,-76.942645 129.15468,-76.672295 128.86213,-76.467385 128.56958,-76.262475 128.39507,-76.029975 128.47434,-75.950715 128.5536,-75.871445 128.27013,-75.685165 127.8444,-75.536755 127.26165,-75.333605 126.75677,-75.370155 125.80157,-75.684625 124.58301,-76.085785 124.49322,-76.079545 123.53313,-75.526995 122.39107,-74.869705 121.89159,-74.763545 122.65389,-75.340125 Z M 109.84113,-79.163305 C 109.33542,-79.475845 109.80064,-80.243325 110.49579,-80.243325 110.84403,-80.243325 111.37141,-80.485795 111.66776,-80.782145 111.96411,-81.078495 112.30389,-81.260825 112.42282,-81.187315 112.54176,-81.113815 112.78075,-81.364625 112.95391,-81.744685 113.26314,-82.423365 113.3037,-82.432735 115.2287,-82.270015 116.43199,-82.168295 117.25166,-82.206305 117.35188,-82.368465 117.62148,-82.804675 119.26091,-83.387125 119.81286,-83.242785 120.18932,-83.144335 120.28821,-82.954085 120.18041,-82.535615 119.95946,-81.677865 119.35965,-81.361895 118.0776,-81.427915 117.28635,-81.468665 116.96076,-81.390075 117.04215,-81.177985 117.15301,-80.889095 116.44646,-80.772405 113.97322,-80.671145 113.57303,-80.654765 113.24561,-80.549245 113.24561,-80.436675 113.24561,-80.324095 112.95169,-80.098065 112.59245,-79.934385 112.23321,-79.770705 111.99565,-79.545585 112.06454,-79.434115 112.13343,-79.322645 111.98087,-79.264065 111.72552,-79.303945 111.47016,-79.343815 111.01317,-79.284315 110.70999,-79.171725 110.4068,-79.059135 110.01581,-79.055345 109.84113,-79.163305 Z"
             id="path8875" />
          <path
             style="fill:#3f3f3f;fill-opacity:1;stroke-width:0.264583"
             d="M 105.79226,24.731343 C 105.21992,24.098913 105.22727,23.198883 105.8066,22.976573 106.18329,22.832023 106.19769,22.761873 105.88976,22.571553 105.58571,22.383643 105.57931,22.266673 105.85492,21.934573 106.04061,21.710843 106.4199,21.455613 106.69781,21.367413 106.98812,21.275273 107.2061,20.961373 107.21019,20.629563 107.21411,20.311953 107.55912,19.639813 107.97689,19.135933 L 108.73647,18.219793 109.14537,19.198433 C 109.52617,20.109803 109.51366,20.336463 108.96341,22.495833 108.4775,24.402703 108.28042,24.818193 107.85395,24.834913 107.56873,24.846093 107.08745,24.937073 106.78445,25.037093 106.41142,25.160223 106.09104,25.061493 105.79226,24.731343 Z M 112.66365,8.939583 C 112.74741,8.721301 112.99638,8.542708 113.21691,8.542708 113.54332,8.542708 113.55663,8.616497 113.28849,8.939583 113.10734,9.157864 112.85837,9.336458 112.73523,9.336458 112.6121,9.336458 112.57988,9.157864 112.66365,8.939583 Z M 112.34524,5.285957 C 112.16612,4.819176 112.38957,4.309374 112.77328,4.309374 113.0411,4.309374 112.97307,5.24216 112.68418,5.531051 112.58684,5.628388 112.43432,5.518097 112.34524,5.285957 Z M 112.78022,0.186285 C 112.79291,-0.121941 112.85561,-0.184634 112.94007,0.026432 113.0165,0.217426 113.0071,0.445632 112.91918,0.533551 112.83126,0.621469 112.76873,0.465198 112.78022,0.186285 Z M 102.97155,-38.222397 C 102.97333,-38.677903 104.44907,-39.876042 105.00833,-39.876042 105.5937,-39.876042 105.56244,-39.102229 104.9504,-38.441821 104.20753,-37.640252 102.96874,-37.502891 102.97155,-38.222397 Z M 118.22935,-49.575461 C 118.13207,-49.672746 117.48659,-49.762598 116.79496,-49.775131 115.86369,-49.792007 115.53745,-49.90088 115.53745,-50.194792 115.53745,-50.413074 115.06808,-50.829792 114.49441,-51.120834 113.72444,-51.511467 113.39259,-51.878376 113.22685,-52.52234 113.10336,-53.002127 112.82859,-53.461351 112.61625,-53.542835 112.12446,-53.731549 112.11487,-54.796812 112.6013,-55.200521 112.88631,-55.437053 113.00428,-55.429219 113.10959,-55.166774 113.18501,-54.978798 113.25612,-55.142501 113.2676,-55.530557 113.27909,-55.918611 113.37997,-56.275798 113.49177,-56.324307 113.94488,-56.520898 114.83757,-57.924563 114.71411,-58.246304 114.64133,-58.435957 114.9548,-58.96414 115.4107,-59.420043 116.46359,-60.472934 117.9775,-60.585176 118.56151,-59.653647 119.43921,-58.25367 120.36996,-56.041684 120.6693,-54.644333 120.96324,-53.272238 120.94097,-53.0235 120.41466,-51.800062 120.09745,-51.062684 119.73815,-50.459376 119.61622,-50.459376 119.49429,-50.459376 119.17216,-50.220695 118.90038,-49.928976 118.6286,-49.637254 118.32664,-49.478174 118.22935,-49.575461 Z M 89.21141,-63.423959 C 89.21141,-63.56948 88.97328,-63.688542 88.68224,-63.688542 88.3912,-63.688542 88.15308,-63.827449 88.15308,-63.997224 88.15308,-64.166996 88.07582,-64.228642 87.98139,-64.134212 87.80127,-63.954099 86.56646,-65.25232 86.5659,-65.622387 86.56572,-65.740116 86.43859,-65.757957 86.28339,-65.662038 86.12819,-65.566116 85.8603,-65.679542 85.68808,-65.914096 85.51586,-66.148649 85.0773,-66.396688 84.71349,-66.465294 82.9995,-66.78852 82.62089,-66.927582 82.20566,-67.386401 81.71006,-67.934031 81.74205,-69.17272 82.2661,-69.726712 82.79706,-70.288013 82.65018,-71.257454 81.8989,-72.150301 81.27973,-72.886144 81.23903,-73.050863 81.53826,-73.609981 81.73486,-73.977336 81.80664,-74.584775 81.71035,-75.06625 81.49372,-76.149415 82.01849,-77.336552 83.25303,-78.556073 84.20845,-79.499879 85.17413,-79.875072 87.5743,-80.234999 88.58713,-80.386883 90.26974,-79.695981 90.26974,-79.128216 90.26974,-78.921949 90.44834,-78.684652 90.66662,-78.600889 91.1152,-78.428753 91.21447,-77.446876 90.78329,-77.446876 90.62919,-77.446876 90.57668,-77.565938 90.66662,-77.711459 90.75656,-77.85698 90.65567,-77.976042 90.44242,-77.976042 90.02346,-77.976042 90.12294,-77.070403 90.61024,-76.448293 90.75548,-76.262876 90.79962,-76.036474 90.70832,-75.94518 90.52177,-75.75862 91.42034,-75.241595 92.35671,-74.996731 92.8191,-74.875811 93.00647,-74.959197 93.10316,-75.328926 93.36908,-76.345778 95.263836,-75.40697 95.288024,-74.24638 95.303838,-73.487603 94.491274,-72.186702 93.89531,-72.016663 93.57474,-71.925196 92.58691,-71.543373 91.70014,-71.168168 90.20099,-70.53385 90.08549,-70.423844 90.05455,-69.600797 90.03625,-69.113953 90.12748,-68.715626 90.25728,-68.715626 90.59412,-68.715626 91.3119,-66.355206 91.38367,-65.011459 91.42929,-64.157455 91.27821,-63.423552 91.08178,-63.54495 90.94631,-63.628675 90.76069,-63.576169 90.66929,-63.428274 90.45445,-63.080665 89.21141,-63.076987 89.21141,-63.423959 Z M 110.81905,-64.923265 C 110.72204,-65.020278 110.64266,-65.424259 110.64266,-65.820999 110.64266,-66.58619 111.13917,-66.952024 112.16401,-66.941946 112.49304,-66.93871 112.75933,-67.097392 112.75933,-67.296692 112.75933,-67.495023 112.59188,-67.657292 112.38722,-67.657292 112.14538,-67.657292 112.06356,-67.842538 112.1535,-68.186459 112.46444,-69.375523 113.364,-68.356007 113.25071,-66.942925 113.16089,-65.822523 112.96247,-65.550667 111.88698,-65.07452 111.0226,-64.691834 111.04702,-64.695293 110.81905,-64.923265 Z M 76.37186,-65.759941 C 75.49593,-66.109297 74.92391,-67.090475 74.92391,-68.243596 74.92391,-68.9243 76.16119,-70.509834 77.05175,-70.970362 77.69918,-71.305161 77.81579,-71.291315 78.23319,-70.830091 78.62268,-70.399714 78.65303,-70.147844 78.42409,-69.24588 78.06972,-67.849801 78.22259,-67.350952 79.17171,-66.806234 79.96048,-66.353542 80.22745,-65.575458 79.62026,-65.498956 78.44842,-65.351308 77.13103,-65.45715 76.37186,-65.759941 Z"
             id="path8913" />
        </g>
        <g
           id="g20529"
           transform="translate(-0.52916667,2.1166667)">
          <path
             style="fill:none;stroke:#fefefe;stroke-width:1.3165;stroke-linecap:butt;stroke-linejoin:miter;stroke-miterlimit:4;stroke-dasharray:none;stroke-opacity:1"
             d="M 91.881125,123.69762 V 111.0363 L 96.454882,118.95828"
             id="path17380" />
          <path
             style="fill:none;stroke:#fefefe;stroke-width:1.3165;stroke-linecap:butt;stroke-linejoin:miter;stroke-miterlimit:4;stroke-dasharray:none;stroke-opacity:1"
             d="M 96.427906,123.69762 V 111.0363 L 91.854149,118.95828"
             id="path17462" />
          <path
             style="fill:none;stroke:#fefefe;stroke-width:1.3165;stroke-linecap:butt;stroke-linejoin:miter;stroke-miterlimit:4;stroke-dasharray:none;stroke-opacity:1"
             d="M 96.540864,121.02681 100.99539,115.85695"
             id="path17577"
             sodipodi:nodetypes="cc" />
          <path
             style="fill:none;stroke:#fefefe;stroke-width:1.3165;stroke-linecap:butt;stroke-linejoin:miter;stroke-miterlimit:4;stroke-dasharray:none;stroke-opacity:1"
             d="M 96.540864,121.02681 100.99539,126.19667"
             id="path17758"
             sodipodi:nodetypes="cc" />
        </g>
      </g>
    </g>
  </g>
</svg>
