<?xml version="1.0" encoding="UTF-8" standalone="no"?>
<!-- Created with Inkscape (http://www.inkscape.org/) -->

<svg
   width="210mm"
   height="297mm"
   viewBox="0 0 210 297"
   version="1.1"
   id="svg5"
   inkscape:version="1.2.1 (9c6d41e410, 2022-07-14)"
   sodipodi:docname="logo.svg"
   xmlns:inkscape="http://www.inkscape.org/namespaces/inkscape"
   xmlns:sodipodi="http://sodipodi.sourceforge.net/DTD/sodipodi-0.dtd"
   xmlns="http://www.w3.org/2000/svg"
   xmlns:svg="http://www.w3.org/2000/svg">
  <sodipodi:namedview
     id="namedview7"
     pagecolor="#ffffff"
     bordercolor="#666666"
     borderopacity="1.0"
     inkscape:pageshadow="2"
     inkscape:pageopacity="0.0"
     inkscape:pagecheckerboard="0"
     inkscape:document-units="mm"
     showgrid="false"
     inkscape:zoom="1.5037599"
     inkscape:cx="227.09742"
     inkscape:cy="335.15989"
     inkscape:window-width="1920"
     inkscape:window-height="1038"
     inkscape:window-x="0"
     inkscape:window-y="42"
     inkscape:window-maximized="1"
     inkscape:current-layer="layer1"
     inkscape:showpageshadow="2"
     inkscape:deskcolor="#d1d1d1" />
  <defs
     id="defs2">
    <inkscape:path-effect
       effect="bspline"
       id="path-effect17378"
       is_visible="true"
       lpeversion="1"
       weight="33.333333"
       steps="2"
       helper_size="0"
       apply_no_weight="true"
       apply_with_weight="true"
       only_selected="false" />
    <inkscape:path-effect
       effect="bspline"
       id="path-effect20059"
       is_visible="true"
       lpeversion="1"
       weight="33.333333"
       steps="2"
       helper_size="0"
       apply_no_weight="true"
       apply_with_weight="true"
       only_selected="false" />
    <inkscape:path-effect
       effect="bspline"
       id="path-effect19973"
       is_visible="true"
       lpeversion="1"
       weight="33.333333"
       steps="2"
       helper_size="0"
       apply_no_weight="true"
       apply_with_weight="true"
       only_selected="false" />
  </defs>
  <g
     inkscape:label="Layer 1"
     inkscape:groupmode="layer"
     id="layer1">
    <g
       id="g2613"
       transform="translate(12.476683,-31.354088)"
       inkscape:export-filename="mastercrafter_logo.png"
       inkscape:export-xdpi="96"
       inkscape:export-ydpi="96">
      <circle
         style="fill:#fefefe;fill-opacity:1;stroke:#414141;stroke-width:2.665;stroke-linejoin:round;stroke-miterlimit:4;stroke-dasharray:none;stroke-opacity:1"
         id="path20672"
         cx="88.75135"
         cy="107.8447"
         r="41.347588" />
      <g
         id="g1138"
         transform="matrix(1.2355648,0,0,1.2355648,-123.41323,-24.501666)">
        <path
           style="fill:#bdbdbd;fill-opacity:1;stroke-width:0.0938781"
           d="m 169.48004,137.169 c -1.09797,-0.32583 -1.83095,-0.70817 -1.63101,-0.85078 0.0991,-0.0707 0.0906,-0.0796 -0.0369,-0.0385 -0.24023,0.0774 -0.7542,-0.2516 -0.61324,-0.39257 0.0816,-0.0816 0.0586,-0.0986 -0.0938,-0.0693 -0.14829,0.0286 -0.33997,-0.10015 -0.72067,-0.48391 -0.28526,-0.28754 -0.51865,-0.55433 -0.51865,-0.59287 0,-0.0385 0.0634,-0.12266 0.14082,-0.18694 0.0774,-0.0643 0.14017,-0.1645 0.13938,-0.22272 -8e-4,-0.0586 -0.0393,-0.0461 -0.0862,0.028 -0.0962,0.15205 -0.47568,0.23826 -0.47568,0.10806 0,-0.047 0.0528,-0.10888 0.11735,-0.13749 0.0645,-0.0286 0.0387,-0.0427 -0.0574,-0.0313 -0.2242,0.0266 -1.03047,-1.46177 -0.9695,-1.78967 0.0219,-0.11796 0.0158,-0.19037 -0.0137,-0.1609 -0.11134,0.11134 -0.30696,-0.78525 -0.3609,-1.65409 -0.0572,-0.92144 0.0473,-1.79305 0.31396,-2.61752 0.17959,-0.55535 0.79455,-1.78368 0.893,-1.78368 0.0966,0 0.102,0.16109 0.007,0.2034 -0.16993,0.0755 -0.60285,1.22126 -0.82768,2.19049 -0.15564,0.67091 -0.16863,0.98573 -0.0407,0.98573 0.0516,0 0.0988,0.0951 0.10477,0.21122 0.008,0.15895 0.0215,0.17057 0.0538,0.0469 0.0613,-0.23438 0.21436,-0.20324 0.23082,0.0469 0.008,0.11618 0.0192,0.29572 0.0256,0.39899 0.006,0.10326 -0.0195,0.25612 -0.0575,0.3397 -0.11388,0.24994 0.0302,0.2804 0.21499,0.0455 0.57129,-0.72629 4.56657,-1.23668 7.93188,-1.01329 0.9248,0.0614 2.08279,0.19559 2.5733,0.29823 1.02392,0.21425 1.04207,0.21619 0.82144,0.0877 -0.0928,-0.054 -0.16428,-0.20689 -0.16428,-0.35108 0,-0.54696 -0.65654,-2.46438 -0.93799,-2.73939 -0.0264,-0.0258 -0.10585,-0.15925 -0.17651,-0.29652 -0.0707,-0.13727 -0.25013,-0.38279 -0.39883,-0.5456 -0.1487,-0.1628 -0.27037,-0.31741 -0.27037,-0.34358 0,-0.0262 -0.19521,-0.24536 -0.4338,-0.48707 -0.47095,-0.47711 -1.06825,-1.33972 -1.06825,-1.54274 0,-0.0696 -0.0401,-0.16669 -0.089,-0.21574 -0.049,-0.049 -0.16074,-0.34266 -0.24837,-0.65245 -0.1285,-0.45425 -0.16632,-1.09023 -0.19538,-3.28575 -0.0198,-1.49736 -0.0453,-3.26584 -0.0567,-3.92997 l -0.0207,-1.20749 -1.24389,0.0152 -1.24388,0.0152 -0.0108,-0.59136 c -0.006,-0.32525 -0.002,-0.6699 0.008,-0.76591 0.011,-0.10419 -0.0225,-0.14926 -0.0831,-0.1118 -0.0558,0.0345 -0.10933,0.36652 -0.11888,0.73781 -0.0152,0.58948 -0.0217,0.61258 -0.0518,0.18222 -0.019,-0.27107 -0.0745,-0.49286 -0.12346,-0.49286 -0.0489,0 -0.089,-0.0447 -0.089,-0.0994 0,-0.0547 0.0422,-0.0733 0.0939,-0.0414 0.0516,0.0319 0.0939,-0.024 0.0939,-0.12433 0,-0.15844 -0.22158,-0.2919 -0.49286,-0.29684 -0.0387,-7e-4 -0.0704,0.29048 -0.0704,0.64708 0,0.60497 -0.0127,0.64503 -0.19025,0.59861 -0.10463,-0.0274 -0.31586,-0.16709 -0.46939,-0.31051 -0.27122,-0.25336 -0.27915,-0.28576 -0.27915,-1.14099 0,-0.6457 0.039,-0.93597 0.14652,-1.08941 0.13538,-0.19328 0.12008,-0.32807 -0.20139,-1.7739 l -0.3479,-1.56473 0.20293,-0.16432 c 0.26261,-0.21265 1.24553,-0.42782 2.31211,-0.50614 1.43261,-0.1052 3.6035,0.20979 3.89888,0.56571 0.0887,0.10688 0.0506,0.45791 -0.17973,1.65699 l -0.29228,1.52139 0.23454,0.24481 c 0.21715,0.22665 0.23454,0.31224 0.23454,1.15439 v 0.90959 l -0.39898,0.28905 -0.39898,0.28906 0.0297,2.41053 c 0.0422,3.42425 0.15946,4.58826 0.57402,5.69629 0.15469,0.41343 0.41555,0.89184 0.4863,0.89184 0.0339,0 0.0827,0.0807 0.10848,0.17931 0.0258,0.0986 0.3154,0.38378 0.64358,0.63368 1.84702,1.40648 2.73142,2.67971 3.18478,4.58501 0.16679,0.70098 0.19214,1.02082 0.14875,1.87757 -0.0288,0.56797 -0.11131,1.24659 -0.18346,1.50805 -0.89357,3.23831 -3.72242,5.41059 -7.01051,5.38338 -0.80328,-0.007 -1.15948,-0.0597 -1.9245,-0.28675 z m 1.82213,-0.44841 c 0.0873,-0.0553 -0.0884,-0.0961 -0.51633,-0.1199 -0.35676,-0.0199 -0.6909,0.004 -0.74253,0.052 -0.0626,0.0588 -0.0626,0.0713 0,0.0376 0.0516,-0.0278 0.26286,-0.0178 0.46939,0.0224 0.52621,0.10226 0.63867,0.10338 0.78947,0.008 z m 0.59702,-0.0688 c -0.0636,-0.0257 -0.1903,-0.0273 -0.28164,-0.003 -0.0913,0.0238 -0.0393,0.0448 0.11556,0.0468 0.15491,0.002 0.22964,-0.0176 0.16608,-0.0433 z m -2.19864,-0.11542 c 0.0881,-0.0558 0.0167,-0.10079 -0.2347,-0.14778 -0.19873,-0.0371 -0.41593,-0.11266 -0.48266,-0.1678 -0.0868,-0.0718 -0.15333,-0.0683 -0.23391,0.0123 -0.16342,0.16343 0.085,0.29275 0.4447,0.23153 0.22006,-0.0375 0.25357,-0.0256 0.14524,0.0517 -0.11887,0.0847 -0.11154,0.10034 0.0469,0.10034 0.10326,0 0.24474,-0.0361 0.31439,-0.0802 z m -1.07916,-0.4844 c -0.0442,-0.0442 -0.0867,0.0318 -0.0949,0.16958 -0.0127,0.21471 -0.001,0.22591 0.0801,0.08 0.0524,-0.0937 0.059,-0.20542 0.0148,-0.24962 z m -1.06586,-0.0896 c -0.0745,-0.046 -0.15651,-0.0625 -0.18232,-0.0367 -0.0258,0.0258 0.014,0.0846 0.0884,0.1306 0.0745,0.046 0.1565,0.0625 0.18232,0.0367 0.0258,-0.0258 -0.014,-0.0846 -0.0884,-0.13062 z m 0.82535,-0.0467 c -0.0151,-0.0128 -0.17524,-0.094 -0.35596,-0.18056 -0.21247,-0.10172 -0.27104,-0.11095 -0.16575,-0.0261 0.0896,0.0721 0.14061,0.1534 0.11344,0.18057 -0.0272,0.0272 0.0597,0.0494 0.19313,0.0494 0.13338,0 0.23019,-0.0105 0.21514,-0.0233 z m -1.38692,-1.0094 c -0.37256,-0.37433 -0.78284,-0.86016 -0.91173,-1.0796 -0.1289,-0.21944 -0.25547,-0.39898 -0.28129,-0.39898 -0.0519,0 0.40128,0.80972 0.57793,1.03266 0.0614,0.0774 0.10035,0.25611 0.0866,0.39701 -0.0137,0.14091 0.0212,0.28474 0.0777,0.31962 0.0575,0.0356 0.0761,0.0205 0.0422,-0.0343 -0.0332,-0.0538 0.0104,-0.15535 0.097,-0.22574 0.13694,-0.11138 0.1496,-0.10729 0.0976,0.0315 -0.0386,0.10296 -0.0198,0.14417 0.053,0.11624 0.062,-0.0238 0.2394,0.0794 0.3942,0.22935 0.1548,0.14994 0.31807,0.27718 0.36283,0.28274 0.0448,0.006 -0.22345,-0.29615 -0.596,-0.67049 z m -0.47109,-0.16428 c 0,-0.0516 0.0422,-0.0939 0.0939,-0.0939 0.0516,0 0.0939,0.0422 0.0939,0.0939 0,0.0516 -0.0422,0.0939 -0.0939,0.0939 -0.0516,0 -0.0939,-0.0423 -0.0939,-0.0939 z m -0.80909,-1.36611 c 0.0321,-0.0836 0.0163,-0.12123 -0.0369,-0.0884 -0.051,0.0316 -0.0928,0.0971 -0.0928,0.1457 0,0.13504 0.0673,0.10528 0.1297,-0.0573 z m -0.0955,-0.3701 c -0.0296,-0.0771 -0.0962,-0.11412 -0.14789,-0.0822 -0.0578,0.0358 -0.045,0.0892 0.0333,0.13884 0.17093,0.10831 0.1768,0.10542 0.11459,-0.0567 z m -0.29078,-0.80358 c -0.17574,-0.57143 -0.1935,-0.60876 -0.2587,-0.54356 -0.0253,0.0253 0.0138,0.21185 0.0868,0.41463 0.073,0.20278 0.15804,0.44867 0.18895,0.54642 0.0309,0.0977 0.0751,0.15884 0.0982,0.13575 0.0231,-0.0231 -0.0288,-0.27205 -0.11526,-0.55324 z m -0.21277,-0.83983 c 0,-0.10327 -0.0383,-0.18776 -0.0851,-0.18776 -0.0468,0 -0.063,0.0845 -0.036,0.18776 0.027,0.10326 0.0653,0.18775 0.0851,0.18775 0.0198,0 0.036,-0.0845 0.036,-0.18775 z m -0.68885,-0.49286 c -0.026,-0.0645 -0.0473,-0.0117 -0.0473,0.11734 0,0.12908 0.0213,0.18189 0.0473,0.11735 0.026,-0.0645 0.026,-0.17015 0,-0.23469 z m 13.07386,-0.39063 c 0.0842,-0.10143 0.0835,-0.14881 -0.003,-0.20226 -0.0716,-0.0443 -0.0884,-0.0301 -0.046,0.0386 0.0368,0.0596 0.0223,0.10838 -0.0324,0.10838 -0.0547,0 -0.0994,0.0422 -0.0994,0.0939 0,0.12866 0.0511,0.11777 0.18082,-0.0386 z m -7.83191,-17.61055 c -0.25808,-0.1109 -0.4063,-0.1109 -0.23469,0 0.0774,0.0501 0.20418,0.0887 0.28163,0.0858 0.0928,-0.003 0.0769,-0.0326 -0.0469,-0.0858 z m -4.35793,14.30863 c 0.005,-0.10937 0.0268,-0.13161 0.0567,-0.0567 0.0271,0.0678 0.0238,0.14874 -0.007,0.17993 -0.0312,0.0312 -0.0534,-0.0242 -0.0493,-0.12321 z m 0.36193,-1.13693 c 0.13049,-0.26603 1.21292,-1.34303 1.34983,-1.34303 0.0576,0 -0.0681,0.15843 -0.27931,0.35205 -0.21118,0.19362 -0.56117,0.54214 -0.77775,0.7745 -0.21658,0.23234 -0.34833,0.32976 -0.29277,0.21648 z m 1.88374,-1.77315 c 0,-0.03 0.14259,-0.2307 0.31688,-0.44592 0.17429,-0.21523 0.38863,-0.53253 0.47631,-0.70514 0.0877,-0.17261 0.18056,-0.29271 0.20637,-0.26689 0.0258,0.0258 -0.0137,0.16704 -0.0879,0.31383 -0.0742,0.14679 -0.11632,0.33025 -0.0937,0.4077 0.0288,0.0986 0.0172,0.10707 -0.0389,0.0284 -0.0567,-0.0796 -0.13416,-0.0317 -0.26531,0.16402 -0.10188,0.15206 -0.21692,0.2766 -0.25565,0.27675 -0.0387,1.5e-4 -0.0704,0.0636 -0.0704,0.14108 0,0.0774 -0.0422,0.14082 -0.0939,0.14082 -0.0516,0 -0.0939,-0.0246 -0.0939,-0.0546 z m 1.15675,-1.48677 c -0.0859,-0.0979 -0.0612,-0.28609 0.11031,-0.84207 0.33255,-1.07785 0.42073,-2.09277 0.43727,-5.03294 0.0145,-2.58384 0.0176,-2.62566 0.0903,-1.22042 0.12827,2.48141 -0.19226,6.75925 -0.50644,6.75925 -0.0485,0 -0.0616,0.10561 -0.0292,0.23469 0.0668,0.26601 0.0536,0.27908 -0.10222,0.10149 z m 0.8221,-4.61548 c 0.005,-0.10936 0.0267,-0.1316 0.0567,-0.0567 0.0271,0.0678 0.0238,0.14874 -0.007,0.17993 -0.0312,0.0312 -0.0534,-0.0243 -0.0493,-0.12322 z"
           id="path938" />
        <g
           id="g1131"
           transform="translate(20.499173,1.0130668)">
          <path
             style="fill:#bdbdbd;fill-opacity:1;stroke-width:0.070906"
             d="m 150.75566,106.52078 c -0.34002,-0.0383 -0.62327,-0.35662 -0.62327,-0.70045 0,-0.1335 -0.0319,-0.24273 -0.0709,-0.24273 -0.039,0 -0.0629,-0.0399 -0.0532,-0.0886 0.01,-0.0487 -0.0192,-0.0816 -0.0643,-0.0731 -0.0859,0.0163 -0.0878,-0.15292 -0.003,-0.23801 0.0271,-0.0271 0.0493,-0.12042 0.0493,-0.20733 0,-0.0869 0.081,-0.23314 0.18003,-0.32498 0.099,-0.0918 0.23017,-0.27866 0.29146,-0.41515 0.14674,-0.32678 0.24,-0.71893 0.15909,-0.66893 -0.0348,0.0215 -0.0633,-0.03 -0.0633,-0.11444 0,-0.0937 -0.0345,-0.14033 -0.0886,-0.11957 -0.0526,0.0202 -0.0917,-0.0271 -0.0963,-0.1165 -0.009,-0.18102 -0.0582,-0.38981 -0.1311,-0.55823 -0.0295,-0.0682 -0.0347,-0.1736 -0.0115,-0.23412 0.0276,-0.0719 0.0137,-0.0924 -0.0399,-0.0593 -0.0549,0.0339 -0.0671,0.0116 -0.0369,-0.0672 0.0249,-0.0649 0.0125,-0.11799 -0.0276,-0.11799 -0.0401,0 -0.0555,-0.0281 -0.0343,-0.0624 0.0212,-0.0343 -0.0434,-0.21648 -0.14352,-0.40483 -0.19342,-0.36378 -0.19249,-0.6596 0.003,-0.87535 0.0553,-0.0611 0.10381,-0.14292 0.1079,-0.18192 0.004,-0.039 0.11006,-0.1985 0.23549,-0.35445 0.23241,-0.28894 0.30745,-0.53101 0.16521,-0.53296 -0.0507,-7e-4 -0.0536,-0.0197 -0.008,-0.0532 0.11137,-0.0818 0.21922,-0.32205 0.21437,-0.47753 -0.006,-0.1917 -0.25979,-0.604914 -0.34081,-0.554839 -0.0357,0.02208 -0.0299,-0.02542 0.013,-0.105554 0.0429,-0.08014 0.078,-0.259482 0.078,-0.39854 0,-0.201898 -0.0274,-0.252833 -0.1359,-0.252833 -0.0748,0 -0.152,0.03988 -0.17167,0.08863 -0.0207,0.05142 -0.0381,0.03478 -0.0414,-0.03964 -0.003,-0.07055 -0.0342,-0.110616 -0.0691,-0.08904 -0.0349,0.02158 -0.0818,-0.0084 -0.10413,-0.06672 -0.0223,-0.05827 -0.0914,-0.105952 -0.15343,-0.105952 -0.062,0 -0.0931,-0.03191 -0.0689,-0.07091 0.0241,-0.039 0.008,-0.07091 -0.0355,-0.07091 -0.0483,0 -0.0662,-0.08312 -0.0458,-0.212718 0.0184,-0.116995 0.004,-0.212719 -0.0312,-0.212719 -0.0356,0 -0.0647,0.02849 -0.0647,0.06332 0,0.111891 -0.20923,0.147948 -0.38741,0.06677 -0.0951,-0.04335 -0.22312,-0.178107 -0.28437,-0.299448 -0.0613,-0.121341 -0.17911,-0.306242 -0.26191,-0.410891 -0.14786,-0.186881 -0.14826,-0.195091 -0.0226,-0.46089 0.15556,-0.328997 0.52315,-0.678255 0.97193,-0.923439 0.1841,-0.10058 0.32136,-0.204496 0.30502,-0.230925 -0.0163,-0.02643 0.0385,-0.157475 0.12187,-0.291214 0.16312,-0.261717 0.21329,-0.420427 0.13288,-0.420427 -0.0276,0 -0.047,-0.192464 -0.0431,-0.427697 0.005,-0.315791 -0.0161,-0.418773 -0.0817,-0.393594 -0.0578,0.02217 -0.0735,-0.0059 -0.045,-0.08028 0.0297,-0.07728 0.0164,-0.0974 -0.0408,-0.06203 -0.0466,0.0288 -0.0801,0.02605 -0.0745,-0.0061 0.0329,-0.189275 -0.0275,-0.36601 -0.18192,-0.532547 -0.11867,-0.127987 -0.14729,-0.200356 -0.0886,-0.224122 0.0482,-0.01952 0.0301,-0.03758 -0.0409,-0.0407 -0.16949,-0.0074 -0.43445,-0.314396 -0.64748,-0.750112 -0.42703,-0.873425 -0.4384,-0.991971 -0.13934,-1.453575 0.0884,-0.136494 0.18088,-0.391756 0.20544,-0.567249 0.0246,-0.175492 0.11064,-0.526477 0.19129,-0.779967 0.25453,-0.800022 0.25155,-0.742977 0.0391,-0.749167 -0.30051,-0.0088 -0.47862,-0.10669 -0.48382,-0.266023 -0.0125,-0.383408 -0.0796,-0.72214 -0.15187,-0.766796 -0.0544,-0.03365 -0.044,-0.08354 0.0339,-0.161408 0.0688,-0.06877 0.1023,-0.194908 0.086,-0.323562 -0.0147,-0.115971 0.004,-0.229571 0.0406,-0.252444 0.037,-0.02287 0.0673,-0.0735 0.0673,-0.112494 0,-0.039 -0.0319,-0.05119 -0.0709,-0.02708 -0.039,0.0241 -0.0709,-0.0081 -0.0709,-0.0715 0,-0.08306 -0.0397,-0.102728 -0.14181,-0.07031 -0.15228,0.04833 -0.20086,-0.07071 -0.0532,-0.130305 0.0488,-0.01967 0.0168,-0.03828 -0.0709,-0.04136 -0.19128,-0.0067 -0.75872,-0.54563 -0.63373,-0.601866 0.0463,-0.02084 -0.0194,-0.02564 -0.14591,-0.01067 -0.12657,0.01497 -0.25115,-0.0068 -0.27686,-0.04841 -0.0296,-0.04781 -0.0126,-0.05453 0.0461,-0.01826 0.0601,0.03715 0.0757,0.02961 0.0441,-0.0214 -0.0268,-0.04332 -0.09,-0.0629 -0.14054,-0.04351 -0.0505,0.01939 -0.17895,0.0021 -0.2854,-0.03834 -0.10645,-0.04047 -0.17674,-0.04638 -0.15619,-0.01314 0.0488,0.07895 -0.32195,0.01186 -0.43697,-0.07908 -0.0616,-0.04866 -0.0886,-0.04142 -0.0886,0.0237 0,0.07293 -0.0189,0.07486 -0.0851,0.0087 -0.10022,-0.100227 -0.22512,-0.114574 -0.16611,-0.01908 0.0224,0.0363 0.008,0.08605 -0.0313,0.110544 -0.0396,0.02449 -0.0721,0.01676 -0.0721,-0.01718 0,-0.03395 -0.0651,-0.131552 -0.14457,-0.216903 -0.0795,-0.08535 -0.12626,-0.155182 -0.10387,-0.155182 0.0224,0 0.001,-0.07179 -0.0469,-0.159539 -0.0501,-0.09135 -0.0893,-0.43257 -0.0916,-0.79832 -0.004,-0.62199 -0.0102,-0.645589 -0.23971,-0.897796 -0.26038,-0.286131 -0.53872,-0.393088 -0.69197,-0.265899 -0.0548,0.04545 -0.0996,0.0548 -0.0997,0.02078 -5e-5,-0.03402 -0.1197,-0.06781 -0.2659,-0.07507 -0.4566,-0.02269 -0.61734,-0.05487 -0.7098,-0.142097 -0.0492,-0.04642 -0.15291,-0.07218 -0.23045,-0.05725 -0.0775,0.01493 -0.14097,8.04e-4 -0.14097,-0.03141 0,-0.04533 -0.19274,-0.127733 -0.33681,-0.144009 -0.0396,-0.0045 -0.34166,-0.326399 -0.40771,-0.434592 -0.3769,-0.617333 -0.39957,-0.701016 -0.38903,-1.436063 0.0145,-1.009329 0.73267,-2.17923 1.6111,-2.624361 0.19763,-0.100148 0.41941,-0.254938 0.49285,-0.343976 0.0734,-0.08904 0.2168,-0.209751 0.31858,-0.268248 0.10178,-0.0585 0.36454,-0.226014 0.58391,-0.372257 0.21937,-0.146244 0.43141,-0.265898 0.47121,-0.265898 0.0398,0 0.20475,-0.06755 0.36657,-0.1501 0.2409,-0.122899 0.35925,-0.140748 0.65306,-0.09849 0.19736,0.02838 0.51016,0.04647 0.69512,0.04019 0.53595,-0.01819 1.19674,0.321862 1.33672,0.687888 0.16145,0.422172 0.88364,0.36029 1.09931,-0.09419 0.0649,-0.136703 0.13378,-0.232715 0.15313,-0.213361 0.0194,0.01935 0.1827,-0.06721 0.36298,-0.192364 0.45858,-0.318356 0.65814,-0.415847 0.76628,-0.374349 0.0513,0.01969 0.0933,0.0084 0.0933,-0.02512 0,-0.07621 0.48721,-0.138147 0.51295,-0.06521 0.0341,0.09659 0.56085,-0.06701 0.73126,-0.227102 0.12442,-0.116888 0.29869,-0.170724 0.68448,-0.211464 0.28466,-0.03006 0.67711,-0.08809 0.8721,-0.128955 0.19499,-0.04086 0.60979,-0.09016 0.92178,-0.109535 0.31199,-0.01938 0.68825,-0.05577 0.83615,-0.08088 0.14789,-0.0251 0.30743,-0.01463 0.35453,0.02326 0.0471,0.0379 0.1973,0.0923 0.3338,0.120887 0.13649,0.02859 0.28008,0.07126 0.31908,0.09483 0.039,0.02357 0.11789,0.04994 0.17532,0.05861 0.0574,0.0087 0.1373,0.06074 0.1775,0.115717 0.0402,0.05497 0.20062,0.167709 0.35648,0.25052 0.33785,0.179506 0.60246,0.397352 0.60246,0.495995 0,0.03922 0.12352,0.16914 0.27449,0.288712 0.15098,0.119573 0.31577,0.321677 0.36621,0.449122 0.0505,0.127444 0.1394,0.287706 0.19769,0.356137 0.26536,0.311545 0.29435,1.378566 0.0533,1.961524 -0.09,0.217674 -0.18271,0.476468 -0.20601,0.5751 -0.0389,0.164532 -0.47296,0.726028 -0.47296,0.611772 0,-0.02742 -0.0844,0.0055 -0.18763,0.07308 -0.10321,0.06762 -0.25031,0.132507 -0.32692,0.144197 -0.0766,0.01169 -0.22458,0.08199 -0.32883,0.156228 -0.10425,0.07423 -0.31067,0.157695 -0.45871,0.185467 -0.33499,0.06284 -0.38286,0.177347 -0.20216,0.483603 0.25416,0.430771 0.32539,0.998935 0.17458,1.392545 -0.0595,0.155209 -0.0591,0.153813 -0.11948,0.442697 -0.0813,0.389097 -0.007,0.588375 0.26057,0.696525 0.12724,0.05147 0.2473,0.113011 0.2668,0.136756 0.0842,0.102532 0.60642,0.299856 1.04728,0.395723 0.26246,0.05707 0.55697,0.121553 0.65447,0.14329 0.0975,0.02174 0.22735,0.07694 0.28858,0.122679 0.16358,0.122194 0.63319,0.843148 0.63319,0.972078 0,0.06097 0.0339,0.144697 0.0752,0.186065 0.2684,0.268399 -0.21451,1.829222 -0.73853,2.387038 -0.31149,0.331573 -0.75739,0.497025 -1.39296,0.516857 -0.29249,0.0091 -0.60359,0.01901 -0.69134,0.02195 -0.0922,0.0031 -0.15954,0.05028 -0.15954,0.111717 0,0.0585 -0.0314,0.106359 -0.0698,0.106359 -0.0739,0 0.13875,0.515187 0.2293,0.555431 0.0293,0.013 0.0532,0.09365 0.0532,0.179215 0,0.08557 0.0534,0.231786 0.11862,0.324929 0.0652,0.09314 0.0825,0.147053 0.0384,0.119802 -0.0495,-0.03057 -0.043,0.02213 0.0169,0.137544 0.10646,0.205203 0.025,0.590988 -0.12772,0.605081 -0.29858,0.02755 -0.37108,0.02008 -0.41742,-0.04299 -0.0321,-0.04364 -0.0525,-0.03612 -0.0532,0.01955 -8.1e-4,0.06914 -0.051,0.06462 -0.21307,-0.01916 -0.11658,-0.06029 -0.23499,-0.10661 -0.26313,-0.102933 -0.0281,0.0037 -0.0741,-0.05152 -0.10211,-0.122649 -0.0433,-0.109896 -0.0517,-0.111682 -0.0559,-0.01189 -0.003,0.08171 -0.0481,0.106163 -0.1468,0.08036 -0.10014,-0.02619 -0.14181,-0.0022 -0.14181,0.08173 0,0.06834 0.0331,0.09834 0.078,0.07062 0.0562,-0.03475 0.0569,-0.0088 0.002,0.09285 -0.0415,0.07758 -0.0583,0.15823 -0.0373,0.179233 0.021,0.021 -0.0128,0.136875 -0.0752,0.257494 -0.0624,0.120619 -0.0942,0.219308 -0.0707,0.219308 0.0235,0 -0.0548,0.08206 -0.17399,0.182347 -0.11919,0.100291 -0.24707,0.163586 -0.28417,0.140656 -0.0371,-0.02293 -0.0875,-0.0093 -0.112,0.03037 -0.0245,0.03963 -0.10305,0.07206 -0.17458,0.07206 -0.0715,0 -0.1484,0.04786 -0.17085,0.106359 -0.0225,0.0585 -0.11361,0.106847 -0.20258,0.107444 -0.13045,8.85e-4 -0.14117,0.01439 -0.0554,0.06982 0.0639,0.0413 0.0726,0.06917 0.0219,0.06982 -0.0464,5.9e-4 -0.10715,-0.03566 -0.13491,-0.08056 -0.0352,-0.05701 -0.0779,-0.04417 -0.14128,0.04255 -0.0529,0.07231 -0.12699,0.101844 -0.17739,0.07069 -0.0565,-0.03489 -0.0683,-0.02394 -0.0341,0.03146 0.0289,0.04673 0.017,0.127726 -0.0264,0.179988 -0.10684,0.128744 -0.1185,0.608123 -0.0163,0.671275 0.0453,0.02797 0.0834,0.128838 0.0847,0.22415 0.002,0.166458 -0.0508,0.702575 -0.0768,0.775994 -0.007,0.0195 -0.009,0.05938 -0.004,0.08863 0.005,0.02925 -0.0235,0.05318 -0.0625,0.05318 -0.039,0 -0.0709,0.04975 -0.0709,0.110544 0,0.0608 -0.0266,0.09411 -0.0591,0.07403 -0.0613,-0.0379 -0.0655,-0.02088 -0.0899,0.371389 -0.008,0.130285 -0.0575,0.253282 -0.10974,0.273328 -0.0522,0.02005 -0.0772,0.06528 -0.0554,0.100522 0.0218,0.03524 -0.0342,0.09369 -0.12449,0.129888 -0.0903,0.0362 -0.13219,0.06832 -0.0932,0.07139 0.039,0.0031 0.0231,0.03639 -0.0355,0.07405 -0.0936,0.06026 -0.0916,0.09452 0.0164,0.285865 0.0702,0.124419 0.0854,0.194377 0.0354,0.163574 -0.048,-0.0296 0.0165,0.07719 0.14321,0.237322 0.12674,0.160129 0.23044,0.328319 0.23044,0.373757 0,0.04544 0.0283,0.06513 0.0629,0.04376 0.0346,-0.02137 0.10637,0.01463 0.15954,0.08 0.0856,0.105249 0.0804,0.112972 -0.0452,0.06746 -0.10447,-0.03786 -0.0888,-0.005 0.0597,0.124695 0.12175,0.106369 0.18058,0.21002 0.14859,0.261791 -0.0337,0.05447 -0.0231,0.06726 0.0289,0.03511 0.0567,-0.03507 0.0819,0.03772 0.0819,0.237215 0,0.158295 -0.0266,0.28781 -0.0591,0.28781 -0.0325,0 -0.0594,0.03988 -0.0598,0.08863 -2.6e-4,0.04875 -0.0253,0.165252 -0.0555,0.258897 -0.0434,0.134891 -0.0328,0.161834 0.051,0.129687 0.0891,-0.03417 0.0956,0.0044 0.0418,0.244223 -0.0352,0.15664 -0.111,0.39732 -0.16847,0.53485 -0.13439,0.32164 -0.13237,0.70732 0.006,1.24319 0.18144,0.70022 -0.0374,1.27119 -0.6282,1.63895 -0.10899,0.0678 -0.22532,0.19479 -0.25851,0.28209 -0.0778,0.2045 -0.2374,0.3352 -0.42686,0.34947 -0.0827,0.006 -0.20046,0.0667 -0.26173,0.13441 -0.0944,0.1043 -0.0989,0.17506 -0.0297,0.46355 0.10882,0.45363 0.12667,1.22158 0.0298,1.2836 -0.1279,0.0819 -0.18507,0.36686 -0.0953,0.47501 0.11699,0.14096 0.0197,0.52847 -0.1868,0.74401 -0.0934,0.0975 -0.20933,0.23024 -0.25761,0.29499 -0.0951,0.12757 -0.61463,0.202 -1.05991,0.15185 z m -0.53598,-8.900558 c -0.0227,-0.08674 -0.0543,-0.118648 -0.0702,-0.07091 -0.0159,0.04774 -0.0601,0.0868 -0.0981,0.0868 -0.038,0 -0.0495,-0.03191 -0.0254,-0.07091 0.0241,-0.039 -0.006,-0.07091 -0.0667,-0.07091 -0.12368,0 -0.12855,0.01238 -0.0675,0.171466 0.0237,0.06169 0.1164,0.112158 0.20608,0.112158 0.13361,0 0.1556,-0.02847 0.1218,-0.15771 z m -0.32365,-0.433174 c 0,-0.052 -0.042,-0.09454 -0.0934,-0.09454 -0.0698,0 -0.0736,0.02389 -0.015,0.09454 0.0432,0.052 0.0852,0.09454 0.0934,0.09454 0.008,0 0.0149,-0.04254 0.0149,-0.09454 z m 0.44907,-3.407724 c 0,-0.06726 -0.21225,-0.101163 -0.25008,-0.03994 -0.0231,0.0373 0.0238,0.06781 0.10409,0.06781 0.0803,0 0.14599,-0.01254 0.14599,-0.02787 z m 0.96705,-0.07849 c -0.0225,-0.0585 -0.01,-0.106359 0.0279,-0.106359 0.0378,0 0.0687,-0.03425 0.0687,-0.0761 0,-0.117703 -0.24757,-0.04221 -0.25278,0.07708 -0.006,0.142788 0.0337,0.211747 0.12273,0.211747 0.0409,0 0.0559,-0.04786 0.0335,-0.106359 z m 4.40763,-2.673159 c 0.11402,-0.11401 0.10747,-0.198538 -0.0154,-0.198538 -0.0553,0 -0.11476,-0.03988 -0.13224,-0.08863 -0.0175,-0.04875 -0.0284,0.01507 -0.0244,0.141812 0.008,0.24939 0.0405,0.276848 0.17198,0.145358 z m 0.156,-0.836692 c -0.0417,-0.078 -0.0839,-0.141812 -0.0937,-0.141812 -0.01,0 -0.0178,0.06382 -0.0178,0.141812 0,0.078 0.0421,0.141812 0.0937,0.141812 0.0717,0 0.0759,-0.03327 0.0178,-0.141812 z m 0.21272,-0.401341 c 0,-0.055 0.0491,-0.174926 0.1091,-0.266512 0.12816,-0.195586 0.11406,-0.31784 -0.0546,-0.473843 -0.0675,-0.06246 -0.10211,-0.134249 -0.0768,-0.159539 0.0469,-0.0469 0.0297,-0.0499 -0.40309,-0.06994 -0.22651,-0.01049 -0.2471,0.0048 -0.23594,0.175292 0.007,0.102732 0.0807,0.346028 0.16445,0.540659 0.12293,0.285746 0.18541,0.353872 0.32458,0.353872 0.10105,0 0.17235,-0.04137 0.17235,-0.09999 z m -6.41751,-2.07956 c 0.0249,-0.04019 -0.004,-0.05208 -0.0667,-0.02787 -0.12284,0.04714 -0.14531,0.09796 -0.0433,0.09796 0.0367,0 0.0862,-0.03154 0.11004,-0.07009 z m 0.47868,-0.473356 c -0.049,-0.01975 -0.0731,-0.06175 -0.0536,-0.09333 0.0688,-0.111295 -0.14864,-0.126057 -0.28574,-0.0194 -0.0934,0.0727 -0.10197,0.09544 -0.026,0.06958 0.062,-0.02114 0.15776,-0.01 0.21272,0.02483 0.055,0.03479 0.13184,0.06123 0.17083,0.05875 0.039,-0.0025 0.0308,-0.02067 -0.0182,-0.04042 z m 0.26634,-0.307423 c 0,-0.039 -0.0558,-0.07042 -0.12409,-0.06982 -0.10604,9.38e-4 -0.10862,0.01108 -0.0177,0.06982 0.13382,0.08648 0.14182,0.08648 0.14182,0 z m 0.0101,-0.283625 c 0.038,0 0.0495,0.03191 0.0254,0.07091 -0.0241,0.039 0.008,0.07091 0.0709,0.07091 0.0631,0 0.095,-0.03191 0.0709,-0.07091 -0.0241,-0.039 -0.007,-0.07091 0.0372,-0.07091 0.0445,0 0.0664,-0.03988 0.0485,-0.08863 -0.0179,-0.04875 -0.0764,-0.07831 -0.12999,-0.06569 -0.0536,0.01262 -0.0257,-0.04446 0.062,-0.126847 0.0877,-0.08239 0.15953,-0.169822 0.15953,-0.194302 0,-0.02448 -0.021,-0.02351 -0.0466,0.0021 -0.0257,0.02566 -0.0895,0.01112 -0.14181,-0.03232 -0.0523,-0.04344 -0.0956,-0.05114 -0.0962,-0.01711 -5.3e-4,0.03402 -0.0296,0.0168 -0.0645,-0.03827 -0.0532,-0.08398 -0.0839,-0.07961 -0.1906,0.02708 -0.12234,0.122347 -0.12123,0.125317 0.029,0.07763 0.11568,-0.03672 0.15623,-0.02074 0.15623,0.06155 0,0.06113 -0.0319,0.115126 -0.0709,0.120001 -0.0756,0.0095 -0.17919,0.03343 -0.2659,0.06158 -0.0292,0.0095 -0.0771,0.01348 -0.10636,0.0089 -0.0859,-0.01357 -0.0616,0.03829 0.0668,0.14246 0.0815,0.06612 0.1029,0.06891 0.0667,0.0087 -0.0335,-0.05578 -0.0123,-0.08863 0.0573,-0.08863 0.0657,0 0.11282,0.06471 0.11615,0.159539 0.003,0.08775 0.0217,0.119654 0.0414,0.07091 0.0197,-0.04875 0.0669,-0.08863 0.10494,-0.08863 z m -0.2365,-0.888202 c -0.0218,-0.02183 -0.0615,0.01752 -0.0881,0.08745 -0.0385,0.101055 -0.0303,0.109199 0.0397,0.03969 0.0485,-0.0481 0.0703,-0.105313 0.0484,-0.127144 z"
             id="path8819" />
          <path
             style="fill:#f3f3f3;fill-opacity:1;stroke-width:0.070906"
             d="m 152.03323,105.5077 c -0.0804,-0.0804 -0.14746,-0.20201 -0.14902,-0.27025 -0.002,-0.0885 -0.0332,-0.0681 -0.10862,0.0709 -0.0582,0.10725 -0.15263,0.195 -0.20988,0.195 -0.13012,0 -0.12887,-0.0677 0.005,-0.244 0.11416,-0.15094 0.13921,-0.435 0.0436,-0.49411 -0.0333,-0.0206 -0.0944,0.0369 -0.13581,0.12779 -0.0414,0.0909 -0.1389,0.18184 -0.21667,0.20218 -0.13491,0.0353 -0.13356,0.0222 0.0295,-0.28435 0.10261,-0.19299 0.17085,-0.44058 0.17085,-0.61992 0,-0.24385 0.0455,-0.34683 0.24809,-0.56165 0.13645,-0.14468 0.32923,-0.4015 0.42839,-0.57072 0.2211,-0.37728 0.34389,-0.43193 0.52753,-0.23481 0.296,0.31771 0.26598,0.81432 -0.0972,1.60778 -0.066,0.14416 -0.054,0.18458 0.0815,0.27454 0.15001,0.0996 0.23727,0.42864 0.0894,0.33728 -0.0382,-0.0236 -0.13568,-0.007 -0.21664,0.0359 -0.11027,0.059 -0.14177,0.1349 -0.12555,0.30253 0.0269,0.27832 -0.15028,0.33964 -0.36397,0.12595 z m 0.29699,-3.74682 c -0.44047,-0.14605 -0.40861,-0.31834 0.18312,-0.99007 0.26646,-0.30248 0.52063,-0.61762 0.56482,-0.70031 0.10783,-0.201771 0.2397,-0.901531 0.25227,-1.338687 0.0102,-0.35407 0.01,-0.354498 -0.20252,-0.329544 -0.11699,0.01374 -0.22867,0.0463 -0.24817,0.07235 -0.0519,0.06928 -0.43885,0.231962 -0.47228,0.198538 -0.0467,-0.04671 -0.0878,-0.318614 -0.10975,-0.726895 -0.0114,-0.211147 -0.0346,-0.384014 -0.0516,-0.38415 -0.017,-1.37e-4 -0.10641,0.07071 -0.19872,0.157432 -0.13605,0.127808 -0.17934,0.139082 -0.22852,0.05951 -0.0334,-0.05399 -0.0397,-0.14888 -0.014,-0.21086 0.17661,-0.426359 0.46279,-0.565172 0.56965,-0.276308 0.0559,0.151103 0.0589,0.150109 0.10543,-0.03545 0.0342,-0.136441 0.0931,-0.190604 0.2061,-0.189829 0.12814,8.79e-4 0.13798,0.01414 0.0518,0.06982 -0.0798,0.05154 -0.0827,0.06901 -0.0118,0.06982 0.052,5.98e-4 0.0799,0.04097 0.062,0.08972 -0.0179,0.04875 -0.0684,0.08066 -0.11226,0.07091 -0.0439,-0.0097 -0.0798,0.02913 -0.0798,0.08641 0,0.0654 -0.0462,0.09096 -0.12409,0.06871 -0.0682,-0.01948 -0.0443,0.0049 0.0532,0.05414 0.0975,0.04926 0.21943,0.130017 0.27096,0.179459 0.14049,0.134785 0.21776,0.109517 0.26717,-0.08737 0.0245,-0.0975 0.065,-0.179707 0.09,-0.182691 0.27801,-0.03315 0.50638,-0.160406 0.50638,-0.282171 0,-0.03163 -0.0877,-0.06761 -0.19499,-0.07995 -0.14683,-0.01689 -0.18925,-0.05571 -0.17172,-0.157131 0.0288,-0.16656 0.18202,-0.326195 0.31313,-0.326195 0.10012,0 0.426,0.509136 0.39387,0.615361 -0.01,0.03204 0.0259,0.210881 0.0791,0.397434 0.0875,0.306851 0.0842,0.36242 -0.0345,0.582886 -0.11431,0.212277 -0.11963,0.275785 -0.0413,0.492526 0.0762,0.210653 0.0712,0.315624 -0.0322,0.684254 l -0.12217,0.43543 0.17128,0.1292 c 0.10121,0.0763 0.17614,0.210631 0.18315,0.328241 0.007,0.10948 0.0344,0.28782 0.0619,0.39632 0.046,0.18151 0.0266,0.20646 -0.24232,0.31211 -0.17782,0.0699 -0.29233,0.16061 -0.29233,0.2317 0,0.1827 -0.14864,0.28705 -0.40889,0.28705 -0.13724,0 -0.33467,0.0698 -0.46444,0.16411 -0.21334,0.15511 -0.24223,0.15862 -0.52706,0.0642 z m 0.37404,-5.330631 c -0.0251,-0.04058 -0.0215,-0.07379 0.008,-0.07379 0.0294,0 -0.0514,-0.108263 -0.17964,-0.240584 -0.19963,-0.205971 -0.22174,-0.261957 -0.15367,-0.389147 0.1206,-0.225339 0.36721,-0.253371 0.66796,-0.07592 0.44976,0.265364 0.51835,0.661274 0.12951,0.747533 -0.10464,0.02321 -0.24342,0.05649 -0.30838,0.07396 -0.065,0.01746 -0.13864,-0.0014 -0.16373,-0.04204 z m -1.07675,-7.097774 c -0.10055,-0.100553 -0.47331,-0.162483 -0.41556,-0.06904 0.0259,0.04187 -0.0206,0.07332 -0.10827,0.07332 -0.10738,0 -0.1413,-0.03199 -0.11276,-0.106359 0.0321,-0.08369 -0.02,-0.106359 -0.24477,-0.106359 -0.15768,0 -0.26736,-0.02949 -0.2449,-0.06584 0.0224,-0.03621 -0.0316,-0.07609 -0.1199,-0.08863 -0.57243,-0.08126 0.43951,-1.876469 1.1363,-2.015825 0.12517,-0.02504 0.22759,-0.07344 0.22759,-0.107564 0,-0.03412 0.0452,-0.06204 0.10045,-0.06204 0.0553,0 0.11109,-0.03136 0.12409,-0.06969 0.013,-0.03833 0.11935,-0.08012 0.23635,-0.09288 0.21848,-0.02382 0.56672,-0.185943 0.40771,-0.18981 -0.0488,-0.0012 -0.0886,-0.05002 -0.0886,-0.108516 0,-0.0585 -0.0437,-0.106357 -0.0971,-0.106357 -0.15076,0 -0.0728,-0.410759 0.12794,-0.673924 0.16325,-0.214026 0.19105,-0.223977 0.49646,-0.177627 0.21498,0.03263 0.32623,0.02313 0.33157,-0.02829 0.0228,-0.219777 -0.007,-0.54632 -0.0833,-0.928264 -0.0852,-0.42363 -0.11269,-1.020128 -0.0719,-1.559933 0.0587,-0.775771 -0.16184,-1.510941 -0.57117,-1.904267 -0.27866,-0.267764 -0.2861,-0.286845 -0.23543,-0.604235 0.0288,-0.180259 0.0615,-0.465772 0.0727,-0.634478 0.019,-0.284969 0.005,-0.312036 -0.19394,-0.381462 -0.17275,-0.06022 -0.2082,-0.106931 -0.18265,-0.24064 0.0174,-0.09125 0.004,-0.149044 -0.0289,-0.128422 -0.0334,0.02062 -0.0607,-0.01225 -0.0607,-0.07305 0,-0.132055 -0.16198,-0.143437 -0.35205,-0.02474 -0.22284,0.139168 -0.53254,-0.0057 -0.54152,-0.253233 -0.004,-0.10978 0.0357,-0.216087 0.0882,-0.236235 0.0525,-0.02015 0.0778,-0.0652 0.0562,-0.100111 -0.0216,-0.03491 0.11421,-0.06605 0.30176,-0.06919 0.18754,-0.0031 0.61521,-0.01608 0.95036,-0.02874 0.65778,-0.02485 0.68681,-0.0167 0.86431,0.242765 0.065,0.09507 0.17299,0.180889 0.23989,0.190708 0.31262,0.04588 0.46488,0.115545 0.69593,0.318414 0.26471,0.232416 0.31097,0.374098 0.1524,0.466724 -0.15048,0.0879 -0.20387,0.344042 -0.0912,0.437549 0.12096,0.10039 0.30238,-0.07631 0.2182,-0.212525 -0.0362,-0.0585 -0.0171,-0.0722 0.0596,-0.04277 0.062,0.02381 0.15095,-0.0027 0.19758,-0.05886 0.0466,-0.05618 0.14656,-0.102143 0.22208,-0.102143 0.0755,0 0.1176,-0.03191 0.0935,-0.07091 -0.0241,-0.039 -0.01,-0.0709 0.0313,-0.0709 0.0413,0 0.0751,0.129215 0.0751,0.287145 0,0.15793 0.0516,0.386929 0.11466,0.508889 0.11206,0.216706 0.11041,0.224845 -0.0729,0.358369 -0.28113,0.204791 -0.40674,0.48198 -0.29047,0.640996 0.0509,0.06957 0.11264,0.244475 0.13726,0.388676 0.0246,0.144201 0.18845,0.549356 0.36406,0.900339 0.23982,0.479316 0.33945,0.780327 0.40029,1.209341 0.0755,0.532084 0.0708,0.590334 -0.0688,0.850873 -0.51729,0.966107 -0.51183,0.947832 -0.46935,1.570087 0.0373,0.546411 0.0292,0.593797 -0.12727,0.745593 -0.0919,0.08915 -0.21063,0.287555 -0.26384,0.440891 -0.0532,0.153337 -0.15638,0.342823 -0.22929,0.42108 -0.0729,0.07826 -0.13256,0.184131 -0.13256,0.235274 0,0.05114 -0.0255,0.09299 -0.0567,0.09299 -0.0312,0 -0.097,0.111678 -0.1464,0.248172 -0.0494,0.136494 -0.11161,0.250612 -0.13833,0.253596 -0.21345,0.02383 -0.33316,0.07496 -0.46455,0.19839 -0.0838,0.07876 -0.21435,0.134116 -0.29002,0.12301 -0.0757,-0.01111 -0.219,0.02227 -0.3185,0.07416 -0.16838,0.0878 -0.51399,0.07579 -0.78363,-0.02723 -0.208,-0.07948 -0.28362,-0.0764 -0.28362,0.01152 0,0.049 -0.0649,0.147866 -0.14431,0.219697 -0.082,0.07424 -0.12632,0.177498 -0.10262,0.239272 0.0229,0.05977 0.019,0.08599 -0.009,0.05827 -0.0277,-0.02772 -0.0876,-0.01953 -0.13306,0.0182 -0.0535,0.0444 -0.108,0.04327 -0.15448,-0.0032 z m 2.16186,-7.51867 c 0.0511,-0.08179 0.0747,-0.166881 0.0525,-0.189081 -0.0222,-0.0222 -0.0404,7.77e-4 -0.0404,0.05104 0,0.06927 -0.0235,0.07192 -0.097,0.01095 -0.13469,-0.111777 -0.29472,0.06851 -0.17081,0.192415 0.11472,0.114719 0.14858,0.106065 0.25561,-0.06532 z m 0.69786,-0.544411 c 0.0457,-0.02904 0.10495,-0.140232 0.13177,-0.247086 0.0268,-0.106856 0.0785,-0.194283 0.11478,-0.194283 0.0363,0 0.0249,-0.04451 -0.0254,-0.09892 -0.0503,-0.05441 -0.11536,-0.08443 -0.1446,-0.06672 -0.0293,0.01771 -0.0532,-0.0055 -0.0532,-0.05158 0,-0.0627 -0.0266,-0.06173 -0.10558,0.0038 -0.0581,0.04819 -0.0894,0.113859 -0.0695,0.145922 0.0198,0.03207 -0.0279,0.172034 -0.10593,0.311044 l -0.14196,0.252746 0.15833,-0.0011 c 0.0871,-5.9e-4 0.19568,-0.02485 0.24134,-0.05389 z m -7.47497,0.610458 c -0.16574,-0.03712 -0.30135,-0.0994 -0.30135,-0.138405 0,-0.03901 -0.0292,-0.05287 -0.0649,-0.03081 -0.0357,0.02206 -0.15535,-0.036 -0.2659,-0.129017 -0.11055,-0.09302 -0.2329,-0.176191 -0.2719,-0.184828 -0.039,-0.0086 -0.0651,-0.03804 -0.0579,-0.06534 0.007,-0.0273 -0.10446,-0.05755 -0.24803,-0.06722 -0.14357,-0.0097 -0.28891,-0.04546 -0.32299,-0.07954 -0.0341,-0.03408 -0.10593,-0.04509 -0.15968,-0.02446 -0.0538,0.02062 -0.0977,0.01015 -0.0977,-0.02327 1e-5,-0.03342 -0.30899,-0.05755 -0.68667,-0.05362 l -0.68668,0.0071 -0.29971,-0.276269 c -0.65759,-0.606149 -0.56203,-1.515894 0.2439,-2.321823 0.22831,-0.228307 0.43514,-0.359859 0.66855,-0.425208 0.31728,-0.08883 0.34283,-0.113945 0.41747,-0.410378 0.11197,-0.444663 0.5393,-0.95316 1.02999,-1.225611 0.54489,-0.302549 1.26776,-0.363541 2.01417,-0.169947 0.48388,0.1255 0.51564,0.146975 0.74298,0.502366 0.34767,0.543498 0.93347,0.800898 1.27627,0.560791 0.0786,-0.05507 0.33301,-0.155097 0.5653,-0.222294 0.2323,-0.06719 0.51256,-0.197633 0.62279,-0.289862 0.22235,-0.186029 0.30638,-0.207205 0.34635,-0.08729 0.0176,0.0527 0.0667,0.04049 0.14266,-0.03545 0.14482,-0.14482 0.22488,-0.14926 0.17125,-0.0095 -0.0225,0.05866 -0.002,0.106423 0.0456,0.1065 0.0482,8.1e-5 0.0943,0.110643 0.10423,0.249892 0.0147,0.206661 -0.0115,0.260895 -0.15211,0.314354 -0.0934,0.03553 -0.18124,0.09192 -0.19508,0.125302 -0.0138,0.03338 -0.14451,0.150673 -0.29037,0.260643 -0.14587,0.109968 -0.24768,0.228302 -0.22626,0.262961 0.0411,0.06654 -0.0882,0.08667 -0.41628,0.0648 -0.10928,-0.0073 -0.27171,0.0346 -0.36095,0.09307 -0.0892,0.05847 -0.30294,0.143923 -0.47491,0.189888 -0.33235,0.08884 -0.51388,0.235554 -0.59063,0.477366 -0.0259,0.08167 -0.14426,0.222808 -0.26297,0.313627 -0.11871,0.09082 -0.25325,0.199601 -0.29898,0.241734 -0.0457,0.04213 -0.11946,0.0645 -0.16385,0.0497 -0.0474,-0.01579 -0.0764,0.04498 -0.0703,0.147036 0.006,0.09567 0.0316,0.160868 0.0575,0.14489 0.0259,-0.01598 0.0885,0.06455 0.13914,0.178957 0.0506,0.114403 0.11359,0.194704 0.13989,0.178447 0.0263,-0.01626 0.0873,0.01795 0.13545,0.07602 0.0482,0.05807 0.12449,0.10558 0.16955,0.10558 0.045,0 0.13655,0.06381 0.20334,0.141811 0.0668,0.078 0.16345,0.141813 0.21483,0.141813 0.0514,0 0.14934,0.126778 0.2177,0.281729 0.13319,0.301868 0.14674,0.38814 0.0625,0.398288 -0.0293,0.0035 -0.17181,0.05936 -0.31681,0.124086 -0.14499,0.06472 -0.3125,0.117675 -0.37225,0.117675 -0.0598,0 -0.10864,0.02659 -0.10864,0.05909 0,0.0325 -0.0399,0.06345 -0.0886,0.06877 -0.0801,0.0087 -0.50754,0.08716 -0.97496,0.178855 -0.0975,0.01912 -0.26709,0.06962 -0.37687,0.112202 -0.10978,0.04258 -0.20551,0.07401 -0.21272,0.06983 -0.007,-0.0042 -0.14872,-0.03796 -0.31446,-0.07508 z m 9.59728,-0.08054 c -0.0676,-0.04945 -0.13756,-0.216417 -0.15543,-0.371056 -0.0179,-0.154636 -0.037,-0.32104 -0.0426,-0.369788 -0.006,-0.04875 -0.0367,-0.08863 -0.0692,-0.08863 -0.0325,0 -0.0591,-0.05743 -0.0591,-0.127631 0,-0.0702 -0.0369,-0.164568 -0.0821,-0.209714 -0.1044,-0.104393 0.0414,-0.30081 0.22336,-0.30081 0.0887,0 0.14785,0.09565 0.20822,0.336804 0.0464,0.185241 0.11581,0.457116 0.15431,0.60416 0.0385,0.147047 0.0524,0.295884 0.0308,0.330747 -0.0215,0.03487 -0.004,0.07526 0.0399,0.08977 0.0521,0.01737 0.0442,0.05535 -0.0231,0.111214 -0.0796,0.06606 -0.12944,0.06494 -0.22517,-0.0051 z m -6.26242,-0.596003 c -0.0219,-0.05694 -0.10708,-0.133245 -0.1894,-0.169566 -0.12191,-0.05378 -0.10459,-0.0612 0.0933,-0.03995 l 0.24303,0.02608 -0.17212,-0.143148 c -0.0959,-0.07979 -0.12024,-0.124401 -0.0549,-0.100794 0.0644,0.02329 0.17613,-0.0023 0.24817,-0.05688 0.1641,-0.124329 0.24776,-0.129845 0.22926,-0.01511 -0.008,0.04875 0.0101,0.144471 0.0399,0.212718 0.0803,0.183743 0.004,0.313462 -0.20888,0.354113 -0.12572,0.02403 -0.20194,0.0015 -0.22841,-0.06746 z m 6.61389,-2.181137 c 0.13523,-0.102284 0.13506,-0.104144 -0.01,-0.106358 -0.11061,-0.0017 -0.14325,-0.04231 -0.12999,-0.161794 0.01,-0.08775 0.0224,-0.159538 0.0281,-0.159538 0.006,0 0.0206,-0.103702 0.0331,-0.230446 0.0135,-0.137405 -0.01,-0.230883 -0.0577,-0.231529 -0.049,-6.7e-4 -0.0435,-0.0245 0.0143,-0.06111 0.0521,-0.03301 0.0868,-0.07241 0.0773,-0.08755 -0.034,-0.05372 0.16882,-0.595528 0.24021,-0.641783 0.0399,-0.02585 0.0812,-0.200361 0.0918,-0.387794 0.0297,-0.526759 0.25568,-0.619227 0.83794,-0.342925 0.13872,0.06583 0.23466,0.148089 0.2132,0.182808 -0.0215,0.03472 -0.0121,0.06312 0.0208,0.06312 0.0725,0 0.31267,0.393489 0.28948,0.474278 -0.009,0.03163 0.0181,0.121333 0.0604,0.19933 0.10068,0.18568 0.16321,0.879658 0.0837,0.928799 -0.034,0.02103 -0.0448,0.06575 -0.0241,0.09939 0.0208,0.03363 -0.0263,0.106085 -0.10475,0.160999 -0.0784,0.05491 -0.12517,0.117222 -0.10392,0.138463 0.0213,0.02124 -0.0547,0.07117 -0.16882,0.110938 -0.15617,0.05444 -0.29148,0.04465 -0.54746,-0.03963 -0.32657,-0.107507 -0.35063,-0.105835 -0.60793,0.04224 -0.30606,0.176148 -0.43992,0.204598 -0.23563,0.05008 z m -3.43371,-1.02458 c -0.13553,-0.08376 -0.0109,-0.289436 0.17544,-0.289436 0.0933,0 0.23466,-0.06498 0.31408,-0.144399 0.0794,-0.07942 0.17048,-0.128282 0.20235,-0.108582 0.0319,0.0197 0.0959,-0.04752 0.14233,-0.149371 0.0829,-0.18188 0.0937,-0.184391 0.60962,-0.140784 0.32247,0.02726 0.54214,0.01707 0.569,-0.02638 0.0722,-0.116901 0.5116,-0.272993 0.65952,-0.234311 0.10089,0.02638 0.12739,0.07737 0.0985,0.189516 -0.0592,0.22987 -0.21996,0.314547 -0.56354,0.296854 -0.21204,-0.01092 -0.2993,0.01014 -0.27749,0.06698 0.0297,0.07742 -0.15964,0.108692 -0.82244,0.135829 -0.10725,0.0044 -0.195,0.03267 -0.195,0.06284 0,0.03017 -0.0788,0.09074 -0.17504,0.134609 -0.0963,0.04386 -0.15994,0.104196 -0.14147,0.134069 0.0185,0.02987 -0.0224,0.04557 -0.0909,0.03488 -0.0684,-0.01068 -0.1909,0.0053 -0.27215,0.03543 -0.0813,0.03017 -0.18604,0.03119 -0.23285,0.0023 z"
             id="path8875" />
          <path
             style="fill:#757575;fill-opacity:1;stroke-width:0.070906"
             d="m 151.5968,104.85705 c -0.15338,-0.16949 -0.15142,-0.41069 0.004,-0.47026 0.10095,-0.0387 0.10481,-0.0575 0.0223,-0.10855 -0.0815,-0.0504 -0.0832,-0.0817 -0.009,-0.1707 0.0498,-0.06 0.15141,-0.12836 0.22589,-0.15199 0.0778,-0.0247 0.13622,-0.10882 0.13731,-0.19774 10e-4,-0.0851 0.0935,-0.26525 0.20547,-0.40028 l 0.20356,-0.24552 0.10958,0.26227 c 0.10205,0.24424 0.0987,0.30498 -0.0488,0.88367 -0.13022,0.51103 -0.18304,0.62238 -0.29733,0.62686 -0.0764,0.003 -0.20541,0.0274 -0.28661,0.0542 -0.1,0.033 -0.18583,0.007 -0.2659,-0.0819 z m 1.84147,-4.23206 c 0.0225,-0.0585 0.0892,-0.10636 0.14827,-0.10636 0.0875,0 0.091,0.0198 0.0192,0.10636 -0.0485,0.0585 -0.11527,0.10636 -0.14827,0.10636 -0.033,0 -0.0416,-0.0479 -0.0192,-0.10636 z m -0.0853,-0.979141 c -0.048,-0.12509 0.0119,-0.26171 0.11471,-0.26171 0.0718,0 0.0535,0.24997 -0.0239,0.32739 -0.0261,0.0261 -0.067,-0.003 -0.0908,-0.0657 z m 0.11657,-1.36667 c 0.003,-0.0826 0.0202,-0.0994 0.0428,-0.0428 0.0205,0.0512 0.018,0.11235 -0.006,0.13591 -0.0236,0.0236 -0.0403,-0.0183 -0.0372,-0.0931 z M 150.8409,87.985981 c 5.4e-4,-0.122072 0.39596,-0.443163 0.54584,-0.443163 0.15688,0 0.1485,0.207376 -0.0155,0.384359 -0.19908,0.214814 -0.53106,0.251626 -0.53031,0.0588 z m 4.08896,-3.042525 c -0.0261,-0.02607 -0.19905,-0.05015 -0.3844,-0.05351 -0.24957,-0.0045 -0.337,-0.0337 -0.337,-0.112465 0,-0.0585 -0.12579,-0.170175 -0.27953,-0.248171 -0.20635,-0.104687 -0.29528,-0.203015 -0.3397,-0.375592 -0.0331,-0.128579 -0.10673,-0.251647 -0.16363,-0.273484 -0.1318,-0.05057 -0.13437,-0.336055 -0.004,-0.444246 0.0764,-0.06339 0.10799,-0.06129 0.13621,0.009 0.0202,0.05038 0.0393,0.0065 0.0423,-0.09749 0.003,-0.103995 0.0301,-0.199718 0.0601,-0.212718 0.12143,-0.05268 0.36067,-0.428855 0.32758,-0.515079 -0.0195,-0.05083 0.0645,-0.192374 0.18668,-0.314552 0.28217,-0.282166 0.68788,-0.312246 0.84439,-0.0626 0.23522,0.375182 0.48465,0.967975 0.56487,1.342453 0.0788,0.36771 0.0728,0.43437 -0.0682,0.762241 -0.085,0.197611 -0.1813,0.359292 -0.21398,0.359292 -0.0327,0 -0.119,0.06396 -0.19183,0.142143 -0.0728,0.07818 -0.15376,0.120811 -0.17983,0.09474 z m -7.77656,-3.71128 c 0,-0.039 -0.0638,-0.07091 -0.14181,-0.07091 -0.078,0 -0.14181,-0.03722 -0.14181,-0.08272 0,-0.0455 -0.0207,-0.06202 -0.046,-0.03671 -0.0483,0.04827 -0.37919,-0.299644 -0.37934,-0.398819 -5e-5,-0.03155 -0.0341,-0.03633 -0.0757,-0.01062 -0.0416,0.02571 -0.11339,-0.0047 -0.15954,-0.06755 -0.0462,-0.06286 -0.16369,-0.12933 -0.26118,-0.147716 -0.45934,-0.08662 -0.5608,-0.123889 -0.67208,-0.246849 -0.13282,-0.14676 -0.12424,-0.478718 0.0162,-0.627184 0.14229,-0.150423 0.10293,-0.410225 -0.0984,-0.649501 -0.16593,-0.1972 -0.17684,-0.241343 -0.0966,-0.391182 0.0527,-0.09845 0.0719,-0.261236 0.0461,-0.390267 -0.0581,-0.290279 0.0826,-0.608422 0.41343,-0.935243 0.25604,-0.252932 0.51483,-0.353481 1.15806,-0.449938 0.27143,-0.0407 0.72235,0.144452 0.72235,0.296608 0,0.05528 0.0479,0.118872 0.10636,0.141319 0.12022,0.04613 0.14682,0.309266 0.0313,0.309266 -0.0413,0 -0.0554,-0.03191 -0.0313,-0.07091 0.0241,-0.039 -0.003,-0.07091 -0.0601,-0.07091 -0.11228,0 -0.0856,0.242704 0.045,0.409424 0.0389,0.04969 0.0507,0.110364 0.0263,0.13483 -0.05,0.05 0.19081,0.188555 0.44175,0.254176 0.12392,0.03241 0.17413,0.01006 0.20005,-0.08902 0.0713,-0.272508 0.57904,-0.02091 0.58552,0.290113 0.004,0.203346 -0.21352,0.551976 -0.37323,0.597545 -0.0859,0.02451 -0.35064,0.126838 -0.58829,0.227389 -0.40176,0.169992 -0.43271,0.199473 -0.44101,0.420043 -0.005,0.13047 0.0196,0.237218 0.0543,0.237218 0.0903,0 0.28263,0.632572 0.30187,0.992685 0.0122,0.228866 -0.0283,0.425546 -0.0809,0.393012 -0.0363,-0.02244 -0.0861,-0.0084 -0.11054,0.03127 -0.0576,0.09316 -0.3907,0.09414 -0.3907,0.0012 z m 5.79066,-0.401801 c -0.026,-0.026 -0.0473,-0.134262 -0.0473,-0.240585 0,-0.205065 0.13306,-0.303105 0.40771,-0.300404 0.0882,8.57e-4 0.15954,-0.04166 0.15954,-0.09507 0,-0.05315 -0.0449,-0.09664 -0.0997,-0.09664 -0.0648,0 -0.0867,-0.04964 -0.0626,-0.141812 0.0833,-0.318659 0.3244,-0.04544 0.29404,0.333256 -0.0241,0.300259 -0.0772,0.373114 -0.36547,0.500717 -0.23165,0.102557 -0.2251,0.10163 -0.2862,0.04053 z m -9.23155,-0.224222 c -0.23474,-0.09362 -0.38804,-0.356572 -0.38804,-0.665598 0,-0.182423 0.33158,-0.607333 0.57024,-0.73075 0.17351,-0.08972 0.20476,-0.08601 0.31662,0.03759 0.10438,0.115337 0.11251,0.182836 0.0512,0.424555 -0.095,0.374137 -0.054,0.507825 0.20036,0.653804 0.21138,0.121318 0.28293,0.329838 0.1202,0.35034 -0.31404,0.03957 -0.66709,0.01121 -0.87054,-0.06994 z"
             id="path8913" />
        </g>
      </g>
      <g
         id="g362"
         transform="translate(-2.572332,3.5046139)"
         style="opacity:0.74">
        <path
           style="fill:#3f3f3f;fill-opacity:1;stroke-width:0.052817"
           d="m 109.86292,124.36366 c 0.0354,-0.19346 -0.0841,-0.3953 -0.52508,-0.88762 -0.27328,-0.30507 -0.38605,-0.46342 -0.38553,-0.54141 5e-4,-0.0778 0.1328,-0.25914 0.45006,-0.61671 0.90197,-1.01655 0.78942,-1.14266 -0.51905,-0.58155 -0.52404,0.22473 -0.73049,0.28599 -0.92169,0.27353 -0.16088,-0.0105 -0.27993,0.0171 -0.34307,0.0794 -0.1125,0.11106 -0.28532,0.12183 -0.44063,0.0275 -0.17301,-0.10509 -0.22505,-0.22184 -0.14549,-0.32644 0.12374,-0.16267 0.008,-0.55776 -0.36476,-1.24869 -0.33808,-0.62609 -0.39976,-1.06721 -0.22728,-1.62537 0.63897,-2.06789 0.25112,-3.37339 -1.15669,-3.89342 -0.6691,-0.24719 -1.53386,-0.2396 -2.68258,0.0235 -0.27628,0.0633 -0.62233,0.14246 -0.76901,0.17594 l -0.2667,0.0609 -1.11133,-1.17701 c -1.353139,-1.43311 -1.855319,-2.03378 -1.967959,-2.35393 -0.0983,-0.27945 -0.0689,-0.96913 0.0745,-1.74605 0.44248,-2.39792 0.35218,-3.3231 -0.45866,-4.6992 -0.26165,-0.44408 -0.36775,-0.57619 -0.85776,-1.06805 -0.68404,-0.68661 -1.034402,-0.9075 -1.926982,-1.2148 -1.2354,-0.42536 -2.5696,-0.43029 -4.49406,-0.0166 l -0.566341,0.12175 -0.27108,-0.27457 c -0.30109,-0.30496 -1.95096,-2.16043 -2.69907,-3.035402 -0.88553,-1.03571 -1.19322,-1.44244 -1.18323,-1.56408 0.01081,-0.13166 0.10893,-0.43601 0.42252,-1.31052 0.30412,-0.84815 0.39649,-1.322079 0.39821,-2.043213 0.0015,-0.638889 -0.11059,-1.201649 -0.35271,-1.770653 -0.25602,-0.601603 -0.46809,-0.907315 -1.11144,-1.602212 -0.54911,-0.593067 -0.63882,-0.672994 -0.89439,-0.796792 -0.7865,-0.380951 -2.49015,-0.423277 -3.67826,-0.09139 -0.20445,0.05708 -0.57974,0.203109 -0.83399,0.324459 -0.50813,0.242542 -0.71699,0.276385 -0.85333,0.138278 -0.12331,-0.124898 -0.31373,-0.581966 -0.38896,-0.93363 -0.07999,-0.373933 -0.1909,-0.443242 -0.63133,-0.39454 -0.86626,0.09577 -1.11509,0.597374 -0.40843,0.823329 0.33127,0.105914 0.44909,0.06181 0.30985,-0.116021 -0.06339,-0.08092 -0.06878,-0.136196 -0.01814,-0.186207 0.15495,-0.152967 0.20686,0.01787 0.19124,0.629371 -0.0089,0.347488 0.0012,0.64935 0.02241,0.670821 0.0212,0.02148 0.14438,0.0363 0.27374,0.03293 l 0.23519,-0.0061 -0.1193,0.118116 c -0.25166,0.249207 -0.49857,0.10581 -0.56509,-0.32819 -0.04824,-0.314744 -0.12017,-0.357673 -0.15176,-0.09057 -0.04289,0.362661 -0.17891,0.78116 -0.31135,0.957941 -0.16232,0.216673 -0.41971,0.2944 -0.81465,0.245986 -0.3478,-0.04263 -0.61437,0.05394 -0.737,0.266959 -0.15639,0.271593 -0.25671,0.197257 -0.36896,-0.273374 l -0.07642,-0.320466 0.16378,0.08216 c 0.16097,0.08075 0.16771,0.0783 0.39099,-0.142127 0.17083,-0.168677 0.26446,-0.225954 0.37756,-0.230969 0.19153,-0.0085 0.19185,0.0343 7.9e-4,0.104357 -0.12985,0.04761 -0.14693,0.07028 -0.13147,0.174359 0.0213,0.143213 0.17459,0.208006 0.31849,0.134599 0.05245,-0.02675 0.16889,-0.17178 0.25876,-0.322325 0.08988,-0.150532 0.28742,-0.426943 0.439,-0.614237 0.29774,-0.367886 0.34622,-0.511976 0.20773,-0.617236 -0.08373,-0.06365 -0.11168,-0.04471 -0.50251,0.340405 -0.47962,0.472661 -0.60667,0.533447 -1.46237,0.699702 -0.2893,0.05619 -0.54993,0.137073 -0.57919,0.17974 -0.0671,0.09774 0.18411,0.690171 0.47003,1.108486 l 0.20808,0.304415 -0.57254,0.515314 c -0.6792,0.611266 -0.87897,0.905744 -1.22174,1.800739 -0.23976,0.626026 -0.40716,0.993396 -0.54879,1.204256 -0.10719,0.15959 -0.08429,0.33565 0.05167,0.39724 0.07055,0.032 0.1191,7.4e-4 0.25887,-0.16657 l 0.17204,-0.20591 -0.09009,0.27044 c -0.06627,0.19885 -0.13948,0.31287 -0.27666,0.43071 l -0.18654,0.16025 0.1089,0.21308 c 0.13889,0.27183 0.10224,0.35241 -0.443,0.97386 -0.23602,0.26905 -0.43598,0.5173 -0.44433,0.5517 -0.0092,0.038 0.0464,0.0608 0.14168,0.058 0.11483,-0.003 0.1787,0.0286 0.23828,0.11927 0.04477,0.0681 0.09887,0.12392 0.12025,0.12406 0.02136,1.3e-4 0.09689,-0.13316 0.16782,-0.29621 0.07094,-0.16306 0.2546,-0.47372 0.40812,-0.69034 0.33366,-0.47084 0.96959,-1.24446 1.02266,-1.24412 0.02079,1.5e-4 0.009,0.0286 -0.02612,0.0633 -0.14082,0.13902 -0.25193,0.62366 -0.18634,0.8127 0.06027,0.1737 0.07715,0.19077 0.21837,0.22114 0.2103,0.0452 0.50238,-0.1877 1.60659,-1.28112 0.87031,-0.86182 1.40459,-1.48076 1.75408,-2.032065 0.09838,-0.155219 0.21392,-0.297529 0.25676,-0.316277 0.05695,-0.02494 0.16496,0.04294 0.402,0.252663 0.94357,0.834839 1.96203,1.778199 2.88084,2.668409 l 1.02816,0.99617 -0.13456,0.17394 c -0.18552,0.23981 -0.42752,0.960672 -0.61672,1.837032 -0.32812,1.52004 -0.21785,2.64671 0.35455,3.62211 0.28921,0.49286 0.93274,1.21637 1.41221,1.58772 0.76868,0.59536 1.23295,0.7342 2.48161,0.74215 0.95718,0.006 1.93084,-0.1427 3.104,-0.47432 l 0.5879,-0.16618 1.78076,1.7496 c 0.979421,0.96226 2.176371,2.16217 2.659891,2.66642 1.03057,1.07478 1.04736,1.10549 0.7828,1.43295 -0.21281,0.26337 -0.58931,1.39156 -0.68941,2.06576 -0.11691,0.78737 -0.04191,1.26827 0.31924,2.04672 0.40248,0.86761 1.26819,1.83974 1.869592,2.09946 1.14446,0.49422 2.46479,0.46385 4.179639,-0.0961 0.99513,-0.32497 1.16246,-0.35464 1.35568,-0.24051 0.22986,0.1358 1.03605,0.82179 1.40711,1.1973 0.45255,0.45801 0.47702,0.56721 0.26864,1.19932 -0.42352,1.28481 -0.38345,1.94545 0.16106,2.65561 0.21135,0.27565 0.79154,0.66361 1.16315,0.77776 0.4708,0.14464 1.26496,0.12182 1.81634,-0.0522 0.90324,-0.28506 1.01279,-0.26901 1.6514,0.24179 0.51605,0.41279 0.69504,0.51462 0.94521,0.53776 0.23287,0.0216 0.32416,-0.0396 0.36116,-0.24208 z m -0.60169,-0.33349 c -0.0714,-0.0724 -0.13854,-0.17313 -0.1491,-0.2239 -0.0135,-0.0648 0.0527,-0.0195 0.22197,0.15195 0.16926,0.17144 0.21372,0.23822 0.14911,0.2239 -0.0507,-0.0112 -0.15055,-0.0796 -0.22198,-0.15195 z m -0.99287,-1.24408 c -0.14529,0.0223 -0.31986,0.0232 -0.38792,0.002 -0.11938,-0.037 -0.11774,-0.0424 0.0464,-0.15318 0.31689,-0.2138 0.63107,-0.26011 0.69977,-0.10314 0.0549,0.1255 -0.0625,0.20882 -0.3583,0.25416 z m -1.30379,0.61841 c -0.76404,0.24643 -1.38848,0.21466 -1.78199,-0.0907 -0.15134,-0.11742 -0.2849,-0.17175 -0.45163,-0.18364 -0.3564,-0.0254 -0.49656,-0.22323 -0.29746,-0.41981 0.13686,-0.13512 1.03536,0.11051 1.48539,0.40608 0.28601,0.18785 0.49379,0.19306 0.81705,0.0205 0.34789,-0.18569 0.58214,-0.2457 0.65828,-0.16858 0.15348,0.15545 0.0198,0.29119 -0.42964,0.43614 z m -0.5252,-0.62134 c -0.39882,0.0449 -0.77226,-0.0606 -0.98819,-0.27933 -0.0991,-0.10034 -0.20135,-0.25166 -0.22731,-0.33627 -0.11701,-0.38157 0.0233,-0.88302 0.24668,-0.8816 0.18718,10e-4 0.44644,0.187 0.89653,0.64245 0.51007,0.51615 0.60682,0.68377 0.44338,0.76825 -0.0608,0.0314 -0.22778,0.0703 -0.37109,0.0865 z m -0.24767,-1.62958 c -0.46097,-0.35726 -1.86,-1.77882 -2.02286,-2.05544 -0.0713,-0.12104 -0.12615,-0.28076 -0.12197,-0.35496 0.0109,-0.19388 -0.0789,-0.2578 -0.33539,-0.23864 l -0.22528,0.0168 0.1595,-0.13743 c 0.28569,-0.24616 0.42221,-0.14149 1.52694,1.17079 0.90454,1.07447 1.48702,1.85803 1.38071,1.85735 -0.0156,-1.1e-4 -0.17837,-0.11643 -0.36165,-0.25848 z m -1.76395,1.2193 c -0.30146,-0.13769 -0.50068,-0.62423 -0.46095,-1.12564 0.0306,-0.38666 0.22514,-0.99566 0.34316,-1.07446 0.12431,-0.083 0.33673,0.015 0.59344,0.27377 0.20972,0.21145 0.22493,0.24182 0.15544,0.31044 -0.11654,0.11505 -0.18303,0.36757 -0.2267,0.86101 -0.0576,0.65089 -0.17054,0.8617 -0.40439,0.75488 z m 1.21171,-3.23158 c -0.13713,-0.0465 -0.33483,-0.15038 -0.43931,-0.23091 -0.24556,-0.18925 -0.27375,-0.39356 -0.11818,-0.85631 0.0824,-0.24519 0.0948,-0.37896 0.0453,-0.49035 -0.054,-0.12149 -0.0463,-0.17021 0.0373,-0.23558 0.0981,-0.0767 0.0946,-0.0924 -0.0507,-0.22781 -0.33273,-0.31011 -1.13755,-0.54431 -1.30437,-0.37961 -0.0215,0.0212 -0.18422,0.0599 -0.36163,0.0859 -0.38093,0.0559 -1.00962,0.2955 -1.87638,0.71503 -0.34525,0.16714 -0.77849,0.35253 -0.96274,0.412 -0.31725,0.10243 -0.33398,0.10137 -0.31632,-0.0197 0.0138,-0.095 0.0845,-0.18225 0.27514,-0.33986 0.245,-0.20252 0.40936,-0.27603 0.98783,-0.44176 0.19516,-0.0559 0.31512,-0.1302 0.4916,-0.30446 0.19804,-0.1955 0.26654,-0.23313 0.45134,-0.24784 0.17921,-0.0143 0.21487,-0.033 0.20097,-0.10564 -0.0234,-0.12205 -0.27694,-0.30375 -0.43643,-0.31273 -0.0726,-0.004 -0.20321,0.0427 -0.29022,0.10394 -0.27597,0.1943 -0.45256,0.26895 -0.87626,0.37046 -0.28576,0.0685 -0.45982,0.14282 -0.56529,0.24148 -0.13863,0.12964 -0.16635,0.13424 -0.30637,0.0506 -0.12208,-0.0729 -0.16122,-0.0728 -0.18901,2.9e-4 -0.0643,0.16906 -0.27433,0.31451 -0.61065,0.42279 -0.18315,0.059 -0.47557,0.1782 -0.64979,0.26492 -0.17425,0.0867 -0.41407,0.17012 -0.53298,0.18533 -0.29861,0.0383 -0.91725,-0.18085 -1.23514,-0.43746 -0.30047,-0.24256 -0.45272,-0.26275 -0.573842,-0.0761 -0.07135,0.10997 -0.10439,0.12116 -0.21219,0.0719 -0.07025,-0.0321 -0.19413,-0.13786 -0.27529,-0.23503 -0.08118,-0.0972 -0.2701,-0.32296 -0.41983,-0.50169 -0.34674,-0.41393 -0.65897,-0.91078 -0.64714,-1.02977 0.005,-0.0507 0.06216,-0.13445 0.12693,-0.18609 0.11429,-0.0911 0.11266,-0.0991 -0.05536,-0.26928 -0.26175,-0.26511 -0.25944,-0.49518 0.01698,-1.69294 0.20055,-0.86897 0.33299,-1.18777 0.48007,-1.15554 0.04846,0.0106 0.18392,0.12511 0.30101,0.25441 l 0.21295,0.23513 -0.14977,0.14902 c -0.22155,0.22046 -0.25714,0.33347 -0.18646,0.59193 0.04765,0.17422 0.04016,0.25645 -0.02966,0.32536 -0.35045,0.346 -0.17855,1.51349 0.2554,1.73473 0.40434,0.20616 0.717342,-0.30994 0.46151,-0.76098 -0.14819,-0.26125 -0.17357,-0.42979 -0.11718,-0.7781 0.05176,-0.31965 0.2296,-0.72444 0.339442,-0.77251 0.13079,-0.0573 0.17733,0.0897 0.1828,0.57709 0.003,0.27184 0.0189,0.50774 0.0351,0.52424 0.0163,0.0165 0.0869,-0.048 0.15686,-0.14338 0.25436,-0.3465 0.67024,-0.31107 1.21795,0.10374 0.52688,0.39903 1.63582,1.59244 1.63475,1.75929 -7.5e-4,0.1171 -0.29839,0.18753 -0.82937,0.19625 -0.95697,0.0157 -1.85768,-0.16229 -2.11207,-0.4174 -0.16859,-0.16903 -0.27034,-0.17951 -0.31588,-0.0325 -0.08021,0.25892 0.41089,0.81186 0.84597,0.9525 0.1538,0.0497 0.22221,0.041 0.30535,-0.0388 0.0589,-0.0566 0.14271,-0.0892 0.18618,-0.0725 0.46169,0.17755 0.93789,0.25364 1.31219,0.20968 0.1407,-0.0165 0.23187,-0.0541 0.23214,-0.0958 5.8e-4,-0.0902 0.17192,-0.17855 0.65007,-0.3351 0.46909,-0.15357 1.27545,-0.53544 1.40887,-0.66717 0.13543,-0.13371 0.88093,-0.3537 1.46506,-0.43231 1.2621,-0.16991 2.08455,-0.12398 2.59897,0.14505 0.22043,0.11527 0.28435,0.27782 0.26932,0.68498 l -0.01,0.26959 -0.10358,-0.15749 c -0.29093,-0.44235 -0.28779,-0.43974 -0.52689,-0.44127 -0.24486,-0.002 -0.41748,0.11775 -0.40354,0.2789 0.0121,0.13977 0.19585,0.18513 0.38527,0.0951 0.17446,-0.0829 0.16045,-0.0888 0.25262,0.10525 0.0538,0.11324 0.15569,0.19898 0.4387,0.36915 0.45116,0.27132 0.6396,0.44992 0.55882,0.52966 -0.0317,0.0313 -0.15101,0.0322 -0.26513,0.002 -0.24257,-0.0642 -0.31204,-0.0253 -0.18489,0.10349 0.0497,0.0503 0.11613,0.14989 0.14762,0.22125 0.0494,0.11179 0.0373,0.14392 -0.087,0.2323 -0.17275,0.12283 -0.17625,0.24544 -0.017,0.59646 0.10512,0.23178 0.0973,0.38387 -0.0213,0.41106 -0.0854,0.0196 -0.0884,0.20111 -0.005,0.28585 0.11731,0.11881 -0.0287,0.14499 -0.29859,0.0535 z m -1.11751,-3.44248 c -0.0789,-0.0799 -0.59411,-0.0365 -0.80434,0.0677 -0.20788,0.10305 -0.24109,0.23846 -0.0686,0.27966 0.30789,0.0736 1.01189,-0.20658 0.87292,-0.34735 z m -1.16501,0.49215 c 8e-4,-0.12445 -0.17509,-0.2961 -0.29296,-0.28592 -0.075,0.007 -0.0912,0.0537 -0.0775,0.22579 0.01,0.11967 0.0495,0.23981 0.0888,0.26698 0.0882,0.0609 0.28084,-0.0805 0.28164,-0.20685 z m 0.69869,1.57823 c -0.22216,-0.23989 -0.36605,-0.43162 -0.37148,-0.49497 -0.0135,-0.15815 0.19415,-0.26555 0.40963,-0.21183 0.36385,0.0906 0.60876,0.49488 0.57176,0.9437 -0.0212,0.2571 -0.0222,0.25858 -0.13431,0.20681 -0.0621,-0.0287 -0.27614,-0.22835 -0.4756,-0.44371 z m -3.39878,-2.13794 c -0.30897,0.0985 -0.15521,0.24709 -5.627701,-5.43864 -0.46813,-0.48638 -0.5744,-0.53579 -0.45888,-0.21337 0.06804,0.18993 -2.7e-4,0.35468 -0.13423,0.32375 -0.04516,-0.0104 -0.1463,-0.0834 -0.22472,-0.16223 -0.10951,-0.11003 -0.142251,-0.19578 -0.14114,-0.36954 0.0021,-0.33036 -0.07864,-0.56056 -0.20092,-0.57271 -0.05364,-0.005 -0.11971,0.0122 -0.14678,0.0389 -0.08858,0.0875 -0.23084,-0.0421 -0.65187,-0.59333 -0.22813,-0.29872 -0.56605,-0.74123 -0.750935,-0.98336 -0.296545,-0.38838 -0.335969,-0.46514 -0.334487,-0.65113 9.27e-4,-0.11599 0.03932,-0.25733 0.08533,-0.31407 0.0836,-0.10316 0.08384,-0.10303 0.395685,0.21957 0.17162,0.17755 0.49714,0.52417 0.72336,0.77027 0.36589,0.39803 0.41702,0.43964 0.46292,0.37664 0.05983,-0.0821 0.12657,-0.0462 0.59709,0.32104 0.99432,0.77617 3.624959,3.35577 4.846569,4.7525 0.54201,0.61971 1.481399,1.75189 1.787259,2.15407 0.15066,0.19812 0.13111,0.22761 -0.22655,0.34163 z m -2.446899,-3.34643 c -0.147401,-0.25917 -0.550651,-0.57966 -0.60225,-0.47867 -0.049,0.0959 0.18411,0.40558 0.40048,0.53198 0.22057,0.12888 0.29431,0.10938 0.20177,-0.0533 z m -0.4503,0.20804 c -0.22005,-0.28667 -0.55818,-0.55054 -0.60002,-0.46826 -0.0431,0.0848 0.257,0.4826 0.476569,0.6317 0.27837,0.18905 0.335751,0.11309 0.123451,-0.16344 z m -0.31806,-2.14979 c -0.44066,-0.34676 -0.67942,-0.66106 -0.677941,-0.89235 9.4e-4,-0.1481 0.0218,-0.1857 0.11858,-0.21435 0.23386,-0.0692 0.3194,-0.44707 0.24669,-1.08979 -0.0879,-0.77743 -0.36247,-1.50598 -0.694072,-1.84184 -0.12886,-0.13056 -0.15878,-0.19508 -0.13139,-0.28346 0.07465,-0.241 -0.43184,-0.57198 -1.36383,-0.8912 -0.502179,-0.17201 -1.18597,-0.30251 -1.25062,-0.23866 -0.0973,0.0961 -3.708071,0.85452 -3.7076,0.7788 4.5e-4,-0.068 0.841178,-0.67356 1.128157,-0.81257 0.45974,-0.22269 0.656627,-0.27259 1.127971,-0.28588 0.677383,-0.0191 0.675163,-0.14741 -0.0066,-0.37934 -0.386107,-0.13136 -0.761062,-0.15319 -0.8652,-0.0504 -0.115809,0.11434 -0.349626,0.15127 -0.642122,0.10142 -0.350539,-0.0598 -0.405845,-0.0362 -0.307294,0.13083 0.03806,0.0645 0.04974,0.13647 0.02594,0.15994 -0.0238,0.0235 -0.26568,0.0452 -0.537519,0.0482 -0.27183,0.003 -0.524411,0.0353 -0.56127,0.0717 -0.03685,0.0364 -0.06986,0.14202 -0.07335,0.23472 -0.0075,0.20072 -0.054,0.20669 -0.40194,0.0515 -0.36833,-0.1643 -0.46525,-0.12636 -0.44029,0.17238 0.0179,0.21412 0.01125,0.23127 -0.06175,0.15913 -0.11184,-0.11055 -0.406949,-0.0675 -0.55772,0.0814 -0.31117,0.3072 -0.4349,0.27629 -0.71516,-0.17864 -0.16616,-0.26971 -0.25964,-0.30347 -0.221279,-0.0799 0.01463,0.0852 0.03091,0.26707 0.03622,0.40426 l 0.0096,0.24942 -0.14487,-0.0552 c -0.08012,-0.0306 -0.21603,-0.0225 -0.30415,0.018 -0.36929,0.16974 -0.42625,0.16894 -0.85382,-0.0121 -0.26632,-0.11276 -0.50957,-0.17442 -0.66515,-0.16862 -0.23878,0.009 -0.27142,-0.006 -0.70766,-0.33258 -0.07135,-0.0533 -0.23612,-0.10249 -0.36619,-0.10921 -0.20106,-0.0104 -0.25207,-0.0353 -0.340591,-0.16652 -0.08338,-0.12357 -0.13853,-0.1556 -0.2771,-0.16081 -0.22744,-0.009 -0.32228,-0.16858 -0.27949,-0.47168 0.03899,-0.27634 -0.0062,-0.34147 -0.12974,-0.1872 -0.07548,0.0942 -0.10961,0.10027 -0.195599,0.0347 -0.202691,-0.15462 -0.299391,-0.45437 -0.413121,-1.28077 -0.13029,-0.94654 -0.15082,-1.57991 -0.05432,-1.6752 0.06687,-0.066 0.37853,-0.0766 0.57326,-0.0195 0.10525,0.0309 0.10327,0.0328 -0.07876,0.0785 -0.16288,0.0408 -0.18419,0.0584 -0.167,0.13795 0.01083,0.0501 0.04805,0.10453 0.08268,0.12087 0.03464,0.0163 0.15552,0.1015 0.26862,0.18927 0.19241,0.1493 0.20654,0.1772 0.21962,0.43351 0.0194,0.38059 0.11769,0.56149 0.59022,1.08629 0.55922,0.62107 0.97854,0.89561 1.42094,0.93037 0.17228,0.0135 0.40204,0.0732 0.51056,0.13257 0.25576,0.13995 0.71376,0.16416 1.65086,0.0872 1.20171,-0.0986 1.22802,-0.10343 1.32162,-0.24104 0.07191,-0.10565 0.09521,-0.11029 0.17058,-0.034 0.1175,0.11902 0.28906,0.10471 0.30196,-0.0252 0.01286,-0.12934 0.19778,-0.19639 0.80257,-0.29098 0.26212,-0.041 0.934804,-0.16864 1.494838,-0.2836 0.560059,-0.11497 1.063743,-0.20404 1.119293,-0.1979 0.05559,0.006 0.18831,0.056 0.29498,0.11084 0.1303,0.067 0.26038,0.0833 0.39636,0.0497 0.29172,-0.072 0.62302,-0.0712 0.65807,0.002 0.01719,0.0356 -0.0331,0.12511 -0.11659,0.20755 -0.13026,0.12859 -0.13717,0.15723 -0.06135,0.25423 0.06697,0.0857 0.18215,0.11067 0.53316,0.11564 0.36482,0.005 0.59526,0.0579 1.24434,0.28491 1.099539,0.38451 1.535329,0.60955 1.795649,0.92727 0.53473,0.65267 1.05563,2.32906 1.03468,3.32988 -0.009,0.41866 -0.0994,0.82879 -0.20663,0.93461 -0.0599,0.0591 -0.14772,0.63101 -0.14065,0.9157 0.003,0.10922 -0.0229,0.1853 -0.0623,0.18505 -0.0368,-2.5e-4 -0.21501,-0.11699 -0.39603,-0.25944 z m -4.021782,-6.49456 c -0.08556,-0.19387 -0.22004,-0.24543 -0.440551,-0.16889 -0.340819,0.11826 -0.286559,0.42563 0.08663,0.49086 0.25739,0.045 0.44184,-0.12282 0.353921,-0.32197 z m 1.74608,7.24627 c -0.04913,-0.0627 -0.06874,-0.12707 -0.04359,-0.14294 0.05628,-0.0356 0.25067,0.11257 0.30189,0.23008 0.03455,0.0792 0.0291,0.0839 -0.06566,0.0567 -0.05684,-0.0164 -0.14353,-0.0811 -0.19264,-0.14381 z m 0.80463,-2.20273 c -0.58179,-0.24268 -1.34681,-0.96859 -2.19462,-2.08246 -0.204,-0.26803 -0.52889,-0.65672 -0.72194,-0.86375 -0.19306,-0.20703 -0.34051,-0.38711 -0.327611,-0.40022 0.01286,-0.0131 0.33013,-0.0149 0.70504,-0.004 0.73342,0.0212 1.11023,0.12211 1.59781,0.42794 0.42914,0.26918 0.74956,0.61857 0.9797,1.06825 0.33251,0.64973 0.465482,1.6352 0.24943,1.8485 -0.06802,0.0672 -0.13741,0.0686 -0.28781,0.006 z m -6.803071,-2.62471 c -0.04509,0.0198 -0.11182,0.006 -0.14826,-0.0312 -0.07591,-0.0769 -0.0393,-0.18388 0.11504,-0.33626 0.14199,-0.14017 0.22397,-0.11284 0.22277,0.0743 -0.001,0.15748 -0.04898,0.2317 -0.18955,0.29323 z m -0.1497,-2.88891 c -0.0959,-0.0491 -0.51636,-0.3938 -0.93439,-0.76606 -0.44809,-0.39904 -0.81574,-0.69387 -0.89579,-0.71841 -0.12632,-0.0387 -0.13584,-0.033 -0.1365,0.0819 -6e-4,0.10542 0.09424,0.2197 0.64729,0.77987 0.35639,0.36098 0.63916,0.66429 0.62837,0.67405 -0.03625,0.0327 -0.56185,-0.0922 -0.64277,-0.15273 -0.11111,-0.0832 -0.98866,-1.17504 -1.14466,-1.42425 -0.54521,-0.87101 -2.18651,-2.736592 -2.30482,-2.619802 -0.04767,0.0471 0.19194,0.38742 1.05267,1.495292 0.37902,0.48785 0.56691,0.84519 0.54849,1.04322 -0.01862,0.19985 0.23245,0.57169 0.72162,1.06886 0.35998,0.36583 0.73693,0.86381 0.73672,0.97322 -3.7e-4,0.18213 -0.93557,0.17777 -1.67491,-0.008 -0.54593,-0.13702 -0.69633,-0.27765 -0.85558,-0.80002 -0.14297,-0.469 -0.1719,-1.60182 -0.04411,-1.72799 0.04708,-0.0465 0.15231,-0.0455 0.29791,0.003 0.12384,0.041 0.23987,0.0601 0.25788,0.0423 0.12154,-0.12 -0.48761,-0.99456 -1.00769,-1.446732 -0.18916,-0.16446 -0.47288,-0.4105 -0.63048,-0.54675 -0.24875,-0.21505 -0.29021,-0.27207 -0.31409,-0.43213 -0.04488,-0.3009 -0.59675,-1.08207 -1.42403,-2.01571 -0.26661,-0.30086 -0.40749,-0.43267 -0.43424,-0.40628 -0.02178,0.0215 -0.02126,0.0577 0.0012,0.0804 0.08606,0.0872 0.16932,0.41926 0.11785,0.47007 -0.14472,0.14287 -0.86241,-0.41979 -0.91254,-0.71541 -0.01317,-0.0777 -0.0023,-0.16272 0.02426,-0.18892 0.07003,-0.0691 -0.02576,-0.29 -0.24317,-0.560585 -0.2511,-0.312532 -0.33688,-0.512552 -0.24588,-0.573312 0.14892,-0.09943 0.43764,0.12008 1.44534,1.098977 0.53666,0.52133 0.98756,0.9362 1.00203,0.92192 0.01445,-0.0143 -0.04768,-0.14423 -0.13807,-0.28879 -0.12139,-0.19411 -0.16143,-0.32436 -0.15316,-0.49821 0.0061,-0.12947 -0.02229,-0.31924 -0.06323,-0.42171 -0.06773,-0.169592 0.0409,-0.07043 1.21104,1.10525 1.67409,1.68205 2.60881,2.72915 2.72918,3.05734 0.08265,0.225372 0.16641,0.319072 1.42391,1.592752 1.34339,1.3607 1.68252,1.76079 1.57907,1.86292 -0.0277,0.0273 -0.12881,0.01 -0.22469,-0.0395 z m -5.46622,-5.281112 c -0.05481,-0.12526 -0.37058,-0.37206 -0.43503,-0.34003 -0.10006,0.0498 0.03001,0.2762 0.22224,0.38689 0.17489,0.10069 0.26838,0.0801 0.21279,-0.0469 z m 0.04255,-0.66283 c -0.20465,-0.20599 -0.35812,-0.2648 -0.35894,-0.1376 -0.0011,0.17368 0.38235,0.46706 0.48194,0.36873 0.03928,-0.0388 0.0059,-0.10136 -0.123,-0.23113 z m 3.63151,3.205932 c -0.07881,-0.0957 -0.0014,-0.0302 0.17211,0.14553 0.17348,0.17572 0.23797,0.25398 0.14331,0.17395 -0.09465,-0.0801 -0.23659,-0.22382 -0.31542,-0.31948 z m -3.29758,2.20569 c -0.41316,-0.63404 -0.48921,-0.85409 -0.53472,-1.54686 -0.01206,-0.18365 -0.06038,-0.37159 -0.10789,-0.41972 -0.04957,-0.0502 -0.29648,-0.11132 -0.5824,-0.14414 -0.41331,-0.0475 -0.48998,-0.0717 -0.45823,-0.14463 0.08388,-0.19278 0.7042,-1.203312 0.73853,-1.203092 0.02021,1.3e-4 0.04332,0.11292 0.0514,0.25062 0.01822,0.31124 0.13427,0.434432 0.44759,0.475082 0.43562,0.0566 0.76482,0.28797 0.9053,0.63642 0.05953,0.14766 0.05122,0.21184 -0.04513,0.34898 -0.16267,0.23148 -0.22289,0.43418 -0.24211,0.81504 -0.01673,0.33119 0.09524,1.0153 0.18026,1.10142 0.02576,0.0261 0.09064,0.16557 0.1442,0.30999 0.08451,0.22788 0.08359,0.25268 -0.0069,0.18765 -0.05734,-0.0412 -0.27778,-0.34125 -0.48991,-0.66676 z m -0.39058,-2.46308 c -0.14969,-0.15162 -0.59388,-0.0982 -0.78954,0.095 -0.13207,0.1304 0.0082,0.18617 0.37055,0.1474 0.36837,-0.0394 0.52813,-0.13183 0.41899,-0.24238 z m 2.06351,-2.572502 c -0.21394,0.0633 -0.56113,-0.15329 -1.06682,-0.6655 -0.55944,-0.56665 -0.5972,-0.67304 -0.31435,-0.88612 0.19284,-0.14528 0.22984,-0.29224 0.09392,-0.37298 -0.12942,-0.0769 -0.1267,-0.189257 0.01452,-0.59575 0.14441,-0.415723 0.19757,-1.269937 0.10233,-1.644564 -0.08947,-0.351979 -0.2681,-0.516846 -0.93584,-0.863745 -0.70181,-0.364572 -0.91821,-0.410303 -1.09865,-0.23216 -0.11139,0.109973 -0.20564,0.134992 -0.53511,0.142087 -0.21995,0.0047 -0.45876,0.04572 -0.53067,0.09107 -0.07193,0.04538 -0.46567,0.250725 -0.87499,0.456348 -0.40933,0.205623 -0.87293,0.465957 -1.03025,0.578522 -0.32478,0.232396 -0.59307,0.370857 -0.63544,0.327942 -0.01581,-0.01601 0.03002,-0.109161 0.10186,-0.206998 0.12587,-0.171492 0.12571,-0.178195 -0.0043,-0.185527 -0.19687,-0.01107 -0.4811,0.101123 -0.54999,0.217092 -0.03287,0.05537 -0.04633,0.167394 -0.02988,0.248957 0.01644,0.08155 -0.0023,0.180081 -0.04168,0.218938 -0.08838,0.08726 -0.39544,0.05451 -0.50105,-0.05343 -0.08043,-0.08218 -0.21441,-0.544692 -0.24435,-0.843504 l -0.01693,-0.16886 0.09882,0.08799 c 0.05434,0.0484 0.14248,0.128406 0.19582,0.177776 0.21193,0.196144 0.26889,0.146591 0.24975,-0.217288 -0.01,-0.189952 0.0019,-0.303315 0.02636,-0.251929 0.06814,0.143004 0.18834,0.08211 0.32431,-0.164239 0.08667,-0.157065 0.11806,-0.191418 0.10784,-0.117985 -0.04896,0.351559 -0.05665,0.707936 -0.01529,0.708198 0.0266,1.7e-4 0.15351,-0.143357 0.28205,-0.318947 0.27822,-0.380113 0.44137,-0.489824 0.61229,-0.411743 0.15913,0.07267 0.1755,-0.0011 0.0721,-0.325232 l -0.0828,-0.259548 0.21669,0.1139 0.2167,0.113913 0.20449,-0.224619 c 0.18101,-0.198867 0.21254,-0.216437 0.27503,-0.153163 0.10375,0.105115 0.32028,0.07697 0.43656,-0.05674 0.11763,-0.135293 0.22813,-0.172121 0.29951,-0.09983 0.08013,0.08117 0.46529,0.02768 0.90738,-0.126037 0.32734,-0.113796 0.45785,-0.188891 0.65369,-0.376055 0.16974,-0.162209 0.27199,-0.227525 0.33376,-0.213203 0.13943,0.03232 0.14163,0.05652 0.01368,0.15044 -0.14574,0.107014 -0.1512,0.338507 -0.01046,0.444801 0.1242,0.09383 0.34294,-0.02621 0.48226,-0.264668 0.12707,-0.217484 0.13162,-0.378778 0.01407,-0.497862 -0.10209,-0.103401 -0.07193,-0.16115 0.07644,-0.146408 0.09346,0.0093 0.16756,0.07507 0.43653,0.387484 0.05699,0.06618 0.11774,0.100821 0.13503,0.07697 0.01727,-0.02384 0.0512,-0.07405 0.0754,-0.111557 0.03489,-0.05407 0.07152,-0.03387 0.17682,0.09757 0.33931,0.423448 0.38191,0.43942 0.49069,0.183838 0.05969,-0.140241 0.1107,-0.04967 0.20919,0.371381 0.12295,0.525696 0.17041,0.609236 0.29406,0.517526 0.08958,-0.06644 0.11704,-0.05372 0.31031,0.143737 0.19054,0.194639 0.21052,0.238903 0.19705,0.43633 -0.01643,0.24109 0.08449,0.485975 0.28321,0.687265 0.11003,0.111439 0.13668,0.116846 0.18395,0.03726 0.08051,-0.135516 0.11287,0.01312 0.11943,0.548567 0.0065,0.532949 -0.14724,1.274009 -0.4348,2.095669 -0.13232,0.37811 -0.21829,0.74485 -0.22786,0.97205 -0.01759,0.41854 -0.0053,0.38202 -0.14236,0.42257 z m -0.35158,-3.049358 c -0.06853,-0.224397 -0.38963,-0.224175 -0.5078,3.66e-4 -0.07347,0.139535 0.01517,0.201696 0.2598,0.182202 0.24965,-0.01989 0.28886,-0.04875 0.248,-0.182568 z m -1.8502,1.135438 c -0.2471,-0.0383 -0.7902,-0.491142 -1.50192,-1.252324 -0.65904,-0.704847 -0.77668,-0.882125 -0.71578,-1.078728 0.04713,-0.152129 0.25528,-0.219513 0.85861,-0.27793 0.934,-0.09048 1.44883,0.186509 1.70079,0.915039 0.15402,0.445351 0.06124,1.597903 -0.13647,1.695383 -0.0258,0.0127 -0.11815,0.0121 -0.20523,-0.001 z m -1.3584,-4.351788 c -0.06574,0.01266 -0.29723,-0.04546 -0.3355,-0.08422 -0.05969,-0.06045 0.0013,-0.271266 0.10933,-0.377914 0.22243,-0.219605 0.42308,-0.141563 0.44493,0.173037 0.0087,0.12516 -0.09774,0.265794 -0.21876,0.289097 z m -6.90162,6.402078 c -0.15661,0.0996 -0.30727,0.18102 -0.3348,0.18086 -0.1285,-8.2e-4 -0.01379,-0.13257 0.39966,-0.45896 0.24699,-0.19496 0.60384,-0.50729 0.79301,-0.69406 0.29165,-0.28793 0.35631,-0.37908 0.4252,-0.5994 0.06823,-0.21814 0.10803,-0.27479 0.24806,-0.35306 0.30706,-0.17159 0.27872,-0.467406 -0.04341,-0.453398 -0.1131,0.0049 -0.23203,0.08086 -0.51209,0.327048 -0.39583,0.34799 -0.48235,0.38952 -0.58809,0.2824 -0.10944,-0.11085 -0.37451,-0.0496 -0.74019,0.17098 -0.18556,0.11194 -0.40314,0.2215 -0.48352,0.24344 -0.13503,0.0369 -0.12967,0.028 0.07031,-0.1167 0.38476,-0.27841 0.53125,-0.45248 0.53829,-0.63961 0.0079,-0.208604 0.07946,-0.28747 0.25217,-0.277769 0.09467,0.0053 0.15773,0.04855 0.22891,0.156803 0.09293,0.141366 0.10178,0.143226 0.16342,0.03452 0.19471,-0.343429 0.2354,-0.384067 0.27828,-0.277864 0.02249,0.05571 0.07021,0.147481 0.10605,0.203973 0.0781,0.123077 0.11806,0.09071 0.29857,-0.241835 0.15343,-0.28267 0.33988,-0.419481 0.47486,-0.348444 0.14861,0.07821 0.25933,0.354976 0.2532,0.633011 -0.005,0.225745 -0.02711,0.273065 -0.20412,0.435845 -0.14195,0.13058 -0.2071,0.23167 -0.22862,0.35484 -0.01655,0.0947 -0.06324,0.2228 -0.10373,0.2846 -0.12272,0.18736 -0.98787,0.95959 -1.29142,1.15278 z m 2.16844,-2.560114 c -0.07351,-0.01786 0.0699,-0.460066 0.17071,-0.526377 0.13351,-0.08782 0.06348,0.308029 -0.0904,0.511072 -0.01226,0.01617 -0.04839,0.02305 -0.08031,0.0153 z m 2.31519,-3.403435 c -0.12551,-0.0389 -0.1697,-0.128786 -0.09722,-0.197728 0.07943,-0.07553 0.3614,-0.08586 0.37791,-0.01382 0.02611,0.113795 -0.15518,0.250423 -0.28069,0.211553 z m -2.85344,2.220586 c -0.41019,0.314575 -0.50682,0.339672 -0.63516,0.164868 -0.12796,-0.17432 -0.20689,-0.119151 -0.3361,0.234896 -0.10862,0.297647 -0.33099,0.590528 -0.35822,0.471796 -0.0076,-0.03327 0.02741,-0.101279 0.07787,-0.151094 0.16218,-0.160128 -0.02058,-0.24575 -0.42089,-0.197166 -0.20009,0.02429 -0.35372,0.02409 -0.3414,-4.06e-4 0.04749,-0.09435 0.64105,-0.399921 1.08111,-0.556553 0.43807,-0.155952 1.38141,-0.413655 1.40961,-0.385075 0.02202,0.0223 -0.10229,0.13147 -0.47682,0.418734 z"
           id="path4751" />
        <g
           id="g17261"
           transform="translate(-7.2385833,-4.1127463)">
          <path
             style="fill:#3f3f3f;fill-opacity:1;stroke-width:0.295777"
             d="m 111.38576,95.920962 -1.67147,-1.527318 0.56398,-0.696483 c 0.63497,-0.784151 0.69962,-0.757425 2.70503,1.117969 1.24386,1.163239 1.33809,1.509349 0.59154,2.173008 -0.47705,0.424087 -0.64856,0.340479 -2.18908,-1.067176 z"
             id="path966" />
          <g
             id="g17254"
             transform="matrix(-1,0,0,1,190.86174,-0.29866124)">
            <path
               style="fill:#3f3f3f;fill-opacity:1;stroke-width:0.295777"
               d="m 77.388411,107.34162 c -2.304474,-2.42274 -3.560726,-3.95074 -3.465592,-4.21526 0.05045,-0.14031 1.223084,-1.47762 2.605848,-2.97178 3.335615,-3.604373 10.168391,-9.26275 10.871036,-9.002565 0.752191,0.278525 4.806838,4.873092 4.795939,5.434566 -0.02304,1.187251 -11.816746,12.159979 -13.069778,12.159979 -0.220607,0 -1.002455,-0.63221 -1.737453,-1.40494 z"
               id="path962" />
            <path
               style="fill:#3f3f3f;fill-opacity:1;stroke-width:0.295777"
               d="m 89.19836,110.12393 c -0.846116,-1.00156 -2.146257,-2.46142 -2.889203,-3.24412 l -1.350815,-1.42308 1.718638,-1.61884 1.718649,-1.61883 2.807764,2.95296 c 1.544279,1.62412 2.789185,3.05953 2.766458,3.18981 -0.02272,0.13027 -0.759457,0.98976 -1.63721,1.90999 l -1.595904,1.67313 z"
               id="path960" />
            <path
               style="fill:#3f3f3f;fill-opacity:1;stroke-width:0.295777"
               d="m 103.4139,125.67985 c -1.65654,-2.07414 -3.849214,-4.63631 -4.872607,-5.69372 l -1.860723,-1.92256 1.6375,-1.74699 1.637512,-1.747 0.746248,1.00756 c 0.41043,0.55414 2.87091,3.09065 5.46773,5.63665 4.63892,4.54816 4.71353,4.64127 4.26585,5.32401 -0.63151,0.96309 -3.01466,2.91322 -3.56012,2.91322 -0.24722,0 -1.80485,-1.69702 -3.46139,-3.77117 z"
               id="path958" />
          </g>
        </g>
        <path
           style="fill:#000000;stroke-width:0.264583"
           d="m 77.642519,129.60856 c -0.04788,-1.10646 -0.02752,-2.09828 0.04524,-2.20404 0.07276,-0.10576 1.20385,-0.89281 2.51354,-1.74899 1.30969,-0.85618 3.12539,-2.2805 4.0349,-3.16515 1.40435,-1.36597 1.65364,-1.74744 1.65364,-2.53039 0,-0.50706 -0.19659,-1.20262 -0.43688,-1.54567 -0.48735,-0.69579 -3.2612,-2.05633 -5.97926,-2.93277 -1.71815,-0.55401 -1.78594,-0.60837 -1.78594,-1.43181 0,-0.85082 -0.01461,-0.86026 -2.4474,-1.58218 -8.01171,-2.37744 -13.32802,-5.01071 -12.81503,-6.34755 0.19807,-0.51615 1.21678,-0.62749 8.64706,-0.94505 5.04367,-0.21556 6.27251,-0.34172 6.51146,-0.66851 0.25875,-0.35386 2.48625,-0.4028 18.33348,-0.4028 h 18.038951 l -0.0765,2.29106 -0.0764,2.29106 -3.43959,1.36581 c -1.89177,0.7512 -3.97536,1.63853 -4.63021,1.97186 -2.79979,1.42513 -7.285819,5.32358 -7.938119,6.89838 -0.56763,1.37038 0.0722,2.22509 4.321249,5.77277 4.13029,3.44849 4.3645,3.79129 4.01278,5.87314 l -0.17784,1.05259 h -1.78781 c -1.45336,0 -1.87765,-0.0993 -2.26796,-0.53055 -0.98408,-1.0874 -3.523429,-1.52393 -9.984181,-1.71637 -5.75075,-0.17129 -6.09572,-0.15338 -7.80521,0.40508 -0.98369,0.32136 -2.0927,0.86724 -2.46447,1.21306 -0.55875,0.51976 -0.95649,0.62878 -2.2942,0.62878 h -1.61826 z"
           id="path854" />
        <g
           id="g20529"
           transform="translate(-4.0829662,-2.1238254)">
          <path
             style="fill:none;stroke:#fefefe;stroke-width:1.3165;stroke-linecap:butt;stroke-linejoin:miter;stroke-miterlimit:4;stroke-dasharray:none;stroke-opacity:1"
             d="M 91.881125,123.69762 V 111.0363 l 4.573757,7.92198"
             id="path17380" />
          <path
             style="fill:none;stroke:#fefefe;stroke-width:1.3165;stroke-linecap:butt;stroke-linejoin:miter;stroke-miterlimit:4;stroke-dasharray:none;stroke-opacity:1"
             d="M 96.427906,123.69762 V 111.0363 l -4.573757,7.92198"
             id="path17462" />
          <path
             style="fill:none;stroke:#fefefe;stroke-width:1.3165;stroke-linecap:butt;stroke-linejoin:miter;stroke-miterlimit:4;stroke-dasharray:none;stroke-opacity:1"
             d="m 96.540864,121.02681 4.454526,-5.16986"
             id="path17577"
             sodipodi:nodetypes="cc" />
          <path
             style="fill:none;stroke:#fefefe;stroke-width:1.3165;stroke-linecap:butt;stroke-linejoin:miter;stroke-miterlimit:4;stroke-dasharray:none;stroke-opacity:1"
             d="m 96.540864,121.02681 4.454526,5.16986"
             id="path17758"
             sodipodi:nodetypes="cc" />
        </g>
      </g>
    </g>
  </g>
</svg>
